<svg width="151" height="38" viewBox="0 0 151 38" fill="none" xmlns="http://www.w3.org/2000/svg">
<path d="M4.68622 32.7494V33.596C4.68703 33.7636 4.65145 33.9298 4.58137 34.0848C4.51155 34.2399 4.40885 34.3806 4.27919 34.4991C4.15008 34.6184 3.99616 34.7124 3.82661 34.7761C3.65733 34.8398 3.47619 34.8724 3.29316 34.8719H0.709471C0.657986 34.8756 0.606769 34.865 0.562292 34.8411C0.518085 34.8174 0.482773 34.7816 0.461209 34.7386V37.4797C0.461479 37.4915 0.459052 37.5034 0.4542 37.5143C0.449079 37.5251 0.4418 37.535 0.432635 37.5434C0.414036 37.5599 0.38924 37.5693 0.363363 37.5693H0V31.7102C0.000539111 31.6479 0.0274965 31.5882 0.0752078 31.5437C0.123458 31.4993 0.189226 31.4744 0.257693 31.4741H3.29316C3.47592 31.4739 3.65733 31.5065 3.82634 31.5704C3.99562 31.6344 4.14927 31.7284 4.27865 31.8467C4.40804 31.9652 4.51074 32.1059 4.58055 32.2607C4.65064 32.4158 4.68649 32.5817 4.68622 32.7494ZM4.22501 32.676C4.22528 32.5639 4.20129 32.4528 4.15466 32.3491C4.10775 32.2454 4.03929 32.1514 3.95249 32.0721C3.86596 31.9929 3.76326 31.9299 3.65005 31.8872C3.53684 31.8442 3.41554 31.8222 3.29316 31.8225H0.556361C0.543423 31.8222 0.530484 31.8245 0.518624 31.8292C0.506763 31.8336 0.495982 31.8403 0.486817 31.8487C0.477652 31.8568 0.470643 31.8667 0.465791 31.8773C0.460669 31.8882 0.458243 31.8998 0.458243 31.9114V34.3737C0.458243 34.393 0.462288 34.412 0.470644 34.4295C0.478462 34.4473 0.490322 34.4636 0.504878 34.4774C0.535337 34.5043 0.57577 34.5196 0.61809 34.5201H3.28939C3.53657 34.5199 3.77405 34.43 3.94926 34.27C4.03578 34.1903 4.10452 34.0959 4.15169 33.9922C4.19832 33.8885 4.22231 33.7777 4.22205 33.6656L4.22501 32.676Z" fill="#313131"/>
<path d="M7.02051 36.3359V32.7082C7.02159 32.3697 7.16876 32.0455 7.42996 31.8062C7.69116 31.567 8.04509 31.4322 8.41465 31.4312H10.5447C10.914 31.4329 11.2679 31.5677 11.5291 31.807C11.7906 32.046 11.9383 32.3699 11.9407 32.7082V36.3359C11.9385 36.6739 11.7908 36.9975 11.5299 37.2365C11.269 37.4755 10.9156 37.6108 10.5466 37.6128H8.41653C8.0467 37.6128 7.6917 37.4783 7.42996 37.239C7.16822 36.9995 7.02105 36.6746 7.02051 36.3359ZM7.48279 32.6427V36.4013C7.48279 36.5702 7.53751 36.7351 7.63994 36.8756C7.74237 37.0161 7.88767 37.1254 8.05803 37.1904C8.17097 37.2333 8.29227 37.2556 8.41465 37.2558H10.5447C10.7921 37.2556 11.0291 37.1654 11.204 37.0052C11.3789 36.845 11.4773 36.6277 11.4776 36.4013V32.642C11.4776 32.5299 11.4533 32.4188 11.4064 32.3151C11.3595 32.2114 11.2908 32.1173 11.2043 32.0381C11.1177 31.9588 11.0148 31.8959 10.9016 31.8532C10.7883 31.8102 10.667 31.7882 10.5447 31.7885H8.41653C8.16935 31.7885 7.93241 31.8783 7.75747 32.0383C7.5828 32.1986 7.48468 32.4156 7.48468 32.642L7.48279 32.6427Z" fill="#313131"/>
<path d="M21.918 31.4725V36.9867C21.9169 37.0643 21.8999 37.1408 21.8676 37.2124C21.8347 37.2838 21.7864 37.3482 21.7258 37.4023C21.6662 37.4571 21.5951 37.5003 21.5169 37.5294C21.4387 37.5586 21.3549 37.5731 21.2703 37.5721H15.9614C15.171 37.5721 14.5586 37.0277 14.5586 36.3283V31.4698H14.922C14.9478 31.4708 14.9726 31.4804 14.9912 31.4969C15.0007 31.5051 15.0079 31.515 15.0128 31.5261C15.0176 31.5369 15.0201 31.5485 15.0198 31.5604V36.3999C15.0198 36.8709 15.4279 37.221 15.9641 37.221H18.1399C18.096 37.1986 18.0598 37.165 18.0361 37.1245C18.0129 37.084 18.0024 37.0386 18.0057 36.9929V31.4698H18.3795C18.4318 31.4611 18.468 31.5021 18.468 31.5518V37.0818C18.4698 37.1134 18.4822 37.1438 18.503 37.169C18.5238 37.1931 18.5515 37.2114 18.5831 37.222H21.1934C21.2616 37.222 21.3271 37.1971 21.3756 37.1529C21.4239 37.1087 21.4511 37.0485 21.4511 36.986V31.5535C21.4509 31.5421 21.4535 31.5308 21.4587 31.5204C21.4638 31.51 21.4711 31.5009 21.4805 31.4935C21.4894 31.4856 21.5002 31.4794 21.5118 31.476C21.5239 31.4737 21.536 31.4737 21.5479 31.476L21.918 31.4725Z" fill="#313131"/>
<path d="M24.9904 32.6757V34.4492C25.0184 34.4127 25.0556 34.3825 25.0987 34.362C25.1421 34.3423 25.1901 34.3324 25.2386 34.3334H28.6477V34.5998C28.6477 34.6122 28.6458 34.6245 28.642 34.6364C28.6372 34.648 28.6302 34.6586 28.621 34.6677C28.6118 34.6768 28.6011 34.6842 28.5887 34.6897C28.5763 34.6944 28.5631 34.6971 28.5498 34.6973H24.9915V36.3664C24.9909 36.4785 25.0149 36.5896 25.0615 36.6933C25.1082 36.797 25.1766 36.8913 25.2634 36.9708C25.3497 37.0503 25.4527 37.1135 25.5659 37.1562C25.6791 37.1992 25.8007 37.2211 25.9233 37.2206H28.7903C28.8043 37.2201 28.8183 37.2226 28.8313 37.2278C28.8447 37.232 28.8566 37.2392 28.8663 37.2485C28.8768 37.2577 28.8849 37.2685 28.8903 37.2809C28.8954 37.2927 28.8976 37.3056 28.8968 37.3182V37.5707H25.9195C25.7362 37.5712 25.5546 37.5384 25.3853 37.4742C25.2157 37.41 25.0618 37.3159 24.9324 37.1972C24.6712 36.9572 24.5249 36.632 24.5254 36.293V32.7394C24.5259 32.4009 24.6728 32.0763 24.9343 31.837C25.1955 31.5975 25.55 31.463 25.9195 31.4625H28.8968V31.7239C28.8976 31.7368 28.8951 31.7499 28.8903 31.7622C28.8846 31.7741 28.8768 31.7849 28.8674 31.7943C28.8571 31.8034 28.8453 31.8106 28.8321 31.8153C28.8189 31.8202 28.8046 31.8224 28.7903 31.8222H25.9222C25.7998 31.8222 25.6788 31.8439 25.5656 31.8866C25.4524 31.9294 25.3494 31.9923 25.2634 32.0723C25.1766 32.1513 25.1076 32.2454 25.061 32.3491C25.0141 32.4525 24.9901 32.5636 24.9904 32.6757Z" fill="#313131"/>
<path d="M36.0599 37.5765H35.6521C35.6235 37.576 35.5958 37.5681 35.572 37.5538C35.5486 37.5392 35.53 37.5187 35.5189 37.4945L34.1609 34.7004H31.9681C31.9166 34.7036 31.8654 34.6927 31.8206 34.669C31.7762 34.6456 31.7406 34.6098 31.719 34.567V37.4866C31.719 37.4985 31.7166 37.5098 31.7117 37.5207C31.7066 37.5316 31.6996 37.5412 31.6904 37.5493C31.6718 37.5661 31.647 37.576 31.6209 37.5765H31.2578V31.7136C31.2581 31.6512 31.2853 31.5914 31.3338 31.5472C31.3575 31.5253 31.3859 31.5077 31.4168 31.4959C31.4481 31.4838 31.4815 31.4776 31.5155 31.4776H34.5585C34.9278 31.4783 35.2817 31.6131 35.5429 31.8524C35.8041 32.0919 35.951 32.4163 35.9516 32.7546V33.4627C35.9516 34.0402 35.3922 34.7152 34.6733 34.7152L36.0599 37.5765ZM34.5604 34.3476C34.8076 34.3471 35.0443 34.2569 35.2189 34.0967C35.3936 33.9367 35.492 33.7194 35.4922 33.4933V32.6798C35.4922 32.4533 35.3941 32.2361 35.2192 32.0761C35.0445 31.9161 34.8076 31.826 34.5604 31.826H31.8169C31.791 31.8262 31.7659 31.8356 31.7473 31.8522C31.7384 31.8603 31.7312 31.8702 31.7263 31.8808C31.7214 31.8917 31.7188 31.9033 31.719 31.9149V34.209C31.7196 34.2276 31.7241 34.2458 31.7325 34.2629C31.7409 34.2797 31.7527 34.295 31.7675 34.3076C31.7977 34.3335 31.8374 34.3478 31.8786 34.3476H34.5604Z" fill="#313131"/>
<path d="M38.3599 31.4649H38.7232C38.7359 31.4647 38.7486 31.4669 38.7601 31.4716C38.772 31.476 38.7828 31.4827 38.7917 31.4908C38.8097 31.5079 38.82 31.5308 38.8203 31.5545V37.5767H38.458C38.4318 37.5757 38.4073 37.566 38.3884 37.5497C38.3793 37.5413 38.372 37.5317 38.3671 37.5209C38.3623 37.5102 38.3599 37.4986 38.3599 37.487V31.4649Z" fill="#313131"/>
<path d="M46.0131 31.4727H46.3753V37.5698H45.8608C45.8306 37.5708 45.8004 37.5634 45.7745 37.5488C45.7486 37.5343 45.7281 37.513 45.7152 37.4879L42.4471 32.0632C42.4034 31.9919 42.3404 31.9319 42.2643 31.8889C42.1883 31.846 42.101 31.8218 42.0115 31.8193H41.9363V37.481C41.9355 37.5044 41.925 37.5269 41.9069 37.5437C41.898 37.5521 41.8875 37.5587 41.8757 37.5634C41.8638 37.5681 41.8511 37.5706 41.8385 37.5706H41.4751V31.5519C41.4754 31.5282 41.4856 31.5055 41.5037 31.4885C41.5126 31.4801 41.5233 31.4734 41.5349 31.469C41.5468 31.4645 41.5595 31.4621 41.5721 31.4623H42.1579C42.2824 31.4702 42.4029 31.5055 42.5094 31.5648C42.6158 31.6243 42.7053 31.7062 42.7703 31.8038L45.9085 37.0496V31.5623C45.9085 31.5502 45.9114 31.5379 45.9168 31.5267C45.9225 31.5156 45.9303 31.5055 45.9397 31.4971C45.9492 31.4887 45.9605 31.482 45.9732 31.4778C45.9858 31.4737 45.9993 31.4717 46.0131 31.4727Z" fill="#313131"/>
<path d="M50.3993 31.4312H53.4253V31.6926C53.4253 31.7042 53.4229 31.7158 53.418 31.7264C53.4129 31.7373 53.4059 31.7469 53.3967 31.7553C53.3878 31.7637 53.3773 31.7704 53.3654 31.7751C53.3536 31.7798 53.3409 31.7822 53.3282 31.7822H50.3993C50.2769 31.782 50.1553 31.8037 50.0421 31.8464C49.9289 31.8892 49.8259 31.9521 49.7391 32.0314C49.6526 32.1106 49.5839 32.2049 49.537 32.3086C49.4903 32.4123 49.4663 32.5237 49.4666 32.6358V36.402C49.4666 36.6286 49.565 36.8459 49.7399 37.0059C49.9149 37.1661 50.1521 37.2562 50.3993 37.2565H52.3516C52.5988 37.256 52.8358 37.1659 53.0104 37.0056C53.1851 36.8454 53.2832 36.6284 53.2835 36.402V34.6453H51.6233C51.6104 34.6453 51.5977 34.6431 51.5861 34.6386C51.5742 34.6339 51.5637 34.6275 51.5548 34.6191C51.5454 34.6107 51.5381 34.6008 51.5333 34.59C51.5284 34.5791 51.526 34.5673 51.5263 34.5554V34.2942H53.6563C53.6687 34.2942 53.6811 34.2969 53.6924 34.3021C53.7035 34.3065 53.7134 34.3132 53.7218 34.3211C53.7301 34.3297 53.7363 34.3399 53.7399 34.3507C53.7444 34.3613 53.7461 34.3727 53.7447 34.3838V36.3437C53.7447 36.6822 53.5981 37.0069 53.3369 37.2464C53.0754 37.4856 52.7212 37.6204 52.3516 37.6207H50.3993C50.0297 37.6202 49.6755 37.4854 49.414 37.2461C49.1528 37.0066 49.0057 36.6822 49.0054 36.3437V32.7133C49.0046 32.5457 49.0402 32.3797 49.11 32.2247C49.1801 32.0694 49.2828 31.9284 49.4121 31.8092C49.6744 31.5702 50.0294 31.4361 50.3993 31.4363V31.4312Z" fill="#313131"/>
<path d="M61.0063 31.7161C61.0066 31.6495 61.0354 31.5855 61.0869 31.5384C61.1384 31.4912 61.2082 31.4645 61.281 31.4643H64.3773C64.7464 31.466 65.1 31.6011 65.361 31.8401C65.6222 32.0793 65.7696 32.4032 65.7712 32.7413V36.2951C65.7715 36.6341 65.6248 36.9595 65.3636 37.1997C65.1022 37.44 64.7474 37.5753 64.3773 37.5763H61.2791C61.2063 37.5755 61.1368 37.5486 61.0853 37.5015C61.0338 37.4543 61.0047 37.3904 61.0044 37.3237L61.0063 31.7161ZM64.3792 37.2227C64.6259 37.2207 64.862 37.1301 65.0367 36.9704C65.2111 36.8104 65.31 36.5941 65.3119 36.3682V32.6761C65.3103 32.4499 65.2114 32.2336 65.0367 32.0739C64.8623 31.9141 64.6259 31.8238 64.3792 31.8223H61.574C61.5602 31.8216 61.5467 31.8233 61.5341 31.8277C61.5214 31.8317 61.5098 31.8378 61.4998 31.846C61.4899 31.8544 61.4818 31.8645 61.4758 31.8756C61.4705 31.8867 61.4675 31.8988 61.4675 31.9112V37.1252C61.4664 37.1383 61.4688 37.1514 61.474 37.1634C61.4794 37.1753 61.4869 37.1864 61.4969 37.1955C61.5068 37.2049 61.5187 37.2121 61.5322 37.2165C61.5454 37.2215 61.5597 37.2235 61.574 37.2227H64.3792Z" fill="#313131"/>
<path d="M68.4199 31.4649H68.783C68.796 31.4647 68.8084 31.4669 68.8202 31.4716C68.8321 31.476 68.8426 31.4827 68.8515 31.4908C68.8695 31.5079 68.8798 31.5308 68.8801 31.5545V37.5767H68.5178C68.4919 37.5759 68.4671 37.5663 68.4485 37.5497C68.4393 37.5413 68.4321 37.5317 68.4272 37.5209C68.4224 37.5102 68.4197 37.4986 68.4199 37.487V31.4649Z" fill="#313131"/>
<path d="M72.9376 31.4312H75.9644V31.6926C75.9644 31.7156 75.9542 31.7378 75.9364 31.7541C75.9186 31.7704 75.8944 31.7795 75.8693 31.7795H72.9376C72.815 31.7793 72.6934 31.801 72.5802 31.844C72.467 31.8869 72.364 31.9499 72.2775 32.0296C72.1033 32.1899 72.0052 32.4069 72.0047 32.6333V36.3995C72.0049 36.6259 72.1033 36.8432 72.2783 37.0034C72.4529 37.1636 72.6902 37.2538 72.9376 37.2538H74.8908C75.0132 37.2535 75.1342 37.2313 75.2474 37.1886C75.3606 37.1459 75.4636 37.0829 75.5499 37.0029C75.6361 36.9237 75.7046 36.8296 75.7515 36.7261C75.7981 36.6224 75.8218 36.5116 75.8216 36.3995V34.6426H74.1614C74.1487 34.6426 74.136 34.6403 74.1242 34.6359C74.1126 34.6314 74.1018 34.6248 74.0929 34.6164C74.0838 34.6082 74.0765 34.5984 74.0716 34.5873C74.0665 34.5764 74.0641 34.5648 74.0643 34.5529V34.2915H76.1944C76.207 34.2917 76.2194 34.2942 76.2305 34.2994C76.2415 34.3041 76.2518 34.3105 76.2601 34.3186C76.2685 34.3273 76.275 34.3374 76.279 34.3483C76.2809 34.3591 76.2809 34.3702 76.279 34.3813V36.341C76.2785 36.6795 76.1316 37.0039 75.8706 37.2431C75.6094 37.4824 75.2555 37.6172 74.8859 37.6179H72.9376C72.568 37.6174 72.2136 37.4829 71.9524 37.2434C71.6909 37.0041 71.544 36.6795 71.5435 36.341V32.7108C71.5429 32.5432 71.5785 32.377 71.6481 32.222C71.7181 32.0669 71.8211 31.9257 71.9505 31.8067C72.2125 31.5674 72.5675 31.4334 72.9376 31.4339V31.4312Z" fill="#313131"/>
<path d="M78.9219 31.4642H79.285C79.3108 31.4645 79.3359 31.4739 79.3545 31.4904C79.3637 31.4988 79.371 31.5087 79.3758 31.5195C79.3807 31.5304 79.3831 31.5422 79.3831 31.5541V37.5762H79.0227C78.9968 37.5755 78.9726 37.5658 78.9542 37.5493C78.9451 37.5409 78.9378 37.5313 78.9329 37.5204C78.9281 37.5098 78.9254 37.4982 78.9257 37.4866L78.9219 31.4642Z" fill="#313131"/>
<path d="M81.665 31.8223V31.5559C81.6653 31.5446 81.6677 31.5332 81.6726 31.5229C81.6782 31.5127 81.6855 31.5036 81.6947 31.4957C81.7039 31.4883 81.7144 31.4824 81.726 31.4784C81.7378 31.4762 81.7502 31.4762 81.7621 31.4784H86.3874V31.7396C86.3874 31.7515 86.385 31.7633 86.3798 31.7742C86.3747 31.7851 86.3674 31.7949 86.358 31.8033C86.3491 31.8115 86.3383 31.8181 86.3267 31.8226C86.3149 31.827 86.3022 31.8295 86.2895 31.8293H84.2525V37.4909C84.2528 37.5025 84.2501 37.5141 84.2452 37.525C84.2404 37.5356 84.2331 37.5455 84.2239 37.5536C84.2153 37.562 84.2045 37.5689 84.1929 37.5736C84.1811 37.578 84.1684 37.5805 84.1555 37.5805H83.7924V31.832L81.665 31.8223Z" fill="#313131"/>
<path d="M90.814 31.4643H92.0035L94.3562 37.5728H94.009C93.9783 37.5728 93.9483 37.5647 93.9225 37.5491C93.8969 37.5336 93.8766 37.5116 93.8645 37.4857L93.2254 35.7942H89.3201L88.6801 37.4857C88.6683 37.5121 88.6486 37.5348 88.623 37.5511C88.5969 37.5666 88.5667 37.575 88.5354 37.5753H88.1885L90.4403 31.703C90.4708 31.6346 90.5223 31.5759 90.5886 31.5342C90.6552 31.4922 90.7334 31.4687 90.814 31.467V31.4643ZM89.4551 35.4413H93.0963L91.7202 31.8223H90.9299C90.9013 31.8213 90.873 31.8287 90.8493 31.8433C90.825 31.8576 90.8067 31.8786 90.7967 31.9035L89.4551 35.4413Z" fill="#313131"/>
<path d="M96.5969 31.5545C96.5971 31.5308 96.6074 31.5078 96.6254 31.4908C96.6343 31.4826 96.6451 31.476 96.6567 31.4715C96.6686 31.4668 96.6813 31.4646 96.6939 31.4649H97.0573V36.3572C97.0573 36.5865 97.1559 36.8065 97.3319 36.9697C97.5082 37.1327 97.7473 37.2257 97.9978 37.2282H100.755C100.768 37.2282 100.781 37.2307 100.793 37.2354C100.804 37.2398 100.815 37.2467 100.824 37.2551C100.842 37.2719 100.852 37.2944 100.853 37.3178V37.5793H97.994C97.6209 37.5778 97.2635 37.4408 97.0007 37.1983C96.7379 36.9556 96.5909 36.6275 96.5923 36.2858L96.5969 31.5545Z" fill="#313131"/>
<path d="M115.132 31.4725V36.9867C115.131 37.0643 115.114 37.1408 115.081 37.2124C115.049 37.2835 115.001 37.348 114.941 37.4023C114.88 37.4566 114.809 37.4998 114.73 37.5294C114.652 37.5583 114.568 37.5729 114.484 37.5721H109.175C108.385 37.5721 107.772 37.0277 107.772 36.3283V31.4698H108.136C108.162 31.4708 108.186 31.4804 108.205 31.4969C108.215 31.5051 108.222 31.515 108.227 31.5261C108.232 31.5369 108.234 31.5485 108.234 31.5604V36.3999C108.234 36.8709 108.642 37.221 109.178 37.221H111.354C111.31 37.1986 111.274 37.165 111.25 37.1245C111.227 37.084 111.216 37.0386 111.22 36.9929V31.4698H111.593C111.646 31.4611 111.682 31.5021 111.682 31.5518V37.0818C111.684 37.1127 111.696 37.142 111.717 37.1667C111.737 37.1914 111.765 37.2099 111.797 37.2203H114.407C114.441 37.2203 114.474 37.2144 114.505 37.2025C114.537 37.1907 114.565 37.1734 114.589 37.1514C114.637 37.1072 114.665 37.047 114.665 36.9843V31.5518C114.665 31.5404 114.667 31.529 114.673 31.5187C114.678 31.5083 114.685 31.4992 114.694 31.4918C114.703 31.4839 114.714 31.4777 114.726 31.4742C114.738 31.472 114.75 31.472 114.762 31.4742L115.132 31.4725Z" fill="#313131"/>
<path d="M118.201 32.6757V34.4492C118.229 34.4127 118.266 34.3828 118.309 34.362C118.353 34.3423 118.401 34.3324 118.449 34.3334H121.858V34.5998C121.859 34.6124 121.857 34.6247 121.853 34.6364C121.848 34.648 121.841 34.6586 121.832 34.6677C121.823 34.6771 121.812 34.6842 121.8 34.6894C121.788 34.6946 121.775 34.6973 121.761 34.6973H118.202V36.3664C118.202 36.4787 118.226 36.5898 118.272 36.6938C118.319 36.7975 118.388 36.8915 118.475 36.9708C118.561 37.0503 118.664 37.1132 118.777 37.1562C118.89 37.1992 119.012 37.2209 119.134 37.2206H122.005C122.019 37.2204 122.033 37.2229 122.046 37.2278C122.06 37.2322 122.072 37.2394 122.082 37.2485C122.091 37.2579 122.099 37.2688 122.105 37.2809C122.11 37.2927 122.112 37.3056 122.112 37.3182V37.5707H119.134C118.951 37.5712 118.769 37.5384 118.6 37.4742C118.43 37.41 118.276 37.3159 118.147 37.1972C117.886 36.9572 117.739 36.632 117.74 36.293V32.7394C117.74 32.4009 117.887 32.0763 118.149 31.837C118.41 31.5975 118.764 31.463 119.134 31.4625H122.112V31.7239C122.112 31.737 122.11 31.7499 122.105 31.7622C122.1 31.7743 122.092 31.7852 122.082 31.7943C122.072 31.8034 122.06 31.8106 122.046 31.8153C122.033 31.8202 122.019 31.8224 122.005 31.8222H119.138C119.015 31.8222 118.894 31.8442 118.781 31.8869C118.668 31.9298 118.565 31.9926 118.478 32.0718C118.392 32.1513 118.323 32.2454 118.276 32.3491C118.229 32.4525 118.205 32.5636 118.205 32.6757H118.201Z" fill="#313131"/>
<path d="M126.674 31.4642H127.864L130.216 37.5728H129.87C129.839 37.573 129.809 37.5649 129.783 37.5493C129.757 37.5337 129.737 37.5115 129.725 37.4856L129.085 35.7941H125.179L124.54 37.4856C124.528 37.512 124.508 37.5347 124.482 37.551C124.456 37.5668 124.426 37.5752 124.394 37.5752H124.049L126.3 31.703C126.331 31.6346 126.383 31.5758 126.449 31.5341C126.515 31.4911 126.593 31.4669 126.674 31.4642ZM125.316 35.4413H128.955L127.58 31.8222H126.792C126.763 31.8212 126.735 31.8287 126.711 31.8432C126.687 31.8578 126.669 31.8788 126.659 31.9035L125.316 35.4413Z" fill="#313131"/>
<path d="M132.457 31.5541C132.457 31.5309 132.467 31.5086 132.485 31.4923C132.503 31.4761 132.527 31.4669 132.552 31.4669H132.915V36.3567C132.915 36.5866 133.015 36.8073 133.191 36.9705C133.368 37.1335 133.609 37.2261 133.86 37.2276H136.617C136.63 37.2278 136.643 37.23 136.655 37.2347C136.666 37.2394 136.677 37.2461 136.686 37.2547C136.695 37.2629 136.702 37.2725 136.707 37.2834C136.713 37.294 136.715 37.3056 136.715 37.3174V37.5786H133.857C133.672 37.5782 133.489 37.5443 133.319 37.4789C133.148 37.4135 132.993 37.3182 132.863 37.1982C132.733 37.0779 132.63 36.9355 132.56 36.7789C132.489 36.6222 132.454 36.4545 132.454 36.2851L132.457 31.5541Z" fill="#313131"/>
<path d="M138.597 31.8217V31.5602C138.597 31.5489 138.6 31.5375 138.605 31.5271C138.61 31.5168 138.617 31.5076 138.626 31.5002C138.635 31.4923 138.646 31.4864 138.658 31.4827C138.67 31.4807 138.683 31.4807 138.695 31.4827H143.32V31.7441C143.32 31.756 143.317 31.7676 143.312 31.7787C143.307 31.7896 143.3 31.7994 143.29 31.8076C143.272 31.8239 143.248 31.8333 143.222 31.8338H141.18V37.4954C141.18 37.5184 141.17 37.5406 141.152 37.5569C141.135 37.5732 141.111 37.5823 141.085 37.5823H140.722V31.8338L138.597 31.8217Z" fill="#313131"/>
<path d="M149.827 34.6937H146.009V37.481C146.009 37.4926 146.006 37.5042 146.001 37.5148C145.997 37.5256 145.989 37.5355 145.98 37.5437C145.962 37.5602 145.937 37.5698 145.912 37.5706H145.548V31.4623H145.912C145.924 31.4621 145.937 31.4645 145.949 31.469C145.96 31.4734 145.971 31.4801 145.98 31.4885C145.998 31.5055 146.008 31.5282 146.009 31.5519V34.3392H149.827V31.5519C149.827 31.5282 149.837 31.5055 149.855 31.4885C149.864 31.4801 149.875 31.4734 149.887 31.469C149.898 31.4645 149.911 31.4621 149.924 31.4623H150.287V37.5768H149.924C149.898 37.5758 149.874 37.5661 149.855 37.5496C149.846 37.5414 149.839 37.5318 149.834 37.5209C149.829 37.5101 149.827 37.4987 149.827 37.4869V34.6937Z" fill="#313131"/>
<path d="M18.8469 22.9496H17.3862C17.2811 22.9459 17.1789 22.9173 17.0897 22.8662C17.0005 22.8151 16.9274 22.7435 16.8775 22.6585L12.0498 12.6517H2.99787C2.68007 12.6804 2.42723 12.8843 2.42723 13.1742V22.6299C2.42642 22.7146 2.38949 22.7953 2.32426 22.8551C2.25902 22.9151 2.17061 22.9489 2.07815 22.9496H0.775391V1.42179C0.776469 1.3371 0.813666 1.25636 0.879168 1.19636C0.94467 1.13661 1.03309 1.10279 1.12527 1.10205H2.42723V11.8947C2.52238 11.6039 2.87226 11.4009 3.34857 11.4009H12.0193C12.4571 11.4009 12.8908 11.3219 13.2954 11.1684C13.7 11.0148 14.0677 10.7899 14.3774 10.5062C14.6871 10.2225 14.9327 9.88572 15.1004 9.51513C15.268 9.14453 15.3543 8.74751 15.3543 8.3463V1.42179C15.3548 1.33735 15.392 1.25636 15.4573 1.19661C15.5225 1.13662 15.6109 1.10279 15.7031 1.10205H17.0059V8.0841C17.0034 8.91293 16.7573 9.72573 16.2934 10.4373C15.8295 11.1488 15.1653 11.733 14.3699 12.1283L13.7348 12.4191L18.8469 22.9496Z" fill="#313131"/>
<path d="M28.4707 1.10205H29.7727C29.8651 1.10279 29.9535 1.13661 30.0188 1.19636C30.0843 1.25636 30.1215 1.3371 30.1225 1.42179V22.9496H28.8198C28.7273 22.9489 28.6392 22.9151 28.5737 22.8551C28.5084 22.7953 28.4715 22.7146 28.4707 22.6299V1.10205Z" fill="#313131"/>
<path d="M41.1416 1.42179C41.1427 1.3371 41.1799 1.25636 41.2454 1.19636C41.3109 1.13661 41.3993 1.10279 41.4918 1.10205H42.7916V18.5884C42.7907 19.4093 43.1444 20.1972 43.7752 20.7804C44.4059 21.3633 45.2626 21.6944 46.1588 21.7013H56.038C56.1305 21.702 56.2186 21.7359 56.2841 21.7959C56.3494 21.8556 56.3863 21.9366 56.3871 22.021V22.9521H46.1607C44.8262 22.9471 43.5479 22.4573 42.6072 21.5902C41.6662 20.7231 41.1392 19.5496 41.1416 18.3272V1.42179Z" fill="#313131"/>
<path d="M65.9478 18.5284V5.55041C65.9499 4.33962 66.4761 3.1792 67.4104 2.3232C68.3449 1.4672 69.6118 0.98501 70.9335 0.982788H78.5562C79.8762 0.989948 81.1402 1.47338 82.0736 2.32839C83.0074 3.1834 83.5352 4.3411 83.543 5.55041V18.5284C83.5352 19.7375 83.0071 20.8949 82.0736 21.7499C81.1402 22.6047 79.8762 23.0881 78.5562 23.095H70.9335C69.6118 23.0928 68.3452 22.6111 67.4106 21.7551C66.4761 20.8991 65.9499 19.7389 65.9478 18.5284ZM67.5996 5.3203V18.7627C67.5993 19.1637 67.6856 19.5609 67.853 19.9315C68.0206 20.3021 68.2662 20.6389 68.5756 20.9226C68.8854 21.2063 69.2528 21.4312 69.6574 21.5848C70.062 21.7381 70.4957 21.8171 70.9335 21.8171H78.5562C78.9942 21.8173 79.428 21.7383 79.8326 21.585C80.2372 21.4314 80.6048 21.2065 80.9145 20.9228C81.2243 20.6391 81.4698 20.3024 81.6375 19.9318C81.8052 19.5609 81.8912 19.1637 81.8912 18.7627V5.3203C81.8912 4.91934 81.8052 4.52184 81.6375 4.15124C81.4698 3.78065 81.2243 3.44387 80.9145 3.16019C80.6048 2.8765 80.2372 2.65157 79.8326 2.498C79.428 2.34468 78.9942 2.26568 78.5562 2.26568H70.9335C70.4957 2.26568 70.062 2.34468 69.6574 2.49825C69.2528 2.65182 68.8854 2.87675 68.5756 3.16044C68.2662 3.44412 68.0206 3.78089 67.853 4.15149C67.6856 4.52208 67.5993 4.91934 67.5996 5.3203Z" fill="#313131"/>
<path d="M111.429 8.02583C111.429 9.24527 110.288 11.4881 108.475 11.9244C110.158 12.1569 111.429 14.4504 111.429 15.6478V18.383C111.43 18.983 111.302 19.5775 111.053 20.1323C110.802 20.687 110.435 21.191 109.972 21.6154C109.508 22.0398 108.958 22.3761 108.352 22.605C107.747 22.8338 107.098 22.9511 106.442 22.9496H95.4846C95.224 22.9484 94.9744 22.8531 94.7903 22.6842C94.6059 22.5153 94.5018 22.2867 94.5005 22.048V2.00373C94.5018 1.76498 94.6059 1.53635 94.7903 1.36747C94.9744 1.19859 95.224 1.10329 95.4846 1.10205H106.442C107.764 1.10427 109.031 1.58622 109.966 2.44222C110.9 3.29846 111.427 4.45889 111.429 5.66968V8.02583ZM109.777 5.43636C109.777 5.03515 109.691 4.63789 109.524 4.26729C109.356 3.89645 109.11 3.55968 108.801 3.27599C108.491 2.99231 108.123 2.76738 107.719 2.61406C107.314 2.46049 106.88 2.38148 106.442 2.38172H96.5327C96.4847 2.37925 96.4364 2.38568 96.3911 2.40049C96.3459 2.41531 96.3044 2.43827 96.2688 2.4679C96.2335 2.49777 96.2049 2.53382 96.1849 2.57381C96.1647 2.61381 96.1537 2.65726 96.1523 2.70121V11.1963H106.442C107.327 11.1963 108.175 10.8743 108.8 10.3015C109.426 9.7287 109.777 8.9517 109.777 8.14163V5.43636ZM106.442 12.4757H96.1523V21.3495C96.1537 21.3937 96.1644 21.4371 96.1847 21.4771C96.2046 21.5174 96.2332 21.5534 96.2685 21.5833C96.3041 21.6132 96.3456 21.6364 96.3909 21.6512C96.4364 21.666 96.4844 21.6724 96.5327 21.67H106.442C107.327 21.67 108.175 21.3482 108.8 20.7754C109.426 20.2026 109.777 19.4256 109.777 18.6153V15.5313C109.777 14.721 109.426 13.9442 108.8 13.3712C108.175 12.7984 107.327 12.4767 106.442 12.4767V12.4757Z" fill="#313131"/>
<path d="M133.566 2.3828V1.42484C133.567 1.38434 133.577 1.34459 133.595 1.30781C133.614 1.27102 133.64 1.23818 133.672 1.21102C133.705 1.18362 133.743 1.16288 133.785 1.14955C133.827 1.13646 133.871 1.13102 133.915 1.13374H150.461V2.06504C150.46 2.14973 150.423 2.23096 150.358 2.29095C150.292 2.3507 150.204 2.38478 150.111 2.38552H142.807V22.6302C142.806 22.7149 142.769 22.7959 142.703 22.8556C142.638 22.9154 142.55 22.9492 142.457 22.95H141.155V2.3828H133.566Z" fill="#313131"/>
<path d="M129.241 9.66301H122.995L126.109 0.982788L116.593 14.2766H122.84L119.725 22.9568L129.241 9.66301Z" fill="#6031A3"/>
</svg>
