<svg width="575" height="480" viewBox="0 0 575 480" fill="none" xmlns="http://www.w3.org/2000/svg">
<g opacity="0.5">
<path opacity="0.7" d="M550.363 262.102L416.059 386.022L314.984 479.308L550.363 262.102Z" stroke="#9E9E9E" stroke-width="0.437443" stroke-miterlimit="10"/>
<path opacity="0.7" d="M574.733 219.548L417.352 363.611L416.07 386.025L400.104 400.757L402.99 356.15L465.697 298.615" stroke="#9E9E9E" stroke-width="0.437443" stroke-miterlimit="10"/>
<path opacity="0.7" d="M314.983 479.308L295.287 455.973L270.072 479.308L380.475 376.356L382.67 345.392L440.408 292.594" stroke="#9E9E9E" stroke-width="0.437443" stroke-miterlimit="10"/>
<path opacity="0.7" d="M253.544 479.308L370.447 370.705L371.814 341.125L404.916 310.153" stroke="#9E9E9E" stroke-width="0.437443" stroke-miterlimit="10"/>
<path opacity="0.7" d="M237.16 479.308L360.185 365.62L361.994 335.12L477.157 229.297" stroke="#9E9E9E" stroke-width="0.437443" stroke-miterlimit="10"/>
<path opacity="0.7" d="M222.584 479.308L350.538 360.453L351.996 329.626L453.316 236.82" stroke="#9E9E9E" stroke-width="0.437443" stroke-miterlimit="10"/>
<path opacity="0.7" d="M204.997 479.308L255.243 433.495L297.759 394.732" stroke="#9E9E9E" stroke-width="0.437443" stroke-miterlimit="10"/>
<path opacity="0.7" d="M311.073 315.352L259.694 362.255L255.24 433.476" stroke="#9E9E9E" stroke-width="0.437443" stroke-miterlimit="10"/>
<path opacity="0.7" d="M189.576 479.308L227.858 443.759" stroke="#9E9E9E" stroke-width="0.437443" stroke-miterlimit="10"/>
<path opacity="0.7" d="M153.358 479.308L211.723 424.851L240.625 426.059" stroke="#9E9E9E" stroke-width="0.437443" stroke-miterlimit="10"/>
<path opacity="0.7" d="M134.378 479.308L222.581 396.726" stroke="#9E9E9E" stroke-width="0.437443" stroke-miterlimit="10"/>
<path opacity="0.7" d="M245.432 379.502L243.748 405.362L234.371 413.419L206.156 412.094" stroke="#9E9E9E" stroke-width="0.437443" stroke-miterlimit="10"/>
<path opacity="0.7" d="M114.267 479.308L314.983 296.944L343.925 298.517L412.521 235.074L427.984 235.074L437.9 226.576" stroke="#9E9E9E" stroke-width="0.437443" stroke-miterlimit="10"/>
<path opacity="0.7" d="M51.3167 479.308L127.923 408.524L174.149 411.489L311.062 285.481L341.792 286.794L442.541 194.176" stroke="#9E9E9E" stroke-width="0.437443" stroke-miterlimit="10"/>
<path opacity="0.7" d="M36.8918 479.308L121.204 400.985L167.619 403.506L307.651 274.21L337.94 275.74L362.825 253.132" stroke="#9E9E9E" stroke-width="0.437443" stroke-miterlimit="10"/>
<path opacity="0.7" d="M21.4052 479.308L114.259 393.297L161.1 396.463L240.617 322.457" stroke="#9E9E9E" stroke-width="0.437443" stroke-miterlimit="10"/>
<path opacity="0.7" d="M68.8692 435.343L70.9717 396.742L134.377 338.148L136.692 307.156L194.153 253.147L224.743 255.231L286.429 198.749" stroke="#9E9E9E" stroke-width="0.437443" stroke-miterlimit="10"/>
<path opacity="0.7" d="M115.433 393.364L123.199 385.641L154.126 387.418L208.974 336.737" stroke="#9E9E9E" stroke-width="0.437443" stroke-miterlimit="10"/>
<path opacity="0.7" d="M97.8674 408.488L97.8674 388.118L136.769 351.73L173.955 354.302L237.16 296.035L268.283 297.608L325.11 245.172L326.871 214.106L389.577 156.334" stroke="#9E9E9E" stroke-width="0.437443" stroke-miterlimit="10"/>
<path opacity="0.7" d="M9.4552e-05 448.187L90.0242 365.05" stroke="#9E9E9E" stroke-width="0.437443" stroke-miterlimit="10"/>
<path opacity="0.7" d="M0.000525506 433.475L108.957 332.474" stroke="#9E9E9E" stroke-width="0.437443" stroke-miterlimit="10"/>
<path opacity="0.7" d="M0.000674588 418.442L164.476 267.183L166.739 236.836L189.575 215.451" stroke="#9E9E9E" stroke-width="0.437443" stroke-miterlimit="10"/>
<path opacity="0.7" d="M0.000553855 403.84L153.358 262.101L155.995 232.412L255.24 140.341" stroke="#9E9E9E" stroke-width="0.437443" stroke-miterlimit="10"/>
<path opacity="0.7" d="M0.00105458 390.513L144.13 258.46L146.043 229.297L215.796 164.538L215.796 149.472L227.107 138.665" stroke="#9E9E9E" stroke-width="0.437443" stroke-miterlimit="10"/>
<path opacity="0.7" d="M1.13789e-05 374.618L36.8967 340.095" stroke="#9E9E9E" stroke-width="0.437443" stroke-miterlimit="10"/>
<path opacity="0.7" d="M57.3557 319.999L31.1561 318.714L21.4044 327.211L21.4044 354.585" stroke="#9E9E9E" stroke-width="0.437443" stroke-miterlimit="10"/>
<path opacity="0.7" d="M0.001428 357.359L9.28657 348.853L10.9707 317.051" stroke="#9E9E9E" stroke-width="0.437443" stroke-miterlimit="10"/>
<path opacity="0.7" d="M7.78552e-05 310.153L51.3152 262.099" stroke="#9E9E9E" stroke-width="0.437443" stroke-miterlimit="10"/>
<path opacity="0.7" d="M125.317 260.545L73.7492 307.758L8.50659 302.19" stroke="#9E9E9E" stroke-width="0.437443" stroke-miterlimit="10"/>
<path opacity="0.7" d="M0.00104004 292.594L87.1795 215.451L115.433 215.451L218.787 122.37" stroke="#9E9E9E" stroke-width="0.437443" stroke-miterlimit="10"/>
<path opacity="0.7" d="M0.00102314 279.542L83.9559 202.396L113.552 202.396L227.107 98.7627" stroke="#9E9E9E" stroke-width="0.437443" stroke-miterlimit="10"/>
<path opacity="0.7" d="M0.000183264 262.102L80.1958 189.155L109.391 190.653L141.291 161.812" stroke="#9E9E9E" stroke-width="0.437443" stroke-miterlimit="10"/>
<path opacity="0.7" d="M0.000883713 248.854L76.4865 179.394L106.357 181.754L163.435 128.642" stroke="#9E9E9E" stroke-width="0.437443" stroke-miterlimit="10"/>
<path opacity="0.7" d="M199.857 25.8114L-3.04e-06 211.955" stroke="#9E9E9E" stroke-width="0.437443" stroke-miterlimit="10"/>
<path opacity="0.7" d="M161.394 101.849L97.8833 159.496L57.9327 158.009" stroke="#9E9E9E" stroke-width="0.437443" stroke-miterlimit="10"/>
<path opacity="0.7" d="M250.312 0.360047L94.7878 143.896L73.9102 143.109" stroke="#9E9E9E" stroke-width="0.437443" stroke-miterlimit="10"/>
</g>
</svg>
