<svg width="553" height="432" viewBox="0 0 553 432" fill="none" xmlns="http://www.w3.org/2000/svg">
<g opacity="0.45">
<path opacity="0.7" d="M528.594 236.363L399.601 347.795L302.525 431.68L528.594 236.363Z" stroke="#9E9E9E" stroke-width="0.437443" stroke-miterlimit="10"/>
<path opacity="0.7" d="M552 198.099L400.844 327.643L399.613 347.798L384.278 361.045L387.05 320.934L447.276 269.197" stroke="#9E9E9E" stroke-width="0.437443" stroke-miterlimit="10"/>
<path opacity="0.7" d="M302.524 431.68L283.607 410.696L259.39 431.68L365.426 339.103L367.534 311.259L422.988 263.783" stroke="#9E9E9E" stroke-width="0.437443" stroke-miterlimit="10"/>
<path opacity="0.7" d="M243.516 431.68L355.795 334.022L357.107 307.423L388.9 279.572" stroke="#9E9E9E" stroke-width="0.437443" stroke-miterlimit="10"/>
<path opacity="0.7" d="M227.779 431.68L345.939 329.449L347.676 302.023L458.284 206.865" stroke="#9E9E9E" stroke-width="0.437443" stroke-miterlimit="10"/>
<path opacity="0.7" d="M213.78 431.68L336.672 324.803L338.073 297.083L435.385 213.63" stroke="#9E9E9E" stroke-width="0.437443" stroke-miterlimit="10"/>
<path opacity="0.7" d="M196.889 431.68L245.148 390.484L285.981 355.628" stroke="#9E9E9E" stroke-width="0.437443" stroke-miterlimit="10"/>
<path opacity="0.7" d="M298.769 284.247L249.421 326.423L245.144 390.466" stroke="#9E9E9E" stroke-width="0.437443" stroke-miterlimit="10"/>
<path opacity="0.7" d="M182.077 431.68L218.845 399.713" stroke="#9E9E9E" stroke-width="0.437443" stroke-miterlimit="10"/>
<path opacity="0.7" d="M147.292 431.68L203.349 382.711L231.107 383.797" stroke="#9E9E9E" stroke-width="0.437443" stroke-miterlimit="10"/>
<path opacity="0.7" d="M129.062 431.68L213.776 357.42" stroke="#9E9E9E" stroke-width="0.437443" stroke-miterlimit="10"/>
<path opacity="0.7" d="M235.724 341.932L234.106 365.186L225.1 372.432L198.002 371.24" stroke="#9E9E9E" stroke-width="0.437443" stroke-miterlimit="10"/>
<path opacity="0.7" d="M109.747 431.68L302.524 267.694L330.321 269.108L396.203 212.059L411.055 212.059L420.579 204.418" stroke="#9E9E9E" stroke-width="0.437443" stroke-miterlimit="10"/>
<path opacity="0.7" d="M49.287 431.68L122.863 368.029L167.261 370.695L298.758 257.386L328.273 258.567L425.037 175.283" stroke="#9E9E9E" stroke-width="0.437443" stroke-miterlimit="10"/>
<path opacity="0.7" d="M35.4324 431.68L116.41 361.25L160.989 363.517L295.482 247.252L324.572 248.627L348.474 228.297" stroke="#9E9E9E" stroke-width="0.437443" stroke-miterlimit="10"/>
<path opacity="0.7" d="M20.5587 431.68L109.74 354.337L154.728 357.184L231.1 290.636" stroke="#9E9E9E" stroke-width="0.437443" stroke-miterlimit="10"/>
<path opacity="0.7" d="M66.1453 392.146L68.1647 357.435L129.062 304.746L131.286 276.877L186.474 228.312L215.853 230.186L275.099 179.396" stroke="#9E9E9E" stroke-width="0.437443" stroke-miterlimit="10"/>
<path opacity="0.7" d="M110.867 354.397L118.326 347.453L148.03 349.051L200.708 303.477" stroke="#9E9E9E" stroke-width="0.437443" stroke-miterlimit="10"/>
<path opacity="0.7" d="M93.9961 367.998L93.9961 349.68L131.359 316.96L167.074 319.273L227.779 266.877L257.671 268.292L312.25 221.141L313.941 193.206L374.167 141.256" stroke="#9E9E9E" stroke-width="0.437443" stroke-miterlimit="10"/>
<path opacity="0.7" d="M-9.02687e-05 403.695L86.4631 328.937" stroke="#9E9E9E" stroke-width="0.437443" stroke-miterlimit="10"/>
<path opacity="0.7" d="M0.000179523 390.466L104.647 299.643" stroke="#9E9E9E" stroke-width="0.437443" stroke-miterlimit="10"/>
<path opacity="0.7" d="M0.000627388 376.947L157.97 240.932L160.144 213.644L182.076 194.414" stroke="#9E9E9E" stroke-width="0.437443" stroke-miterlimit="10"/>
<path opacity="0.7" d="M0.000220677 363.818L147.292 236.364L149.824 209.666L245.144 126.874" stroke="#9E9E9E" stroke-width="0.437443" stroke-miterlimit="10"/>
<path opacity="0.7" d="M0.000700442 351.833L138.429 233.089L140.266 206.865L207.26 148.632L207.26 135.085L218.124 125.367" stroke="#9E9E9E" stroke-width="0.437443" stroke-miterlimit="10"/>
<path opacity="0.7" d="M0.000213996 337.541L35.4375 306.497" stroke="#9E9E9E" stroke-width="0.437443" stroke-miterlimit="10"/>
<path opacity="0.7" d="M55.0869 288.426L29.9236 287.27L20.5576 294.912L20.5576 319.527" stroke="#9E9E9E" stroke-width="0.437443" stroke-miterlimit="10"/>
<path opacity="0.7" d="M0.000984903 322.021L8.91886 314.372L10.5364 285.775" stroke="#9E9E9E" stroke-width="0.437443" stroke-miterlimit="10"/>
<path opacity="0.7" d="M3.57544e-05 279.572L49.2854 236.36" stroke="#9E9E9E" stroke-width="0.437443" stroke-miterlimit="10"/>
<path opacity="0.7" d="M120.36 234.964L70.8315 277.418L8.16946 272.412" stroke="#9E9E9E" stroke-width="0.437443" stroke-miterlimit="10"/>
<path opacity="0.7" d="M0.000941017 263.783L83.7311 194.414L110.867 194.414L210.133 110.714" stroke="#9E9E9E" stroke-width="0.437443" stroke-miterlimit="10"/>
<path opacity="0.7" d="M0.00068472 252.046L80.6348 182.674L109.06 182.674L218.124 89.4852" stroke="#9E9E9E" stroke-width="0.437443" stroke-miterlimit="10"/>
<path opacity="0.7" d="M-1.56153e-05 236.364L77.0236 170.769L105.064 172.115L135.702 146.181" stroke="#9E9E9E" stroke-width="0.437443" stroke-miterlimit="10"/>
<path opacity="0.7" d="M0.000596171 224.45L73.4609 161.991L102.149 164.113L156.97 116.353" stroke="#9E9E9E" stroke-width="0.437443" stroke-miterlimit="10"/>
<path opacity="0.7" d="M191.952 23.8864L-0.000268627 191.271" stroke="#9E9E9E" stroke-width="0.437443" stroke-miterlimit="10"/>
<path opacity="0.7" d="M155.01 92.2615L94.0114 144.099L55.641 142.762" stroke="#9E9E9E" stroke-width="0.437443" stroke-miterlimit="10"/>
<path opacity="0.7" d="M240.411 0.999986L91.0386 130.07L70.9868 129.363" stroke="#9E9E9E" stroke-width="0.437443" stroke-miterlimit="10"/>
</g>
</svg>
