<svg width="716" height="441" viewBox="0 0 716 441" fill="none" xmlns="http://www.w3.org/2000/svg">
<g filter="url(#filter0_d_211_376)">
<path d="M16 16C16 13.7909 17.7909 12 20 12H696C698.209 12 700 13.7909 700 16V417C700 419.209 698.209 421 696 421H20C17.7908 421 16 419.209 16 417V16Z" fill="white"/>
</g>
<path d="M52.0196 367.468C51.4516 368.26 50.6556 368.656 49.6316 368.656C48.6076 368.656 47.8116 368.26 47.2436 367.468C46.6756 366.676 46.3916 365.62 46.3916 364.3C46.3916 362.98 46.6756 361.924 47.2436 361.132C47.8116 360.34 48.6076 359.944 49.6316 359.944C50.6556 359.944 51.4516 360.34 52.0196 361.132C52.5876 361.924 52.8716 362.98 52.8716 364.3C52.8716 365.62 52.5876 366.676 52.0196 367.468ZM48.0596 366.712C48.4276 367.28 48.9516 367.564 49.6316 367.564C50.3116 367.564 50.8356 367.28 51.2036 366.712C51.5796 366.144 51.7676 365.34 51.7676 364.3C51.7676 363.26 51.5796 362.456 51.2036 361.888C50.8356 361.312 50.3116 361.024 49.6316 361.024C48.9516 361.024 48.4276 361.308 48.0596 361.876C47.6916 362.444 47.5076 363.252 47.5076 364.3C47.5076 365.34 47.6916 366.144 48.0596 366.712Z" fill="#6031A3"/>
<path d="M54.4989 368.632C54.2829 368.632 54.0989 368.556 53.9469 368.404C53.7949 368.252 53.7189 368.068 53.7189 367.852C53.7189 367.636 53.7949 367.452 53.9469 367.3C54.0989 367.148 54.2829 367.072 54.4989 367.072C54.7229 367.072 54.9069 367.148 55.0509 367.3C55.2029 367.452 55.2789 367.636 55.2789 367.852C55.2789 368.068 55.2029 368.252 55.0509 368.404C54.9069 368.556 54.7229 368.632 54.4989 368.632Z" fill="#6031A3"/>
<path d="M56.1809 360.1H61.4249V361.096L58.3649 368.5H57.2009L60.2369 361.156H56.1809V360.1Z" fill="#6031A3"/>
<path d="M64.7244 363.376C65.5164 363.376 66.1844 363.612 66.7284 364.084C67.2804 364.548 67.5564 365.192 67.5564 366.016C67.5564 366.832 67.2764 367.476 66.7164 367.948C66.1564 368.42 65.4764 368.656 64.6764 368.656C64.0364 368.656 63.4644 368.504 62.9604 368.2C62.4564 367.888 62.1044 367.44 61.9044 366.856L62.8524 366.316C62.9644 366.724 63.1804 367.036 63.5004 367.252C63.8204 367.46 64.2124 367.564 64.6764 367.564C65.2044 367.564 65.6324 367.428 65.9604 367.156C66.2884 366.884 66.4524 366.504 66.4524 366.016C66.4524 365.528 66.2884 365.148 65.9604 364.876C65.6324 364.596 65.2124 364.456 64.7004 364.456H62.3244L62.6364 360.1H67.2324V361.144H63.6444L63.5004 363.376H64.7244Z" fill="#6031A3"/>
<path d="M49.8399 304.968C49.2719 305.76 48.4759 306.156 47.4519 306.156C46.4279 306.156 45.6319 305.76 45.0639 304.968C44.4959 304.176 44.2119 303.12 44.2119 301.8C44.2119 300.48 44.4959 299.424 45.0639 298.632C45.6319 297.84 46.4279 297.444 47.4519 297.444C48.4759 297.444 49.2719 297.84 49.8399 298.632C50.4079 299.424 50.6919 300.48 50.6919 301.8C50.6919 303.12 50.4079 304.176 49.8399 304.968ZM45.8799 304.212C46.2479 304.78 46.7719 305.064 47.4519 305.064C48.1319 305.064 48.6559 304.78 49.0239 304.212C49.3999 303.644 49.5879 302.84 49.5879 301.8C49.5879 300.76 49.3999 299.956 49.0239 299.388C48.6559 298.812 48.1319 298.524 47.4519 298.524C46.7719 298.524 46.2479 298.808 45.8799 299.376C45.5119 299.944 45.3279 300.752 45.3279 301.8C45.3279 302.84 45.5119 303.644 45.8799 304.212Z" fill="#6031A3"/>
<path d="M52.3192 306.132C52.1032 306.132 51.9192 306.056 51.7672 305.904C51.6152 305.752 51.5392 305.568 51.5392 305.352C51.5392 305.136 51.6152 304.952 51.7672 304.8C51.9192 304.648 52.1032 304.572 52.3192 304.572C52.5432 304.572 52.7272 304.648 52.8712 304.8C53.0232 304.952 53.0992 305.136 53.0992 305.352C53.0992 305.568 53.0232 305.752 52.8712 305.904C52.7272 306.056 52.5432 306.132 52.3192 306.132Z" fill="#6031A3"/>
<path d="M58.6812 301.656C59.0892 301.864 59.4092 302.144 59.6412 302.496C59.8732 302.848 59.9892 303.248 59.9892 303.696C59.9892 304.464 59.7212 305.068 59.1852 305.508C58.6492 305.94 57.9572 306.156 57.1092 306.156C56.2692 306.156 55.5812 305.94 55.0452 305.508C54.5092 305.068 54.2412 304.464 54.2412 303.696C54.2412 303.248 54.3572 302.848 54.5892 302.496C54.8212 302.144 55.1412 301.864 55.5492 301.656C54.8612 301.224 54.5172 300.612 54.5172 299.82C54.5172 299.06 54.7692 298.476 55.2732 298.068C55.7852 297.652 56.3972 297.444 57.1092 297.444C57.8292 297.444 58.4412 297.652 58.9452 298.068C59.4572 298.476 59.7132 299.06 59.7132 299.82C59.7132 300.612 59.3692 301.224 58.6812 301.656ZM57.1092 298.512C56.6852 298.512 56.3292 298.624 56.0412 298.848C55.7612 299.072 55.6212 299.404 55.6212 299.844C55.6212 300.268 55.7652 300.6 56.0532 300.84C56.3412 301.072 56.6932 301.188 57.1092 301.188C57.5252 301.188 57.8772 301.072 58.1652 300.84C58.4532 300.6 58.5972 300.268 58.5972 299.844C58.5972 299.404 58.4572 299.072 58.1772 298.848C57.8972 298.624 57.5412 298.512 57.1092 298.512ZM57.1092 305.088C57.6452 305.088 58.0732 304.964 58.3932 304.716C58.7212 304.46 58.8852 304.096 58.8852 303.624C58.8852 303.16 58.7212 302.804 58.3932 302.556C58.0732 302.3 57.6452 302.172 57.1092 302.172C56.5812 302.172 56.1532 302.3 55.8252 302.556C55.5052 302.804 55.3452 303.16 55.3452 303.624C55.3452 304.096 55.5052 304.46 55.8252 304.716C56.1532 304.964 56.5812 305.088 57.1092 305.088Z" fill="#6031A3"/>
<path d="M66.6094 304.968C66.0414 305.76 65.2454 306.156 64.2214 306.156C63.1974 306.156 62.4014 305.76 61.8334 304.968C61.2654 304.176 60.9814 303.12 60.9814 301.8C60.9814 300.48 61.2654 299.424 61.8334 298.632C62.4014 297.84 63.1974 297.444 64.2214 297.444C65.2454 297.444 66.0414 297.84 66.6094 298.632C67.1774 299.424 67.4614 300.48 67.4614 301.8C67.4614 303.12 67.1774 304.176 66.6094 304.968ZM62.6494 304.212C63.0174 304.78 63.5414 305.064 64.2214 305.064C64.9014 305.064 65.4254 304.78 65.7934 304.212C66.1694 303.644 66.3574 302.84 66.3574 301.8C66.3574 300.76 66.1694 299.956 65.7934 299.388C65.4254 298.812 64.9014 298.524 64.2214 298.524C63.5414 298.524 63.0174 298.808 62.6494 299.376C62.2814 299.944 62.0974 300.752 62.0974 301.8C62.0974 302.84 62.2814 303.644 62.6494 304.212Z" fill="#6031A3"/>
<path d="M51.9415 240.968C51.3735 241.76 50.5775 242.156 49.5535 242.156C48.5295 242.156 47.7335 241.76 47.1655 240.968C46.5975 240.176 46.3135 239.12 46.3135 237.8C46.3135 236.48 46.5975 235.424 47.1655 234.632C47.7335 233.84 48.5295 233.444 49.5535 233.444C50.5775 233.444 51.3735 233.84 51.9415 234.632C52.5095 235.424 52.7935 236.48 52.7935 237.8C52.7935 239.12 52.5095 240.176 51.9415 240.968ZM47.9815 240.212C48.3495 240.78 48.8735 241.064 49.5535 241.064C50.2335 241.064 50.7575 240.78 51.1255 240.212C51.5015 239.644 51.6895 238.84 51.6895 237.8C51.6895 236.76 51.5015 235.956 51.1255 235.388C50.7575 234.812 50.2335 234.524 49.5535 234.524C48.8735 234.524 48.3495 234.808 47.9815 235.376C47.6135 235.944 47.4295 236.752 47.4295 237.8C47.4295 238.84 47.6135 239.644 47.9815 240.212Z" fill="#6031A3"/>
<path d="M54.4208 242.132C54.2048 242.132 54.0208 242.056 53.8688 241.904C53.7168 241.752 53.6408 241.568 53.6408 241.352C53.6408 241.136 53.7168 240.952 53.8688 240.8C54.0208 240.648 54.2048 240.572 54.4208 240.572C54.6448 240.572 54.8288 240.648 54.9728 240.8C55.1248 240.952 55.2008 241.136 55.2008 241.352C55.2008 241.568 55.1248 241.752 54.9728 241.904C54.8288 242.056 54.6448 242.132 54.4208 242.132Z" fill="#6031A3"/>
<path d="M60.7828 237.656C61.1908 237.864 61.5108 238.144 61.7428 238.496C61.9748 238.848 62.0908 239.248 62.0908 239.696C62.0908 240.464 61.8228 241.068 61.2868 241.508C60.7508 241.94 60.0588 242.156 59.2108 242.156C58.3708 242.156 57.6828 241.94 57.1468 241.508C56.6108 241.068 56.3428 240.464 56.3428 239.696C56.3428 239.248 56.4588 238.848 56.6908 238.496C56.9228 238.144 57.2428 237.864 57.6508 237.656C56.9628 237.224 56.6188 236.612 56.6188 235.82C56.6188 235.06 56.8708 234.476 57.3748 234.068C57.8868 233.652 58.4988 233.444 59.2108 233.444C59.9308 233.444 60.5428 233.652 61.0468 234.068C61.5588 234.476 61.8148 235.06 61.8148 235.82C61.8148 236.612 61.4708 237.224 60.7828 237.656ZM59.2108 234.512C58.7868 234.512 58.4308 234.624 58.1428 234.848C57.8628 235.072 57.7228 235.404 57.7228 235.844C57.7228 236.268 57.8668 236.6 58.1548 236.84C58.4428 237.072 58.7948 237.188 59.2108 237.188C59.6268 237.188 59.9788 237.072 60.2668 236.84C60.5548 236.6 60.6988 236.268 60.6988 235.844C60.6988 235.404 60.5588 235.072 60.2788 234.848C59.9988 234.624 59.6428 234.512 59.2108 234.512ZM59.2108 241.088C59.7468 241.088 60.1748 240.964 60.4948 240.716C60.8228 240.46 60.9868 240.096 60.9868 239.624C60.9868 239.16 60.8228 238.804 60.4948 238.556C60.1748 238.3 59.7468 238.172 59.2108 238.172C58.6828 238.172 58.2548 238.3 57.9268 238.556C57.6068 238.804 57.4468 239.16 57.4468 239.624C57.4468 240.096 57.6068 240.46 57.9268 240.716C58.2548 240.964 58.6828 241.088 59.2108 241.088Z" fill="#6031A3"/>
<path d="M65.7244 236.876C66.5164 236.876 67.1844 237.112 67.7284 237.584C68.2804 238.048 68.5564 238.692 68.5564 239.516C68.5564 240.332 68.2764 240.976 67.7164 241.448C67.1564 241.92 66.4764 242.156 65.6764 242.156C65.0364 242.156 64.4644 242.004 63.9604 241.7C63.4564 241.388 63.1044 240.94 62.9044 240.356L63.8524 239.816C63.9644 240.224 64.1804 240.536 64.5004 240.752C64.8204 240.96 65.2124 241.064 65.6764 241.064C66.2044 241.064 66.6324 240.928 66.9604 240.656C67.2884 240.384 67.4524 240.004 67.4524 239.516C67.4524 239.028 67.2884 238.648 66.9604 238.376C66.6324 238.096 66.2124 237.956 65.7004 237.956H63.3244L63.6364 233.6H68.2324V234.644H64.6444L64.5004 236.876H65.7244Z" fill="#6031A3"/>
<path d="M50.8829 176.968C50.3149 177.76 49.5189 178.156 48.4949 178.156C47.4709 178.156 46.6749 177.76 46.1069 176.968C45.5389 176.176 45.2549 175.12 45.2549 173.8C45.2549 172.48 45.5389 171.424 46.1069 170.632C46.6749 169.84 47.4709 169.444 48.4949 169.444C49.5189 169.444 50.3149 169.84 50.8829 170.632C51.4509 171.424 51.7349 172.48 51.7349 173.8C51.7349 175.12 51.4509 176.176 50.8829 176.968ZM46.9229 176.212C47.2909 176.78 47.8149 177.064 48.4949 177.064C49.1749 177.064 49.6989 176.78 50.0669 176.212C50.4429 175.644 50.6309 174.84 50.6309 173.8C50.6309 172.76 50.4429 171.956 50.0669 171.388C49.6989 170.812 49.1749 170.524 48.4949 170.524C47.8149 170.524 47.2909 170.808 46.9229 171.376C46.5549 171.944 46.3709 172.752 46.3709 173.8C46.3709 174.84 46.5549 175.644 46.9229 176.212Z" fill="#6031A3"/>
<path d="M53.3622 178.132C53.1462 178.132 52.9622 178.056 52.8102 177.904C52.6582 177.752 52.5822 177.568 52.5822 177.352C52.5822 177.136 52.6582 176.952 52.8102 176.8C52.9622 176.648 53.1462 176.572 53.3622 176.572C53.5862 176.572 53.7702 176.648 53.9142 176.8C54.0662 176.952 54.1422 177.136 54.1422 177.352C54.1422 177.568 54.0662 177.752 53.9142 177.904C53.7702 178.056 53.5862 178.132 53.3622 178.132Z" fill="#6031A3"/>
<path d="M60.1044 172.264C60.1044 172.912 59.9324 173.476 59.5884 173.956H59.6004L56.8884 178H55.6284L57.6204 175.06C57.4444 175.076 57.3084 175.084 57.2124 175.084C56.3644 175.084 55.6684 174.824 55.1244 174.304C54.5884 173.776 54.3204 173.096 54.3204 172.264C54.3204 171.432 54.5884 170.756 55.1244 170.236C55.6684 169.708 56.3644 169.444 57.2124 169.444C58.0604 169.444 58.7524 169.708 59.2884 170.236C59.8324 170.756 60.1044 171.432 60.1044 172.264ZM55.9164 170.992C55.5884 171.312 55.4244 171.736 55.4244 172.264C55.4244 172.792 55.5884 173.22 55.9164 173.548C56.2524 173.868 56.6844 174.028 57.2124 174.028C57.7404 174.028 58.1684 173.868 58.4964 173.548C58.8324 173.22 59.0004 172.792 59.0004 172.264C59.0004 171.736 58.8364 171.312 58.5084 170.992C58.1804 170.672 57.7484 170.512 57.2124 170.512C56.6844 170.512 56.2524 170.672 55.9164 170.992Z" fill="#6031A3"/>
<path d="M66.6094 176.968C66.0414 177.76 65.2454 178.156 64.2214 178.156C63.1974 178.156 62.4014 177.76 61.8334 176.968C61.2654 176.176 60.9814 175.12 60.9814 173.8C60.9814 172.48 61.2654 171.424 61.8334 170.632C62.4014 169.84 63.1974 169.444 64.2214 169.444C65.2454 169.444 66.0414 169.84 66.6094 170.632C67.1774 171.424 67.4614 172.48 67.4614 173.8C67.4614 175.12 67.1774 176.176 66.6094 176.968ZM62.6494 176.212C63.0174 176.78 63.5414 177.064 64.2214 177.064C64.9014 177.064 65.4254 176.78 65.7934 176.212C66.1694 175.644 66.3574 174.84 66.3574 173.8C66.3574 172.76 66.1694 171.956 65.7934 171.388C65.4254 170.812 64.9014 170.524 64.2214 170.524C63.5414 170.524 63.0174 170.808 62.6494 171.376C62.2814 171.944 62.0974 172.752 62.0974 173.8C62.0974 174.84 62.2814 175.644 62.6494 176.212Z" fill="#6031A3"/>
<path d="M52.1602 112.968C51.5922 113.76 50.7962 114.156 49.7722 114.156C48.7482 114.156 47.9522 113.76 47.3842 112.968C46.8162 112.176 46.5322 111.12 46.5322 109.8C46.5322 108.48 46.8162 107.424 47.3842 106.632C47.9522 105.84 48.7482 105.444 49.7722 105.444C50.7962 105.444 51.5922 105.84 52.1602 106.632C52.7282 107.424 53.0122 108.48 53.0122 109.8C53.0122 111.12 52.7282 112.176 52.1602 112.968ZM48.2002 112.212C48.5682 112.78 49.0922 113.064 49.7722 113.064C50.4522 113.064 50.9762 112.78 51.3442 112.212C51.7202 111.644 51.9082 110.84 51.9082 109.8C51.9082 108.76 51.7202 107.956 51.3442 107.388C50.9762 106.812 50.4522 106.524 49.7722 106.524C49.0922 106.524 48.5682 106.808 48.2002 107.376C47.8322 107.944 47.6482 108.752 47.6482 109.8C47.6482 110.84 47.8322 111.644 48.2002 112.212Z" fill="#6031A3"/>
<path d="M54.6395 114.132C54.4235 114.132 54.2395 114.056 54.0875 113.904C53.9355 113.752 53.8595 113.568 53.8595 113.352C53.8595 113.136 53.9355 112.952 54.0875 112.8C54.2395 112.648 54.4235 112.572 54.6395 112.572C54.8635 112.572 55.0475 112.648 55.1915 112.8C55.3435 112.952 55.4195 113.136 55.4195 113.352C55.4195 113.568 55.3435 113.752 55.1915 113.904C55.0475 114.056 54.8635 114.132 54.6395 114.132Z" fill="#6031A3"/>
<path d="M61.3818 108.264C61.3818 108.912 61.2098 109.476 60.8658 109.956H60.8778L58.1658 114H56.9058L58.8978 111.06C58.7218 111.076 58.5858 111.084 58.4898 111.084C57.6418 111.084 56.9458 110.824 56.4018 110.304C55.8658 109.776 55.5978 109.096 55.5978 108.264C55.5978 107.432 55.8658 106.756 56.4018 106.236C56.9458 105.708 57.6418 105.444 58.4898 105.444C59.3378 105.444 60.0298 105.708 60.5658 106.236C61.1098 106.756 61.3818 107.432 61.3818 108.264ZM57.1938 106.992C56.8658 107.312 56.7018 107.736 56.7018 108.264C56.7018 108.792 56.8658 109.22 57.1938 109.548C57.5298 109.868 57.9618 110.028 58.4898 110.028C59.0178 110.028 59.4458 109.868 59.7738 109.548C60.1098 109.22 60.2778 108.792 60.2778 108.264C60.2778 107.736 60.1138 107.312 59.7858 106.992C59.4578 106.672 59.0258 106.512 58.4898 106.512C57.9618 106.512 57.5298 106.672 57.1938 106.992Z" fill="#6031A3"/>
<path d="M64.7244 108.876C65.5164 108.876 66.1844 109.112 66.7284 109.584C67.2804 110.048 67.5564 110.692 67.5564 111.516C67.5564 112.332 67.2764 112.976 66.7164 113.448C66.1564 113.92 65.4764 114.156 64.6764 114.156C64.0364 114.156 63.4644 114.004 62.9604 113.7C62.4564 113.388 62.1044 112.94 61.9044 112.356L62.8524 111.816C62.9644 112.224 63.1804 112.536 63.5004 112.752C63.8204 112.96 64.2124 113.064 64.6764 113.064C65.2044 113.064 65.6324 112.928 65.9604 112.656C66.2884 112.384 66.4524 112.004 66.4524 111.516C66.4524 111.028 66.2884 110.648 65.9604 110.376C65.6324 110.096 65.2124 109.956 64.7004 109.956H62.3244L62.6364 105.6H67.2324V106.644H63.6444L63.5004 108.876H64.7244Z" fill="#6031A3"/>
<path d="M48.4268 41.5998H49.3868V49.9998H48.2828V42.7998L46.4947 43.3278L46.2188 42.3678L48.4268 41.5998Z" fill="#6031A3"/>
<path d="M51.7801 50.1318C51.5641 50.1318 51.3801 50.0558 51.2281 49.9038C51.0761 49.7518 51.0001 49.5678 51.0001 49.3518C51.0001 49.1358 51.0761 48.9518 51.2281 48.7998C51.3801 48.6478 51.5641 48.5718 51.7801 48.5718C52.0041 48.5718 52.1881 48.6478 52.3321 48.7998C52.4841 48.9518 52.5601 49.1358 52.5601 49.3518C52.5601 49.5678 52.4841 49.7518 52.3321 49.9038C52.1881 50.0558 52.0041 50.1318 51.7801 50.1318Z" fill="#6031A3"/>
<path d="M59.0508 48.9678C58.4828 49.7598 57.6868 50.1558 56.6628 50.1558C55.6388 50.1558 54.8428 49.7598 54.2748 48.9678C53.7068 48.1758 53.4228 47.1198 53.4228 45.7998C53.4228 44.4798 53.7068 43.4238 54.2748 42.6318C54.8428 41.8398 55.6388 41.4438 56.6628 41.4438C57.6868 41.4438 58.4828 41.8398 59.0508 42.6318C59.6188 43.4238 59.9028 44.4798 59.9028 45.7998C59.9028 47.1198 59.6188 48.1758 59.0508 48.9678ZM55.0908 48.2118C55.4588 48.7798 55.9828 49.0638 56.6628 49.0638C57.3428 49.0638 57.8668 48.7798 58.2348 48.2118C58.6108 47.6438 58.7988 46.8398 58.7988 45.7998C58.7988 44.7598 58.6108 43.9558 58.2348 43.3878C57.8668 42.8118 57.3428 42.5238 56.6628 42.5238C55.9828 42.5238 55.4588 42.8078 55.0908 43.3758C54.7228 43.9438 54.5388 44.7518 54.5388 45.7998C54.5388 46.8398 54.7228 47.6438 55.0908 48.2118Z" fill="#6031A3"/>
<path d="M66.6094 48.9678C66.0414 49.7598 65.2454 50.1558 64.2214 50.1558C63.1974 50.1558 62.4014 49.7598 61.8334 48.9678C61.2654 48.1758 60.9814 47.1198 60.9814 45.7998C60.9814 44.4798 61.2654 43.4238 61.8334 42.6318C62.4014 41.8398 63.1974 41.4438 64.2214 41.4438C65.2454 41.4438 66.0414 41.8398 66.6094 42.6318C67.1774 43.4238 67.4614 44.4798 67.4614 45.7998C67.4614 47.1198 67.1774 48.1758 66.6094 48.9678ZM62.6494 48.2118C63.0174 48.7798 63.5414 49.0638 64.2214 49.0638C64.9014 49.0638 65.4254 48.7798 65.7934 48.2118C66.1694 47.6438 66.3574 46.8398 66.3574 45.7998C66.3574 44.7598 66.1694 43.9558 65.7934 43.3878C65.4254 42.8118 64.9014 42.5238 64.2214 42.5238C63.5414 42.5238 63.0174 42.8078 62.6494 43.3758C62.2814 43.9438 62.0974 44.7518 62.0974 45.7998C62.0974 46.8398 62.2814 47.6438 62.6494 48.2118Z" fill="#6031A3"/>
<path d="M80.8603 384.6H81.8203V393H80.7163V385.8L78.9283 386.328L78.6523 385.368L80.8603 384.6Z" fill="#6031A3"/>
<path d="M88.8817 387.264C88.8817 387.912 88.7097 388.476 88.3657 388.956H88.3777L85.6657 393H84.4057L86.3977 390.06C86.2217 390.076 86.0857 390.084 85.9897 390.084C85.1417 390.084 84.4457 389.824 83.9017 389.304C83.3657 388.776 83.0977 388.096 83.0977 387.264C83.0977 386.432 83.3657 385.756 83.9017 385.236C84.4457 384.708 85.1417 384.444 85.9897 384.444C86.8377 384.444 87.5297 384.708 88.0657 385.236C88.6097 385.756 88.8817 386.432 88.8817 387.264ZM84.6937 385.992C84.3657 386.312 84.2017 386.736 84.2017 387.264C84.2017 387.792 84.3657 388.22 84.6937 388.548C85.0297 388.868 85.4617 389.028 85.9897 389.028C86.5177 389.028 86.9457 388.868 87.2737 388.548C87.6097 388.22 87.7777 387.792 87.7777 387.264C87.7777 386.736 87.6137 386.312 87.2857 385.992C86.9577 385.672 86.5257 385.512 85.9897 385.512C85.4617 385.512 85.0297 385.672 84.6937 385.992Z" fill="#6031A3"/>
<path d="M92.2123 387.504C93.0523 387.504 93.7443 387.768 94.2883 388.296C94.8323 388.816 95.1043 389.492 95.1043 390.324C95.1043 391.156 94.8323 391.836 94.2883 392.364C93.7443 392.892 93.0523 393.156 92.2123 393.156C91.3643 393.156 90.6683 392.892 90.1243 392.364C89.5883 391.836 89.3203 391.156 89.3203 390.324C89.3203 389.676 89.4883 389.116 89.8243 388.644L92.5243 384.6H93.7963L91.8163 387.528C91.9923 387.512 92.1243 387.504 92.2123 387.504ZM90.9163 391.608C91.2523 391.928 91.6843 392.088 92.2123 392.088C92.7403 392.088 93.1683 391.928 93.4963 391.608C93.8323 391.28 94.0003 390.852 94.0003 390.324C94.0003 389.796 93.8323 389.372 93.4963 389.052C93.1683 388.732 92.7403 388.572 92.2123 388.572C91.6763 388.572 91.2443 388.732 90.9163 389.052C90.5883 389.372 90.4243 389.796 90.4243 390.324C90.4243 390.852 90.5883 391.28 90.9163 391.608Z" fill="#6031A3"/>
<path d="M101.609 391.968C101.041 392.76 100.245 393.156 99.2214 393.156C98.1974 393.156 97.4014 392.76 96.8334 391.968C96.2654 391.176 95.9814 390.12 95.9814 388.8C95.9814 387.48 96.2654 386.424 96.8334 385.632C97.4014 384.84 98.1974 384.444 99.2214 384.444C100.245 384.444 101.041 384.84 101.609 385.632C102.177 386.424 102.461 387.48 102.461 388.8C102.461 390.12 102.177 391.176 101.609 391.968ZM97.6494 391.212C98.0174 391.78 98.5414 392.064 99.2214 392.064C99.9014 392.064 100.425 391.78 100.793 391.212C101.169 390.644 101.357 389.84 101.357 388.8C101.357 387.76 101.169 386.956 100.793 386.388C100.425 385.812 99.9014 385.524 99.2214 385.524C98.5414 385.524 98.0174 385.808 97.6494 386.376C97.2814 386.944 97.0974 387.752 97.0974 388.8C97.0974 389.84 97.2814 390.644 97.6494 391.212Z" fill="#6031A3"/>
<path d="M125.021 384.6H125.981V393H124.877V385.8L123.089 386.328L122.812 385.368L125.021 384.6Z" fill="#6031A3"/>
<path d="M133.042 387.264C133.042 387.912 132.87 388.476 132.526 388.956H132.538L129.826 393H128.566L130.558 390.06C130.382 390.076 130.246 390.084 130.15 390.084C129.302 390.084 128.606 389.824 128.062 389.304C127.526 388.776 127.258 388.096 127.258 387.264C127.258 386.432 127.526 385.756 128.062 385.236C128.606 384.708 129.302 384.444 130.15 384.444C130.998 384.444 131.69 384.708 132.226 385.236C132.77 385.756 133.042 386.432 133.042 387.264ZM128.854 385.992C128.526 386.312 128.362 386.736 128.362 387.264C128.362 387.792 128.526 388.22 128.854 388.548C129.19 388.868 129.622 389.028 130.15 389.028C130.678 389.028 131.106 388.868 131.434 388.548C131.77 388.22 131.938 387.792 131.938 387.264C131.938 386.736 131.774 386.312 131.446 385.992C131.118 385.672 130.686 385.512 130.15 385.512C129.622 385.512 129.19 385.672 128.854 385.992Z" fill="#6031A3"/>
<path d="M136.373 387.504C137.213 387.504 137.905 387.768 138.449 388.296C138.993 388.816 139.265 389.492 139.265 390.324C139.265 391.156 138.993 391.836 138.449 392.364C137.905 392.892 137.213 393.156 136.373 393.156C135.524 393.156 134.828 392.892 134.285 392.364C133.748 391.836 133.481 391.156 133.481 390.324C133.481 389.676 133.648 389.116 133.984 388.644L136.684 384.6H137.957L135.976 387.528C136.152 387.512 136.285 387.504 136.373 387.504ZM135.076 391.608C135.413 391.928 135.845 392.088 136.373 392.088C136.901 392.088 137.328 391.928 137.656 391.608C137.993 391.28 138.161 390.852 138.161 390.324C138.161 389.796 137.993 389.372 137.656 389.052C137.328 388.732 136.901 388.572 136.373 388.572C135.837 388.572 135.405 388.732 135.076 389.052C134.748 389.372 134.585 389.796 134.585 390.324C134.585 390.852 134.748 391.28 135.076 391.608Z" fill="#6031A3"/>
<path d="M142.724 387.876C143.516 387.876 144.184 388.112 144.728 388.584C145.28 389.048 145.556 389.692 145.556 390.516C145.556 391.332 145.276 391.976 144.716 392.448C144.156 392.92 143.476 393.156 142.676 393.156C142.036 393.156 141.464 393.004 140.96 392.7C140.456 392.388 140.104 391.94 139.904 391.356L140.852 390.816C140.964 391.224 141.18 391.536 141.5 391.752C141.82 391.96 142.212 392.064 142.676 392.064C143.204 392.064 143.632 391.928 143.96 391.656C144.288 391.384 144.452 391.004 144.452 390.516C144.452 390.028 144.288 389.648 143.96 389.376C143.632 389.096 143.212 388.956 142.7 388.956H140.324L140.636 384.6H145.232V385.644H141.644L141.5 387.876H142.724Z" fill="#6031A3"/>
<path d="M167.552 384.6H168.512V393H167.408V385.8L165.62 386.328L165.344 385.368L167.552 384.6Z" fill="#6031A3"/>
<path d="M175.573 387.264C175.573 387.912 175.401 388.476 175.057 388.956H175.069L172.357 393H171.097L173.089 390.06C172.913 390.076 172.777 390.084 172.681 390.084C171.833 390.084 171.137 389.824 170.593 389.304C170.057 388.776 169.789 388.096 169.789 387.264C169.789 386.432 170.057 385.756 170.593 385.236C171.137 384.708 171.833 384.444 172.681 384.444C173.529 384.444 174.221 384.708 174.757 385.236C175.301 385.756 175.573 386.432 175.573 387.264ZM171.385 385.992C171.057 386.312 170.893 386.736 170.893 387.264C170.893 387.792 171.057 388.22 171.385 388.548C171.721 388.868 172.153 389.028 172.681 389.028C173.209 389.028 173.637 388.868 173.965 388.548C174.301 388.22 174.469 387.792 174.469 387.264C174.469 386.736 174.305 386.312 173.977 385.992C173.649 385.672 173.217 385.512 172.681 385.512C172.153 385.512 171.721 385.672 171.385 385.992Z" fill="#6031A3"/>
<path d="M176.009 384.6H181.253V385.596L178.193 393H177.029L180.065 385.656H176.009V384.6Z" fill="#6031A3"/>
<path d="M187.609 391.968C187.041 392.76 186.245 393.156 185.221 393.156C184.197 393.156 183.401 392.76 182.833 391.968C182.265 391.176 181.981 390.12 181.981 388.8C181.981 387.48 182.265 386.424 182.833 385.632C183.401 384.84 184.197 384.444 185.221 384.444C186.245 384.444 187.041 384.84 187.609 385.632C188.177 386.424 188.461 387.48 188.461 388.8C188.461 390.12 188.177 391.176 187.609 391.968ZM183.649 391.212C184.017 391.78 184.541 392.064 185.221 392.064C185.901 392.064 186.425 391.78 186.793 391.212C187.169 390.644 187.357 389.84 187.357 388.8C187.357 387.76 187.169 386.956 186.793 386.388C186.425 385.812 185.901 385.524 185.221 385.524C184.541 385.524 184.017 385.808 183.649 386.376C183.281 386.944 183.097 387.752 183.097 388.8C183.097 389.84 183.281 390.644 183.649 391.212Z" fill="#6031A3"/>
<path d="M210.724 384.6H211.684V393H210.58V385.8L208.792 386.328L208.516 385.368L210.724 384.6Z" fill="#6031A3"/>
<path d="M218.745 387.264C218.745 387.912 218.573 388.476 218.229 388.956H218.241L215.529 393H214.269L216.261 390.06C216.085 390.076 215.949 390.084 215.853 390.084C215.005 390.084 214.309 389.824 213.765 389.304C213.229 388.776 212.961 388.096 212.961 387.264C212.961 386.432 213.229 385.756 213.765 385.236C214.309 384.708 215.005 384.444 215.853 384.444C216.701 384.444 217.393 384.708 217.929 385.236C218.473 385.756 218.745 386.432 218.745 387.264ZM214.557 385.992C214.229 386.312 214.065 386.736 214.065 387.264C214.065 387.792 214.229 388.22 214.557 388.548C214.893 388.868 215.325 389.028 215.853 389.028C216.381 389.028 216.809 388.868 217.137 388.548C217.473 388.22 217.641 387.792 217.641 387.264C217.641 386.736 217.477 386.312 217.149 385.992C216.821 385.672 216.389 385.512 215.853 385.512C215.325 385.512 214.893 385.672 214.557 385.992Z" fill="#6031A3"/>
<path d="M219.181 384.6H224.425V385.596L221.365 393H220.201L223.237 385.656H219.181V384.6Z" fill="#6031A3"/>
<path d="M227.724 387.876C228.516 387.876 229.184 388.112 229.728 388.584C230.28 389.048 230.556 389.692 230.556 390.516C230.556 391.332 230.276 391.976 229.716 392.448C229.156 392.92 228.476 393.156 227.676 393.156C227.036 393.156 226.464 393.004 225.96 392.7C225.456 392.388 225.104 391.94 224.904 391.356L225.852 390.816C225.964 391.224 226.18 391.536 226.5 391.752C226.82 391.96 227.212 392.064 227.676 392.064C228.204 392.064 228.632 391.928 228.96 391.656C229.288 391.384 229.452 391.004 229.452 390.516C229.452 390.028 229.288 389.648 228.96 389.376C228.632 389.096 228.212 388.956 227.7 388.956H225.324L225.636 384.6H230.232V385.644H226.644L226.5 387.876H227.724Z" fill="#6031A3"/>
<path d="M252.427 384.6H253.387V393H252.283V385.8L250.495 386.328L250.219 385.368L252.427 384.6Z" fill="#6031A3"/>
<path d="M260.448 387.264C260.448 387.912 260.276 388.476 259.932 388.956H259.944L257.232 393H255.972L257.964 390.06C257.788 390.076 257.652 390.084 257.556 390.084C256.708 390.084 256.012 389.824 255.468 389.304C254.932 388.776 254.664 388.096 254.664 387.264C254.664 386.432 254.932 385.756 255.468 385.236C256.012 384.708 256.708 384.444 257.556 384.444C258.404 384.444 259.096 384.708 259.632 385.236C260.176 385.756 260.448 386.432 260.448 387.264ZM256.26 385.992C255.932 386.312 255.768 386.736 255.768 387.264C255.768 387.792 255.932 388.22 256.26 388.548C256.596 388.868 257.028 389.028 257.556 389.028C258.084 389.028 258.512 388.868 258.84 388.548C259.176 388.22 259.344 387.792 259.344 387.264C259.344 386.736 259.18 386.312 258.852 385.992C258.524 385.672 258.092 385.512 257.556 385.512C257.028 385.512 256.596 385.672 256.26 385.992Z" fill="#6031A3"/>
<path d="M265.681 388.656C266.089 388.864 266.409 389.144 266.641 389.496C266.873 389.848 266.989 390.248 266.989 390.696C266.989 391.464 266.721 392.068 266.185 392.508C265.649 392.94 264.957 393.156 264.109 393.156C263.269 393.156 262.581 392.94 262.045 392.508C261.509 392.068 261.241 391.464 261.241 390.696C261.241 390.248 261.357 389.848 261.589 389.496C261.821 389.144 262.141 388.864 262.549 388.656C261.861 388.224 261.517 387.612 261.517 386.82C261.517 386.06 261.769 385.476 262.273 385.068C262.785 384.652 263.397 384.444 264.109 384.444C264.829 384.444 265.441 384.652 265.945 385.068C266.457 385.476 266.713 386.06 266.713 386.82C266.713 387.612 266.369 388.224 265.681 388.656ZM264.109 385.512C263.685 385.512 263.329 385.624 263.041 385.848C262.761 386.072 262.621 386.404 262.621 386.844C262.621 387.268 262.765 387.6 263.053 387.84C263.341 388.072 263.693 388.188 264.109 388.188C264.525 388.188 264.877 388.072 265.165 387.84C265.453 387.6 265.597 387.268 265.597 386.844C265.597 386.404 265.457 386.072 265.177 385.848C264.897 385.624 264.541 385.512 264.109 385.512ZM264.109 392.088C264.645 392.088 265.073 391.964 265.393 391.716C265.721 391.46 265.885 391.096 265.885 390.624C265.885 390.16 265.721 389.804 265.393 389.556C265.073 389.3 264.645 389.172 264.109 389.172C263.581 389.172 263.153 389.3 262.825 389.556C262.505 389.804 262.345 390.16 262.345 390.624C262.345 391.096 262.505 391.46 262.825 391.716C263.153 391.964 263.581 392.088 264.109 392.088Z" fill="#6031A3"/>
<path d="M273.609 391.968C273.041 392.76 272.245 393.156 271.221 393.156C270.197 393.156 269.401 392.76 268.833 391.968C268.265 391.176 267.981 390.12 267.981 388.8C267.981 387.48 268.265 386.424 268.833 385.632C269.401 384.84 270.197 384.444 271.221 384.444C272.245 384.444 273.041 384.84 273.609 385.632C274.177 386.424 274.461 387.48 274.461 388.8C274.461 390.12 274.177 391.176 273.609 391.968ZM269.649 391.212C270.017 391.78 270.541 392.064 271.221 392.064C271.901 392.064 272.425 391.78 272.793 391.212C273.169 390.644 273.357 389.84 273.357 388.8C273.357 387.76 273.169 386.956 272.793 386.388C272.425 385.812 271.901 385.524 271.221 385.524C270.541 385.524 270.017 385.808 269.649 386.376C269.281 386.944 269.097 387.752 269.097 388.8C269.097 389.84 269.281 390.644 269.649 391.212Z" fill="#6031A3"/>
<path d="M296.528 384.6H297.488V393H296.384V385.8L294.596 386.328L294.32 385.368L296.528 384.6Z" fill="#6031A3"/>
<path d="M304.55 387.264C304.55 387.912 304.378 388.476 304.034 388.956H304.046L301.334 393H300.074L302.066 390.06C301.89 390.076 301.754 390.084 301.658 390.084C300.81 390.084 300.114 389.824 299.57 389.304C299.034 388.776 298.766 388.096 298.766 387.264C298.766 386.432 299.034 385.756 299.57 385.236C300.114 384.708 300.81 384.444 301.658 384.444C302.506 384.444 303.198 384.708 303.734 385.236C304.278 385.756 304.55 386.432 304.55 387.264ZM300.362 385.992C300.034 386.312 299.87 386.736 299.87 387.264C299.87 387.792 300.034 388.22 300.362 388.548C300.698 388.868 301.13 389.028 301.658 389.028C302.186 389.028 302.614 388.868 302.942 388.548C303.278 388.22 303.446 387.792 303.446 387.264C303.446 386.736 303.282 386.312 302.954 385.992C302.626 385.672 302.194 385.512 301.658 385.512C301.13 385.512 300.698 385.672 300.362 385.992Z" fill="#6031A3"/>
<path d="M309.783 388.656C310.191 388.864 310.511 389.144 310.743 389.496C310.975 389.848 311.091 390.248 311.091 390.696C311.091 391.464 310.823 392.068 310.287 392.508C309.751 392.94 309.059 393.156 308.211 393.156C307.371 393.156 306.683 392.94 306.147 392.508C305.611 392.068 305.343 391.464 305.343 390.696C305.343 390.248 305.459 389.848 305.691 389.496C305.923 389.144 306.243 388.864 306.651 388.656C305.963 388.224 305.619 387.612 305.619 386.82C305.619 386.06 305.871 385.476 306.375 385.068C306.887 384.652 307.499 384.444 308.211 384.444C308.931 384.444 309.543 384.652 310.047 385.068C310.559 385.476 310.815 386.06 310.815 386.82C310.815 387.612 310.471 388.224 309.783 388.656ZM308.211 385.512C307.787 385.512 307.431 385.624 307.143 385.848C306.863 386.072 306.723 386.404 306.723 386.844C306.723 387.268 306.867 387.6 307.155 387.84C307.443 388.072 307.795 388.188 308.211 388.188C308.627 388.188 308.979 388.072 309.267 387.84C309.555 387.6 309.699 387.268 309.699 386.844C309.699 386.404 309.559 386.072 309.279 385.848C308.999 385.624 308.643 385.512 308.211 385.512ZM308.211 392.088C308.747 392.088 309.175 391.964 309.495 391.716C309.823 391.46 309.987 391.096 309.987 390.624C309.987 390.16 309.823 389.804 309.495 389.556C309.175 389.3 308.747 389.172 308.211 389.172C307.683 389.172 307.255 389.3 306.927 389.556C306.607 389.804 306.447 390.16 306.447 390.624C306.447 391.096 306.607 391.46 306.927 391.716C307.255 391.964 307.683 392.088 308.211 392.088Z" fill="#6031A3"/>
<path d="M314.724 387.876C315.516 387.876 316.184 388.112 316.728 388.584C317.28 389.048 317.556 389.692 317.556 390.516C317.556 391.332 317.276 391.976 316.716 392.448C316.156 392.92 315.476 393.156 314.676 393.156C314.036 393.156 313.464 393.004 312.96 392.7C312.456 392.388 312.104 391.94 311.904 391.356L312.852 390.816C312.964 391.224 313.18 391.536 313.5 391.752C313.82 391.96 314.212 392.064 314.676 392.064C315.204 392.064 315.632 391.928 315.96 391.656C316.288 391.384 316.452 391.004 316.452 390.516C316.452 390.028 316.288 389.648 315.96 389.376C315.632 389.096 315.212 388.956 314.7 388.956H312.324L312.636 384.6H317.232V385.644H313.644L313.5 387.876H314.724Z" fill="#6031A3"/>
<path d="M339.626 384.6H340.586V393H339.482V385.8L337.694 386.328L337.418 385.368L339.626 384.6Z" fill="#6031A3"/>
<path d="M347.647 387.264C347.647 387.912 347.475 388.476 347.131 388.956H347.143L344.431 393H343.171L345.163 390.06C344.987 390.076 344.851 390.084 344.755 390.084C343.907 390.084 343.211 389.824 342.667 389.304C342.131 388.776 341.863 388.096 341.863 387.264C341.863 386.432 342.131 385.756 342.667 385.236C343.211 384.708 343.907 384.444 344.755 384.444C345.603 384.444 346.295 384.708 346.831 385.236C347.375 385.756 347.647 386.432 347.647 387.264ZM343.459 385.992C343.131 386.312 342.967 386.736 342.967 387.264C342.967 387.792 343.131 388.22 343.459 388.548C343.795 388.868 344.227 389.028 344.755 389.028C345.283 389.028 345.711 388.868 346.039 388.548C346.375 388.22 346.543 387.792 346.543 387.264C346.543 386.736 346.379 386.312 346.051 385.992C345.723 385.672 345.291 385.512 344.755 385.512C344.227 385.512 343.795 385.672 343.459 385.992Z" fill="#6031A3"/>
<path d="M354.104 387.264C354.104 387.912 353.932 388.476 353.588 388.956H353.6L350.888 393H349.628L351.62 390.06C351.444 390.076 351.308 390.084 351.212 390.084C350.364 390.084 349.668 389.824 349.124 389.304C348.588 388.776 348.32 388.096 348.32 387.264C348.32 386.432 348.588 385.756 349.124 385.236C349.668 384.708 350.364 384.444 351.212 384.444C352.06 384.444 352.752 384.708 353.288 385.236C353.832 385.756 354.104 386.432 354.104 387.264ZM349.916 385.992C349.588 386.312 349.424 386.736 349.424 387.264C349.424 387.792 349.588 388.22 349.916 388.548C350.252 388.868 350.684 389.028 351.212 389.028C351.74 389.028 352.168 388.868 352.496 388.548C352.832 388.22 353 387.792 353 387.264C353 386.736 352.836 386.312 352.508 385.992C352.18 385.672 351.748 385.512 351.212 385.512C350.684 385.512 350.252 385.672 349.916 385.992Z" fill="#6031A3"/>
<path d="M360.609 391.968C360.041 392.76 359.245 393.156 358.221 393.156C357.197 393.156 356.401 392.76 355.833 391.968C355.265 391.176 354.981 390.12 354.981 388.8C354.981 387.48 355.265 386.424 355.833 385.632C356.401 384.84 357.197 384.444 358.221 384.444C359.245 384.444 360.041 384.84 360.609 385.632C361.177 386.424 361.461 387.48 361.461 388.8C361.461 390.12 361.177 391.176 360.609 391.968ZM356.649 391.212C357.017 391.78 357.541 392.064 358.221 392.064C358.901 392.064 359.425 391.78 359.793 391.212C360.169 390.644 360.357 389.84 360.357 388.8C360.357 387.76 360.169 386.956 359.793 386.388C359.425 385.812 358.901 385.524 358.221 385.524C357.541 385.524 357.017 385.808 356.649 386.376C356.281 386.944 356.097 387.752 356.097 388.8C356.097 389.84 356.281 390.644 356.649 391.212Z" fill="#6031A3"/>
<path d="M383.903 384.6H384.863V393H383.759V385.8L381.971 386.328L381.695 385.368L383.903 384.6Z" fill="#6031A3"/>
<path d="M391.925 387.264C391.925 387.912 391.753 388.476 391.409 388.956H391.421L388.709 393H387.449L389.441 390.06C389.265 390.076 389.129 390.084 389.033 390.084C388.185 390.084 387.489 389.824 386.945 389.304C386.409 388.776 386.141 388.096 386.141 387.264C386.141 386.432 386.409 385.756 386.945 385.236C387.489 384.708 388.185 384.444 389.033 384.444C389.881 384.444 390.573 384.708 391.109 385.236C391.653 385.756 391.925 386.432 391.925 387.264ZM387.737 385.992C387.409 386.312 387.245 386.736 387.245 387.264C387.245 387.792 387.409 388.22 387.737 388.548C388.073 388.868 388.505 389.028 389.033 389.028C389.561 389.028 389.989 388.868 390.317 388.548C390.653 388.22 390.821 387.792 390.821 387.264C390.821 386.736 390.657 386.312 390.329 385.992C390.001 385.672 389.569 385.512 389.033 385.512C388.505 385.512 388.073 385.672 387.737 385.992Z" fill="#6031A3"/>
<path d="M398.382 387.264C398.382 387.912 398.21 388.476 397.866 388.956H397.878L395.166 393H393.906L395.898 390.06C395.722 390.076 395.586 390.084 395.49 390.084C394.642 390.084 393.946 389.824 393.402 389.304C392.866 388.776 392.598 388.096 392.598 387.264C392.598 386.432 392.866 385.756 393.402 385.236C393.946 384.708 394.642 384.444 395.49 384.444C396.338 384.444 397.03 384.708 397.566 385.236C398.11 385.756 398.382 386.432 398.382 387.264ZM394.194 385.992C393.866 386.312 393.702 386.736 393.702 387.264C393.702 387.792 393.866 388.22 394.194 388.548C394.53 388.868 394.962 389.028 395.49 389.028C396.018 389.028 396.446 388.868 396.774 388.548C397.11 388.22 397.278 387.792 397.278 387.264C397.278 386.736 397.114 386.312 396.786 385.992C396.458 385.672 396.026 385.512 395.49 385.512C394.962 385.512 394.53 385.672 394.194 385.992Z" fill="#6031A3"/>
<path d="M401.724 387.876C402.516 387.876 403.184 388.112 403.728 388.584C404.28 389.048 404.556 389.692 404.556 390.516C404.556 391.332 404.276 391.976 403.716 392.448C403.156 392.92 402.476 393.156 401.676 393.156C401.036 393.156 400.464 393.004 399.96 392.7C399.456 392.388 399.104 391.94 398.904 391.356L399.852 390.816C399.964 391.224 400.18 391.536 400.5 391.752C400.82 391.96 401.212 392.064 401.676 392.064C402.204 392.064 402.632 391.928 402.96 391.656C403.288 391.384 403.452 391.004 403.452 390.516C403.452 390.028 403.288 389.648 402.96 389.376C402.632 389.096 402.212 388.956 401.7 388.956H399.324L399.636 384.6H404.232V385.644H400.644L400.5 387.876H401.724Z" fill="#6031A3"/>
<path d="M424.545 393V392.088L427.509 389.064C428.301 388.272 428.697 387.592 428.697 387.024C428.697 386.552 428.553 386.184 428.265 385.92C427.977 385.656 427.625 385.524 427.209 385.524C426.417 385.524 425.841 385.9 425.481 386.652L424.545 386.1C424.809 385.556 425.173 385.144 425.637 384.864C426.109 384.584 426.629 384.444 427.197 384.444C427.901 384.444 428.513 384.676 429.033 385.14C429.553 385.604 429.813 386.228 429.813 387.012C429.813 387.86 429.313 388.784 428.313 389.784L426.165 391.92H429.969V393H424.545Z" fill="#6031A3"/>
<path d="M436.492 391.968C435.924 392.76 435.128 393.156 434.104 393.156C433.08 393.156 432.284 392.76 431.716 391.968C431.148 391.176 430.864 390.12 430.864 388.8C430.864 387.48 431.148 386.424 431.716 385.632C432.284 384.84 433.08 384.444 434.104 384.444C435.128 384.444 435.924 384.84 436.492 385.632C437.06 386.424 437.344 387.48 437.344 388.8C437.344 390.12 437.06 391.176 436.492 391.968ZM432.532 391.212C432.9 391.78 433.424 392.064 434.104 392.064C434.784 392.064 435.308 391.78 435.676 391.212C436.052 390.644 436.24 389.84 436.24 388.8C436.24 387.76 436.052 386.956 435.676 386.388C435.308 385.812 434.784 385.524 434.104 385.524C433.424 385.524 432.9 385.808 432.532 386.376C432.164 386.944 431.98 387.752 431.98 388.8C431.98 389.84 432.164 390.644 432.532 391.212Z" fill="#6031A3"/>
<path d="M444.051 391.968C443.483 392.76 442.687 393.156 441.663 393.156C440.639 393.156 439.843 392.76 439.275 391.968C438.707 391.176 438.423 390.12 438.423 388.8C438.423 387.48 438.707 386.424 439.275 385.632C439.843 384.84 440.639 384.444 441.663 384.444C442.687 384.444 443.483 384.84 444.051 385.632C444.619 386.424 444.903 387.48 444.903 388.8C444.903 390.12 444.619 391.176 444.051 391.968ZM440.091 391.212C440.459 391.78 440.983 392.064 441.663 392.064C442.343 392.064 442.867 391.78 443.235 391.212C443.611 390.644 443.799 389.84 443.799 388.8C443.799 387.76 443.611 386.956 443.235 386.388C442.867 385.812 442.343 385.524 441.663 385.524C440.983 385.524 440.459 385.808 440.091 386.376C439.723 386.944 439.539 387.752 439.539 388.8C439.539 389.84 439.723 390.644 440.091 391.212Z" fill="#6031A3"/>
<path d="M451.61 391.968C451.042 392.76 450.246 393.156 449.222 393.156C448.198 393.156 447.402 392.76 446.834 391.968C446.266 391.176 445.982 390.12 445.982 388.8C445.982 387.48 446.266 386.424 446.834 385.632C447.402 384.84 448.198 384.444 449.222 384.444C450.246 384.444 451.042 384.84 451.61 385.632C452.178 386.424 452.462 387.48 452.462 388.8C452.462 390.12 452.178 391.176 451.61 391.968ZM447.65 391.212C448.018 391.78 448.542 392.064 449.222 392.064C449.902 392.064 450.426 391.78 450.794 391.212C451.17 390.644 451.358 389.84 451.358 388.8C451.358 387.76 451.17 386.956 450.794 386.388C450.426 385.812 449.902 385.524 449.222 385.524C448.542 385.524 448.018 385.808 447.65 386.376C447.282 386.944 447.098 387.752 447.098 388.8C447.098 389.84 447.282 390.644 447.65 391.212Z" fill="#6031A3"/>
<path d="M472.624 393V392.088L475.588 389.064C476.38 388.272 476.776 387.592 476.776 387.024C476.776 386.552 476.632 386.184 476.344 385.92C476.056 385.656 475.704 385.524 475.288 385.524C474.496 385.524 473.92 385.9 473.56 386.652L472.624 386.1C472.888 385.556 473.252 385.144 473.716 384.864C474.188 384.584 474.708 384.444 475.276 384.444C475.98 384.444 476.592 384.676 477.112 385.14C477.632 385.604 477.892 386.228 477.892 387.012C477.892 387.86 477.392 388.784 476.392 389.784L474.244 391.92H478.048V393H472.624Z" fill="#6031A3"/>
<path d="M484.57 391.968C484.002 392.76 483.206 393.156 482.182 393.156C481.158 393.156 480.362 392.76 479.794 391.968C479.226 391.176 478.942 390.12 478.942 388.8C478.942 387.48 479.226 386.424 479.794 385.632C480.362 384.84 481.158 384.444 482.182 384.444C483.206 384.444 484.002 384.84 484.57 385.632C485.138 386.424 485.422 387.48 485.422 388.8C485.422 390.12 485.138 391.176 484.57 391.968ZM480.61 391.212C480.978 391.78 481.502 392.064 482.182 392.064C482.862 392.064 483.386 391.78 483.754 391.212C484.13 390.644 484.318 389.84 484.318 388.8C484.318 387.76 484.13 386.956 483.754 386.388C483.386 385.812 482.862 385.524 482.182 385.524C481.502 385.524 480.978 385.808 480.61 386.376C480.242 386.944 480.058 387.752 480.058 388.8C480.058 389.84 480.242 390.644 480.61 391.212Z" fill="#6031A3"/>
<path d="M492.129 391.968C491.561 392.76 490.765 393.156 489.741 393.156C488.717 393.156 487.921 392.76 487.353 391.968C486.785 391.176 486.501 390.12 486.501 388.8C486.501 387.48 486.785 386.424 487.353 385.632C487.921 384.84 488.717 384.444 489.741 384.444C490.765 384.444 491.561 384.84 492.129 385.632C492.697 386.424 492.981 387.48 492.981 388.8C492.981 390.12 492.697 391.176 492.129 391.968ZM488.169 391.212C488.537 391.78 489.061 392.064 489.741 392.064C490.421 392.064 490.945 391.78 491.313 391.212C491.689 390.644 491.877 389.84 491.877 388.8C491.877 387.76 491.689 386.956 491.313 386.388C490.945 385.812 490.421 385.524 489.741 385.524C489.061 385.524 488.537 385.808 488.169 386.376C487.801 386.944 487.617 387.752 487.617 388.8C487.617 389.84 487.801 390.644 488.169 391.212Z" fill="#6031A3"/>
<path d="M496.725 387.876C497.517 387.876 498.185 388.112 498.729 388.584C499.281 389.048 499.557 389.692 499.557 390.516C499.557 391.332 499.277 391.976 498.717 392.448C498.157 392.92 497.477 393.156 496.677 393.156C496.037 393.156 495.465 393.004 494.961 392.7C494.457 392.388 494.105 391.94 493.905 391.356L494.853 390.816C494.965 391.224 495.181 391.536 495.501 391.752C495.821 391.96 496.213 392.064 496.677 392.064C497.205 392.064 497.633 391.928 497.961 391.656C498.289 391.384 498.453 391.004 498.453 390.516C498.453 390.028 498.289 389.648 497.961 389.376C497.633 389.096 497.213 388.956 496.701 388.956H494.325L494.637 384.6H499.233V385.644H495.645L495.501 387.876H496.725Z" fill="#6031A3"/>
<path d="M520.061 393V392.088L523.025 389.064C523.817 388.272 524.213 387.592 524.213 387.024C524.213 386.552 524.069 386.184 523.781 385.92C523.493 385.656 523.141 385.524 522.725 385.524C521.933 385.524 521.357 385.9 520.997 386.652L520.061 386.1C520.325 385.556 520.689 385.144 521.153 384.864C521.625 384.584 522.145 384.444 522.713 384.444C523.417 384.444 524.029 384.676 524.549 385.14C525.069 385.604 525.329 386.228 525.329 387.012C525.329 387.86 524.829 388.784 523.829 389.784L521.681 391.92H525.485V393H520.061Z" fill="#6031A3"/>
<path d="M532.008 391.968C531.44 392.76 530.644 393.156 529.62 393.156C528.596 393.156 527.8 392.76 527.232 391.968C526.664 391.176 526.38 390.12 526.38 388.8C526.38 387.48 526.664 386.424 527.232 385.632C527.8 384.84 528.596 384.444 529.62 384.444C530.644 384.444 531.44 384.84 532.008 385.632C532.576 386.424 532.86 387.48 532.86 388.8C532.86 390.12 532.576 391.176 532.008 391.968ZM528.048 391.212C528.416 391.78 528.94 392.064 529.62 392.064C530.3 392.064 530.824 391.78 531.192 391.212C531.568 390.644 531.756 389.84 531.756 388.8C531.756 387.76 531.568 386.956 531.192 386.388C530.824 385.812 530.3 385.524 529.62 385.524C528.94 385.524 528.416 385.808 528.048 386.376C527.68 386.944 527.496 387.752 527.496 388.8C527.496 389.84 527.68 390.644 528.048 391.212Z" fill="#6031A3"/>
<path d="M535.54 384.6H536.5V393H535.396V385.8L533.608 386.328L533.332 385.368L535.54 384.6Z" fill="#6031A3"/>
<path d="M543.61 391.968C543.042 392.76 542.246 393.156 541.222 393.156C540.198 393.156 539.402 392.76 538.834 391.968C538.266 391.176 537.982 390.12 537.982 388.8C537.982 387.48 538.266 386.424 538.834 385.632C539.402 384.84 540.198 384.444 541.222 384.444C542.246 384.444 543.042 384.84 543.61 385.632C544.178 386.424 544.462 387.48 544.462 388.8C544.462 390.12 544.178 391.176 543.61 391.968ZM539.65 391.212C540.018 391.78 540.542 392.064 541.222 392.064C541.902 392.064 542.426 391.78 542.794 391.212C543.17 390.644 543.358 389.84 543.358 388.8C543.358 387.76 543.17 386.956 542.794 386.388C542.426 385.812 541.902 385.524 541.222 385.524C540.542 385.524 540.018 385.808 539.65 386.376C539.282 386.944 539.098 387.752 539.098 388.8C539.098 389.84 539.282 390.644 539.65 391.212Z" fill="#6031A3"/>
<path d="M565.104 393V392.088L568.068 389.064C568.86 388.272 569.256 387.592 569.256 387.024C569.256 386.552 569.112 386.184 568.824 385.92C568.536 385.656 568.184 385.524 567.768 385.524C566.976 385.524 566.4 385.9 566.04 386.652L565.104 386.1C565.368 385.556 565.732 385.144 566.196 384.864C566.668 384.584 567.188 384.444 567.756 384.444C568.46 384.444 569.072 384.676 569.592 385.14C570.112 385.604 570.372 386.228 570.372 387.012C570.372 387.86 569.872 388.784 568.872 389.784L566.724 391.92H570.528V393H565.104Z" fill="#6031A3"/>
<path d="M577.051 391.968C576.483 392.76 575.687 393.156 574.663 393.156C573.639 393.156 572.843 392.76 572.275 391.968C571.707 391.176 571.423 390.12 571.423 388.8C571.423 387.48 571.707 386.424 572.275 385.632C572.843 384.84 573.639 384.444 574.663 384.444C575.687 384.444 576.483 384.84 577.051 385.632C577.619 386.424 577.903 387.48 577.903 388.8C577.903 390.12 577.619 391.176 577.051 391.968ZM573.091 391.212C573.459 391.78 573.983 392.064 574.663 392.064C575.343 392.064 575.867 391.78 576.235 391.212C576.611 390.644 576.799 389.84 576.799 388.8C576.799 387.76 576.611 386.956 576.235 386.388C575.867 385.812 575.343 385.524 574.663 385.524C573.983 385.524 573.459 385.808 573.091 386.376C572.723 386.944 572.539 387.752 572.539 388.8C572.539 389.84 572.723 390.644 573.091 391.212Z" fill="#6031A3"/>
<path d="M580.583 384.6H581.543V393H580.439V385.8L578.651 386.328L578.375 385.368L580.583 384.6Z" fill="#6031A3"/>
<path d="M585.725 387.876C586.517 387.876 587.185 388.112 587.729 388.584C588.281 389.048 588.557 389.692 588.557 390.516C588.557 391.332 588.277 391.976 587.717 392.448C587.157 392.92 586.477 393.156 585.677 393.156C585.037 393.156 584.465 393.004 583.961 392.7C583.457 392.388 583.105 391.94 582.905 391.356L583.853 390.816C583.965 391.224 584.181 391.536 584.501 391.752C584.821 391.96 585.213 392.064 585.677 392.064C586.205 392.064 586.633 391.928 586.961 391.656C587.289 391.384 587.453 391.004 587.453 390.516C587.453 390.028 587.289 389.648 586.961 389.376C586.633 389.096 586.213 388.956 585.701 388.956H583.325L583.637 384.6H588.233V385.644H584.645L584.501 387.876H585.725Z" fill="#6031A3"/>
<path d="M609.045 393V392.088L612.009 389.064C612.801 388.272 613.197 387.592 613.197 387.024C613.197 386.552 613.053 386.184 612.765 385.92C612.477 385.656 612.125 385.524 611.709 385.524C610.917 385.524 610.341 385.9 609.981 386.652L609.045 386.1C609.309 385.556 609.673 385.144 610.137 384.864C610.609 384.584 611.129 384.444 611.697 384.444C612.401 384.444 613.013 384.676 613.533 385.14C614.053 385.604 614.313 386.228 614.313 387.012C614.313 387.86 613.813 388.784 612.813 389.784L610.665 391.92H614.469V393H609.045Z" fill="#6031A3"/>
<path d="M620.992 391.968C620.424 392.76 619.628 393.156 618.604 393.156C617.58 393.156 616.784 392.76 616.216 391.968C615.648 391.176 615.364 390.12 615.364 388.8C615.364 387.48 615.648 386.424 616.216 385.632C616.784 384.84 617.58 384.444 618.604 384.444C619.628 384.444 620.424 384.84 620.992 385.632C621.56 386.424 621.844 387.48 621.844 388.8C621.844 390.12 621.56 391.176 620.992 391.968ZM617.032 391.212C617.4 391.78 617.924 392.064 618.604 392.064C619.284 392.064 619.808 391.78 620.176 391.212C620.552 390.644 620.74 389.84 620.74 388.8C620.74 387.76 620.552 386.956 620.176 386.388C619.808 385.812 619.284 385.524 618.604 385.524C617.924 385.524 617.4 385.808 617.032 386.376C616.664 386.944 616.48 387.752 616.48 388.8C616.48 389.84 616.664 390.644 617.032 391.212Z" fill="#6031A3"/>
<path d="M622.663 393V392.088L625.627 389.064C626.419 388.272 626.815 387.592 626.815 387.024C626.815 386.552 626.671 386.184 626.383 385.92C626.095 385.656 625.743 385.524 625.327 385.524C624.535 385.524 623.959 385.9 623.599 386.652L622.663 386.1C622.927 385.556 623.291 385.144 623.755 384.864C624.227 384.584 624.747 384.444 625.315 384.444C626.019 384.444 626.631 384.676 627.151 385.14C627.671 385.604 627.931 386.228 627.931 387.012C627.931 387.86 627.431 388.784 626.431 389.784L624.283 391.92H628.087V393H622.663Z" fill="#6031A3"/>
<path d="M634.61 391.968C634.042 392.76 633.246 393.156 632.222 393.156C631.198 393.156 630.402 392.76 629.834 391.968C629.266 391.176 628.982 390.12 628.982 388.8C628.982 387.48 629.266 386.424 629.834 385.632C630.402 384.84 631.198 384.444 632.222 384.444C633.246 384.444 634.042 384.84 634.61 385.632C635.178 386.424 635.462 387.48 635.462 388.8C635.462 390.12 635.178 391.176 634.61 391.968ZM630.65 391.212C631.018 391.78 631.542 392.064 632.222 392.064C632.902 392.064 633.426 391.78 633.794 391.212C634.17 390.644 634.358 389.84 634.358 388.8C634.358 387.76 634.17 386.956 633.794 386.388C633.426 385.812 632.902 385.524 632.222 385.524C631.542 385.524 631.018 385.808 630.65 386.376C630.282 386.944 630.098 387.752 630.098 388.8C630.098 389.84 630.282 390.644 630.65 391.212Z" fill="#6031A3"/>
<path d="M656.045 393V392.088L659.009 389.064C659.801 388.272 660.197 387.592 660.197 387.024C660.197 386.552 660.053 386.184 659.765 385.92C659.477 385.656 659.125 385.524 658.709 385.524C657.917 385.524 657.341 385.9 656.981 386.652L656.045 386.1C656.309 385.556 656.673 385.144 657.137 384.864C657.609 384.584 658.129 384.444 658.697 384.444C659.401 384.444 660.013 384.676 660.533 385.14C661.053 385.604 661.313 386.228 661.313 387.012C661.313 387.86 660.813 388.784 659.813 389.784L657.665 391.92H661.469V393H656.045Z" fill="#6031A3"/>
<path d="M667.992 391.968C667.424 392.76 666.628 393.156 665.604 393.156C664.58 393.156 663.784 392.76 663.216 391.968C662.648 391.176 662.364 390.12 662.364 388.8C662.364 387.48 662.648 386.424 663.216 385.632C663.784 384.84 664.58 384.444 665.604 384.444C666.628 384.444 667.424 384.84 667.992 385.632C668.56 386.424 668.844 387.48 668.844 388.8C668.844 390.12 668.56 391.176 667.992 391.968ZM664.032 391.212C664.4 391.78 664.924 392.064 665.604 392.064C666.284 392.064 666.808 391.78 667.176 391.212C667.552 390.644 667.74 389.84 667.74 388.8C667.74 387.76 667.552 386.956 667.176 386.388C666.808 385.812 666.284 385.524 665.604 385.524C664.924 385.524 664.4 385.808 664.032 386.376C663.664 386.944 663.48 387.752 663.48 388.8C663.48 389.84 663.664 390.644 664.032 391.212Z" fill="#6031A3"/>
<path d="M669.663 393V392.088L672.627 389.064C673.419 388.272 673.815 387.592 673.815 387.024C673.815 386.552 673.671 386.184 673.383 385.92C673.095 385.656 672.743 385.524 672.327 385.524C671.535 385.524 670.959 385.9 670.599 386.652L669.663 386.1C669.927 385.556 670.291 385.144 670.755 384.864C671.227 384.584 671.747 384.444 672.315 384.444C673.019 384.444 673.631 384.676 674.151 385.14C674.671 385.604 674.931 386.228 674.931 387.012C674.931 387.86 674.431 388.784 673.431 389.784L671.283 391.92H675.087V393H669.663Z" fill="#6031A3"/>
<path d="M681.61 391.968C681.042 392.76 680.246 393.156 679.222 393.156C678.198 393.156 677.402 392.76 676.834 391.968C676.266 391.176 675.982 390.12 675.982 388.8C675.982 387.48 676.266 386.424 676.834 385.632C677.402 384.84 678.198 384.444 679.222 384.444C680.246 384.444 681.042 384.84 681.61 385.632C682.178 386.424 682.462 387.48 682.462 388.8C682.462 390.12 682.178 391.176 681.61 391.968ZM677.65 391.212C678.018 391.78 678.542 392.064 679.222 392.064C679.902 392.064 680.426 391.78 680.794 391.212C681.17 390.644 681.358 389.84 681.358 388.8C681.358 387.76 681.17 386.956 680.794 386.388C680.426 385.812 679.902 385.524 679.222 385.524C678.542 385.524 678.018 385.808 677.65 386.376C677.282 386.944 677.098 387.752 677.098 388.8C677.098 389.84 677.282 390.644 677.65 391.212Z" fill="#6031A3"/>
<path fill-rule="evenodd" clip-rule="evenodd" d="M77 44.75C77.1381 44.75 77.25 44.8619 77.25 45V365.75H673C673.138 365.75 673.25 365.862 673.25 366C673.25 366.138 673.138 366.25 673 366.25H76.75V45C76.75 44.8619 76.8619 44.75 77 44.75Z" fill="#D5C5EC"/>
<path fill-rule="evenodd" clip-rule="evenodd" d="M76.75 301.75H79.7333V302.25H76.75V301.75ZM84.2 301.75H89.6667V302.25H84.2V301.75ZM94.1333 301.75H99.6V302.25H94.1333V301.75ZM104.067 301.75H109.533V302.25H104.067V301.75ZM114 301.75H119.467V302.25H114V301.75ZM123.933 301.75H129.4V302.25H123.933V301.75ZM133.867 301.75H139.333V302.25H133.867V301.75ZM143.8 301.75H149.267V302.25H143.8V301.75ZM153.733 301.75H159.2V302.25H153.733V301.75ZM163.667 301.75H169.133V302.25H163.667V301.75ZM173.6 301.75H179.067V302.25H173.6V301.75ZM183.533 301.75H189V302.25H183.533V301.75ZM193.467 301.75H198.933V302.25H193.467V301.75ZM203.4 301.75H208.867V302.25H203.4V301.75ZM213.333 301.75H218.8V302.25H213.333V301.75ZM223.267 301.75H228.733V302.25H223.267V301.75ZM233.2 301.75H238.667V302.25H233.2V301.75ZM243.133 301.75H248.6V302.25H243.133V301.75ZM253.067 301.75H258.533V302.25H253.067V301.75ZM263 301.75H268.467V302.25H263V301.75ZM272.933 301.75H278.4V302.25H272.933V301.75ZM282.867 301.75H288.333V302.25H282.867V301.75ZM292.8 301.75H298.267V302.25H292.8V301.75ZM302.733 301.75H308.2V302.25H302.733V301.75ZM312.667 301.75H318.133V302.25H312.667V301.75ZM322.6 301.75H328.066V302.25H322.6V301.75ZM332.533 301.75H338V302.25H332.533V301.75ZM342.466 301.75H347.933V302.25H342.466V301.75ZM352.4 301.75H357.867V302.25H352.4V301.75ZM362.333 301.75H367.8V302.25H362.333V301.75ZM372.267 301.75H377.733V302.25H372.267V301.75ZM382.2 301.75H387.667V302.25H382.2V301.75ZM392.133 301.75H397.6V302.25H392.133V301.75ZM402.067 301.75H407.533V302.25H402.067V301.75ZM412 301.75H417.467V302.25H412V301.75ZM421.933 301.75H427.4V302.25H421.933V301.75ZM431.867 301.75H437.333V302.25H431.867V301.75ZM441.8 301.75H447.267V302.25H441.8V301.75ZM451.733 301.75H457.2V302.25H451.733V301.75ZM461.667 301.75H467.133V302.25H461.667V301.75ZM471.6 301.75H477.067V302.25H471.6V301.75ZM481.533 301.75H487V302.25H481.533V301.75ZM491.467 301.75H496.933V302.25H491.467V301.75ZM501.4 301.75H506.867V302.25H501.4V301.75ZM511.333 301.75H516.8V302.25H511.333V301.75ZM521.267 301.75H526.733V302.25H521.267V301.75ZM531.2 301.75H536.667V302.25H531.2V301.75ZM541.133 301.75H546.6V302.25H541.133V301.75ZM551.067 301.75H556.534V302.25H551.067V301.75ZM561 301.75H566.467V302.25H561V301.75ZM570.934 301.75H576.4V302.25H570.934V301.75ZM580.867 301.75H586.334V302.25H580.867V301.75ZM590.8 301.75H596.267V302.25H590.8V301.75ZM600.734 301.75H606.2V302.25H600.734V301.75ZM610.667 301.75H616.134V302.25H610.667V301.75ZM620.6 301.75H626.067V302.25H620.6V301.75ZM630.534 301.75H636V302.25H630.534V301.75ZM640.467 301.75H645.934V302.25H640.467V301.75ZM650.4 301.75H655.867V302.25H650.4V301.75ZM660.334 301.75H665.8V302.25H660.334V301.75ZM670.267 301.75H673.25V302.25H670.267V301.75Z" fill="#D5C5EC"/>
<path fill-rule="evenodd" clip-rule="evenodd" d="M76.75 237.75H79.7333V238.25H76.75V237.75ZM84.2 237.75H89.6667V238.25H84.2V237.75ZM94.1333 237.75H99.6V238.25H94.1333V237.75ZM104.067 237.75H109.533V238.25H104.067V237.75ZM114 237.75H119.467V238.25H114V237.75ZM123.933 237.75H129.4V238.25H123.933V237.75ZM133.867 237.75H139.333V238.25H133.867V237.75ZM143.8 237.75H149.267V238.25H143.8V237.75ZM153.733 237.75H159.2V238.25H153.733V237.75ZM163.667 237.75H169.133V238.25H163.667V237.75ZM173.6 237.75H179.067V238.25H173.6V237.75ZM183.533 237.75H189V238.25H183.533V237.75ZM193.467 237.75H198.933V238.25H193.467V237.75ZM203.4 237.75H208.867V238.25H203.4V237.75ZM213.333 237.75H218.8V238.25H213.333V237.75ZM223.267 237.75H228.733V238.25H223.267V237.75ZM233.2 237.75H238.667V238.25H233.2V237.75ZM243.133 237.75H248.6V238.25H243.133V237.75ZM253.067 237.75H258.533V238.25H253.067V237.75ZM263 237.75H268.467V238.25H263V237.75ZM272.933 237.75H278.4V238.25H272.933V237.75ZM282.867 237.75H288.333V238.25H282.867V237.75ZM292.8 237.75H298.267V238.25H292.8V237.75ZM302.733 237.75H308.2V238.25H302.733V237.75ZM312.667 237.75H318.133V238.25H312.667V237.75ZM322.6 237.75H328.066V238.25H322.6V237.75ZM332.533 237.75H338V238.25H332.533V237.75ZM342.466 237.75H347.933V238.25H342.466V237.75ZM352.4 237.75H357.867V238.25H352.4V237.75ZM362.333 237.75H367.8V238.25H362.333V237.75ZM372.267 237.75H377.733V238.25H372.267V237.75ZM382.2 237.75H387.667V238.25H382.2V237.75ZM392.133 237.75H397.6V238.25H392.133V237.75ZM402.067 237.75H407.533V238.25H402.067V237.75ZM412 237.75H417.467V238.25H412V237.75ZM421.933 237.75H427.4V238.25H421.933V237.75ZM431.867 237.75H437.333V238.25H431.867V237.75ZM441.8 237.75H447.267V238.25H441.8V237.75ZM451.733 237.75H457.2V238.25H451.733V237.75ZM461.667 237.75H467.133V238.25H461.667V237.75ZM471.6 237.75H477.067V238.25H471.6V237.75ZM481.533 237.75H487V238.25H481.533V237.75ZM491.467 237.75H496.933V238.25H491.467V237.75ZM501.4 237.75H506.867V238.25H501.4V237.75ZM511.333 237.75H516.8V238.25H511.333V237.75ZM521.267 237.75H526.733V238.25H521.267V237.75ZM531.2 237.75H536.667V238.25H531.2V237.75ZM541.133 237.75H546.6V238.25H541.133V237.75ZM551.067 237.75H556.534V238.25H551.067V237.75ZM561 237.75H566.467V238.25H561V237.75ZM570.934 237.75H576.4V238.25H570.934V237.75ZM580.867 237.75H586.334V238.25H580.867V237.75ZM590.8 237.75H596.267V238.25H590.8V237.75ZM600.734 237.75H606.2V238.25H600.734V237.75ZM610.667 237.75H616.134V238.25H610.667V237.75ZM620.6 237.75H626.067V238.25H620.6V237.75ZM630.534 237.75H636V238.25H630.534V237.75ZM640.467 237.75H645.934V238.25H640.467V237.75ZM650.4 237.75H655.867V238.25H650.4V237.75ZM660.334 237.75H665.8V238.25H660.334V237.75ZM670.267 237.75H673.25V238.25H670.267V237.75Z" fill="#D5C5EC"/>
<path fill-rule="evenodd" clip-rule="evenodd" d="M76.75 173.75H79.7333V174.25H76.75V173.75ZM84.2 173.75H89.6667V174.25H84.2V173.75ZM94.1333 173.75H99.6V174.25H94.1333V173.75ZM104.067 173.75H109.533V174.25H104.067V173.75ZM114 173.75H119.467V174.25H114V173.75ZM123.933 173.75H129.4V174.25H123.933V173.75ZM133.867 173.75H139.333V174.25H133.867V173.75ZM143.8 173.75H149.267V174.25H143.8V173.75ZM153.733 173.75H159.2V174.25H153.733V173.75ZM163.667 173.75H169.133V174.25H163.667V173.75ZM173.6 173.75H179.067V174.25H173.6V173.75ZM183.533 173.75H189V174.25H183.533V173.75ZM193.467 173.75H198.933V174.25H193.467V173.75ZM203.4 173.75H208.867V174.25H203.4V173.75ZM213.333 173.75H218.8V174.25H213.333V173.75ZM223.267 173.75H228.733V174.25H223.267V173.75ZM233.2 173.75H238.667V174.25H233.2V173.75ZM243.133 173.75H248.6V174.25H243.133V173.75ZM253.067 173.75H258.533V174.25H253.067V173.75ZM263 173.75H268.467V174.25H263V173.75ZM272.933 173.75H278.4V174.25H272.933V173.75ZM282.867 173.75H288.333V174.25H282.867V173.75ZM292.8 173.75H298.267V174.25H292.8V173.75ZM302.733 173.75H308.2V174.25H302.733V173.75ZM312.667 173.75H318.133V174.25H312.667V173.75ZM322.6 173.75H328.066V174.25H322.6V173.75ZM332.533 173.75H338V174.25H332.533V173.75ZM342.466 173.75H347.933V174.25H342.466V173.75ZM352.4 173.75H357.867V174.25H352.4V173.75ZM362.333 173.75H367.8V174.25H362.333V173.75ZM372.267 173.75H377.733V174.25H372.267V173.75ZM382.2 173.75H387.667V174.25H382.2V173.75ZM392.133 173.75H397.6V174.25H392.133V173.75ZM402.067 173.75H407.533V174.25H402.067V173.75ZM412 173.75H417.467V174.25H412V173.75ZM421.933 173.75H427.4V174.25H421.933V173.75ZM431.867 173.75H437.333V174.25H431.867V173.75ZM441.8 173.75H447.267V174.25H441.8V173.75ZM451.733 173.75H457.2V174.25H451.733V173.75ZM461.667 173.75H467.133V174.25H461.667V173.75ZM471.6 173.75H477.067V174.25H471.6V173.75ZM481.533 173.75H487V174.25H481.533V173.75ZM491.467 173.75H496.933V174.25H491.467V173.75ZM501.4 173.75H506.867V174.25H501.4V173.75ZM511.333 173.75H516.8V174.25H511.333V173.75ZM521.267 173.75H526.733V174.25H521.267V173.75ZM531.2 173.75H536.667V174.25H531.2V173.75ZM541.133 173.75H546.6V174.25H541.133V173.75ZM551.067 173.75H556.534V174.25H551.067V173.75ZM561 173.75H566.467V174.25H561V173.75ZM570.934 173.75H576.4V174.25H570.934V173.75ZM580.867 173.75H586.334V174.25H580.867V173.75ZM590.8 173.75H596.267V174.25H590.8V173.75ZM600.734 173.75H606.2V174.25H600.734V173.75ZM610.667 173.75H616.134V174.25H610.667V173.75ZM620.6 173.75H626.067V174.25H620.6V173.75ZM630.534 173.75H636V174.25H630.534V173.75ZM640.467 173.75H645.934V174.25H640.467V173.75ZM650.4 173.75H655.867V174.25H650.4V173.75ZM660.334 173.75H665.8V174.25H660.334V173.75ZM670.267 173.75H673.25V174.25H670.267V173.75Z" fill="#D5C5EC"/>
<path fill-rule="evenodd" clip-rule="evenodd" d="M76.75 109.75H79.7333V110.25H76.75V109.75ZM84.2 109.75H89.6667V110.25H84.2V109.75ZM94.1333 109.75H99.6V110.25H94.1333V109.75ZM104.067 109.75H109.533V110.25H104.067V109.75ZM114 109.75H119.467V110.25H114V109.75ZM123.933 109.75H129.4V110.25H123.933V109.75ZM133.867 109.75H139.333V110.25H133.867V109.75ZM143.8 109.75H149.267V110.25H143.8V109.75ZM153.733 109.75H159.2V110.25H153.733V109.75ZM163.667 109.75H169.133V110.25H163.667V109.75ZM173.6 109.75H179.067V110.25H173.6V109.75ZM183.533 109.75H189V110.25H183.533V109.75ZM193.467 109.75H198.933V110.25H193.467V109.75ZM203.4 109.75H208.867V110.25H203.4V109.75ZM213.333 109.75H218.8V110.25H213.333V109.75ZM223.267 109.75H228.733V110.25H223.267V109.75ZM233.2 109.75H238.667V110.25H233.2V109.75ZM243.133 109.75H248.6V110.25H243.133V109.75ZM253.067 109.75H258.533V110.25H253.067V109.75ZM263 109.75H268.467V110.25H263V109.75ZM272.933 109.75H278.4V110.25H272.933V109.75ZM282.867 109.75H288.333V110.25H282.867V109.75ZM292.8 109.75H298.267V110.25H292.8V109.75ZM302.733 109.75H308.2V110.25H302.733V109.75ZM312.667 109.75H318.133V110.25H312.667V109.75ZM322.6 109.75H328.066V110.25H322.6V109.75ZM332.533 109.75H338V110.25H332.533V109.75ZM342.466 109.75H347.933V110.25H342.466V109.75ZM352.4 109.75H357.867V110.25H352.4V109.75ZM362.333 109.75H367.8V110.25H362.333V109.75ZM372.267 109.75H377.733V110.25H372.267V109.75ZM382.2 109.75H387.667V110.25H382.2V109.75ZM392.133 109.75H397.6V110.25H392.133V109.75ZM402.067 109.75H407.533V110.25H402.067V109.75ZM412 109.75H417.467V110.25H412V109.75ZM421.933 109.75H427.4V110.25H421.933V109.75ZM431.867 109.75H437.333V110.25H431.867V109.75ZM441.8 109.75H447.267V110.25H441.8V109.75ZM451.733 109.75H457.2V110.25H451.733V109.75ZM461.667 109.75H467.133V110.25H461.667V109.75ZM471.6 109.75H477.067V110.25H471.6V109.75ZM481.533 109.75H487V110.25H481.533V109.75ZM491.467 109.75H496.933V110.25H491.467V109.75ZM501.4 109.75H506.867V110.25H501.4V109.75ZM511.333 109.75H516.8V110.25H511.333V109.75ZM521.267 109.75H526.733V110.25H521.267V109.75ZM531.2 109.75H536.667V110.25H531.2V109.75ZM541.133 109.75H546.6V110.25H541.133V109.75ZM551.067 109.75H556.534V110.25H551.067V109.75ZM561 109.75H566.467V110.25H561V109.75ZM570.934 109.75H576.4V110.25H570.934V109.75ZM580.867 109.75H586.334V110.25H580.867V109.75ZM590.8 109.75H596.267V110.25H590.8V109.75ZM600.734 109.75H606.2V110.25H600.734V109.75ZM610.667 109.75H616.134V110.25H610.667V109.75ZM620.6 109.75H626.067V110.25H620.6V109.75ZM630.534 109.75H636V110.25H630.534V109.75ZM640.467 109.75H645.934V110.25H640.467V109.75ZM650.4 109.75H655.867V110.25H650.4V109.75ZM660.334 109.75H665.8V110.25H660.334V109.75ZM670.267 109.75H673.25V110.25H670.267V109.75Z" fill="#D5C5EC"/>
<path fill-rule="evenodd" clip-rule="evenodd" d="M76.75 45.75H79.7333V46.25H76.75V45.75ZM84.2 45.75H89.6667V46.25H84.2V45.75ZM94.1333 45.75H99.6V46.25H94.1333V45.75ZM104.067 45.75H109.533V46.25H104.067V45.75ZM114 45.75H119.467V46.25H114V45.75ZM123.933 45.75H129.4V46.25H123.933V45.75ZM133.867 45.75H139.333V46.25H133.867V45.75ZM143.8 45.75H149.267V46.25H143.8V45.75ZM153.733 45.75H159.2V46.25H153.733V45.75ZM163.667 45.75H169.133V46.25H163.667V45.75ZM173.6 45.75H179.067V46.25H173.6V45.75ZM183.533 45.75H189V46.25H183.533V45.75ZM193.467 45.75H198.933V46.25H193.467V45.75ZM203.4 45.75H208.867V46.25H203.4V45.75ZM213.333 45.75H218.8V46.25H213.333V45.75ZM223.267 45.75H228.733V46.25H223.267V45.75ZM233.2 45.75H238.667V46.25H233.2V45.75ZM243.133 45.75H248.6V46.25H243.133V45.75ZM253.067 45.75H258.533V46.25H253.067V45.75ZM263 45.75H268.467V46.25H263V45.75ZM272.933 45.75H278.4V46.25H272.933V45.75ZM282.867 45.75H288.333V46.25H282.867V45.75ZM292.8 45.75H298.267V46.25H292.8V45.75ZM302.733 45.75H308.2V46.25H302.733V45.75ZM312.667 45.75H318.133V46.25H312.667V45.75ZM322.6 45.75H328.066V46.25H322.6V45.75ZM332.533 45.75H338V46.25H332.533V45.75ZM342.466 45.75H347.933V46.25H342.466V45.75ZM352.4 45.75H357.867V46.25H352.4V45.75ZM362.333 45.75H367.8V46.25H362.333V45.75ZM372.267 45.75H377.733V46.25H372.267V45.75ZM382.2 45.75H387.667V46.25H382.2V45.75ZM392.133 45.75H397.6V46.25H392.133V45.75ZM402.067 45.75H407.533V46.25H402.067V45.75ZM412 45.75H417.467V46.25H412V45.75ZM421.933 45.75H427.4V46.25H421.933V45.75ZM431.867 45.75H437.333V46.25H431.867V45.75ZM441.8 45.75H447.267V46.25H441.8V45.75ZM451.733 45.75H457.2V46.25H451.733V45.75ZM461.667 45.75H467.133V46.25H461.667V45.75ZM471.6 45.75H477.067V46.25H471.6V45.75ZM481.533 45.75H487V46.25H481.533V45.75ZM491.467 45.75H496.933V46.25H491.467V45.75ZM501.4 45.75H506.867V46.25H501.4V45.75ZM511.333 45.75H516.8V46.25H511.333V45.75ZM521.267 45.75H526.733V46.25H521.267V45.75ZM531.2 45.75H536.667V46.25H531.2V45.75ZM541.133 45.75H546.6V46.25H541.133V45.75ZM551.067 45.75H556.534V46.25H551.067V45.75ZM561 45.75H566.467V46.25H561V45.75ZM570.934 45.75H576.4V46.25H570.934V45.75ZM580.867 45.75H586.334V46.25H580.867V45.75ZM590.8 45.75H596.267V46.25H590.8V45.75ZM600.734 45.75H606.2V46.25H600.734V45.75ZM610.667 45.75H616.134V46.25H610.667V45.75ZM620.6 45.75H626.067V46.25H620.6V45.75ZM630.534 45.75H636V46.25H630.534V45.75ZM640.467 45.75H645.934V46.25H640.467V45.75ZM650.4 45.75H655.867V46.25H650.4V45.75ZM660.334 45.75H665.8V46.25H660.334V45.75ZM670.267 45.75H673.25V46.25H670.267V45.75Z" fill="#D5C5EC"/>
<g filter="url(#filter1_d_211_376)">
<path fill-rule="evenodd" clip-rule="evenodd" d="M669 363C677.284 363 684 356.284 684 348C684 339.716 677.284 333 669 333C660.716 333 654 339.716 654 348C654 356.284 660.716 363 669 363ZM669 366C678.941 366 687 357.941 687 348C687 338.059 678.941 330 669 330C659.059 330 651 338.059 651 348C651 357.941 659.059 366 669 366Z" fill="#FD3963"/>
</g>
<g filter="url(#filter2_d_211_376)">
<path fill-rule="evenodd" clip-rule="evenodd" d="M77.9738 107.293L120.499 146.773L163.777 135.704L206.335 155.966L248.693 185.208L290.962 205.332L333.273 214.397L372.607 224.48L372.616 224.482L457.313 244.645L457.324 244.647L499.724 253.731L542.14 272.915L584.445 293.057L626.906 302.154L669.706 350.04L668.96 350.706L626.378 303.063L584.121 294.01L541.719 273.822L541.71 273.818L499.409 254.686L457.104 245.622L457.092 245.62L372.376 225.453L372.367 225.451L333.054 215.372L290.638 206.285L248.191 186.076L205.833 156.834L163.674 136.763L120.218 147.877L77.2935 108.026L77.9738 107.293Z" fill="#FD3963"/>
</g>
<path d="M123 146.5C123 148.157 121.657 149.5 120 149.5C118.343 149.5 117 148.157 117 146.5C117 144.843 118.343 143.5 120 143.5C121.657 143.5 123 144.843 123 146.5Z" fill="#FD3963"/>
<path d="M81 107.5C81 109.157 79.6569 110.5 78 110.5C76.3431 110.5 75 109.157 75 107.5C75 105.843 76.3431 104.5 78 104.5C79.6569 104.5 81 105.843 81 107.5Z" fill="#FD3963"/>
<path d="M167 137C167 138.657 165.657 140 164 140C162.343 140 161 138.657 161 137C161 135.343 162.343 134 164 134C165.657 134 167 135.343 167 137Z" fill="#FD3963"/>
<path d="M209 156C209 157.657 207.657 159 206 159C204.343 159 203 157.657 203 156C203 154.343 204.343 153 206 153C207.657 153 209 154.343 209 156Z" fill="#FD3963"/>
<path d="M250 184C250 185.657 248.657 187 247 187C245.343 187 244 185.657 244 184C244 182.343 245.343 181 247 181C248.657 181 250 182.343 250 184Z" fill="#FD3963"/>
<path d="M293 205.5C293 207.157 291.657 208.5 290 208.5C288.343 208.5 287 207.157 287 205.5C287 203.843 288.343 202.5 290 202.5C291.657 202.5 293 203.843 293 205.5Z" fill="#FD3963"/>
<path d="M335 214.5C335 216.157 333.657 217.5 332 217.5C330.343 217.5 329 216.157 329 214.5C329 212.843 330.343 211.5 332 211.5C333.657 211.5 335 212.843 335 214.5Z" fill="#FD3963"/>
<path d="M375 224.5C375 226.157 373.657 227.5 372 227.5C370.343 227.5 369 226.157 369 224.5C369 222.843 370.343 221.5 372 221.5C373.657 221.5 375 222.843 375 224.5Z" fill="#FD3963"/>
<path d="M418 235C418 236.657 416.657 238 415 238C413.343 238 412 236.657 412 235C412 233.343 413.343 232 415 232C416.657 232 418 233.343 418 235Z" fill="#FD3963"/>
<path d="M460 245C460 246.657 458.657 248 457 248C455.343 248 454 246.657 454 245C454 243.343 455.343 242 457 242C458.657 242 460 243.343 460 245Z" fill="#FD3963"/>
<path d="M503 254C503 255.657 501.657 257 500 257C498.343 257 497 255.657 497 254C497 252.343 498.343 251 500 251C501.657 251 503 252.343 503 254Z" fill="#FD3963"/>
<path d="M545 273C545 274.657 543.657 276 542 276C540.343 276 539 274.657 539 273C539 271.343 540.343 270 542 270C543.657 270 545 271.343 545 273Z" fill="#FD3963"/>
<path d="M587 293C587 294.657 585.657 296 584 296C582.343 296 581 294.657 581 293C581 291.343 582.343 290 584 290C585.657 290 587 291.343 587 293Z" fill="#FD3963"/>
<path d="M630 303C630 304.657 628.657 306 627 306C625.343 306 624 304.657 624 303C624 301.343 625.343 300 627 300C628.657 300 630 301.343 630 303Z" fill="#FD3963"/>
<path d="M673 350C673 351.657 671.657 353 670 353C668.343 353 667 351.657 667 350C667 348.343 668.343 347 670 347C671.657 347 673 348.343 673 350Z" fill="#FD3963"/>
<defs>
<filter id="filter0_d_211_376" x="0" y="0" width="716" height="441" filterUnits="userSpaceOnUse" color-interpolation-filters="sRGB">
<feFlood flood-opacity="0" result="BackgroundImageFix"/>
<feColorMatrix in="SourceAlpha" type="matrix" values="0 0 0 0 0 0 0 0 0 0 0 0 0 0 0 0 0 0 127 0" result="hardAlpha"/>
<feOffset dy="4"/>
<feGaussianBlur stdDeviation="8"/>
<feComposite in2="hardAlpha" operator="out"/>
<feColorMatrix type="matrix" values="0 0 0 0 0.95 0 0 0 0 0.925 0 0 0 0 1 0 0 0 1 0"/>
<feBlend mode="normal" in2="BackgroundImageFix" result="effect1_dropShadow_211_376"/>
<feBlend mode="normal" in="SourceGraphic" in2="effect1_dropShadow_211_376" result="shape"/>
</filter>
<filter id="filter1_d_211_376" x="641" y="320" width="56" height="56" filterUnits="userSpaceOnUse" color-interpolation-filters="sRGB">
<feFlood flood-opacity="0" result="BackgroundImageFix"/>
<feColorMatrix in="SourceAlpha" type="matrix" values="0 0 0 0 0 0 0 0 0 0 0 0 0 0 0 0 0 0 127 0" result="hardAlpha"/>
<feOffset/>
<feGaussianBlur stdDeviation="5"/>
<feComposite in2="hardAlpha" operator="out"/>
<feColorMatrix type="matrix" values="0 0 0 0 0.992157 0 0 0 0 0.223529 0 0 0 0 0.388235 0 0 0 1 0"/>
<feBlend mode="normal" in2="BackgroundImageFix" result="effect1_dropShadow_211_376"/>
<feBlend mode="normal" in="SourceGraphic" in2="effect1_dropShadow_211_376" result="shape"/>
</filter>
<filter id="filter2_d_211_376" x="52.2935" y="82.2935" width="642.413" height="293.413" filterUnits="userSpaceOnUse" color-interpolation-filters="sRGB">
<feFlood flood-opacity="0" result="BackgroundImageFix"/>
<feColorMatrix in="SourceAlpha" type="matrix" values="0 0 0 0 0 0 0 0 0 0 0 0 0 0 0 0 0 0 127 0" result="hardAlpha"/>
<feOffset/>
<feGaussianBlur stdDeviation="12.5"/>
<feComposite in2="hardAlpha" operator="out"/>
<feColorMatrix type="matrix" values="0 0 0 0 0.992157 0 0 0 0 0.223529 0 0 0 0 0.388235 0 0 0 1 0"/>
<feBlend mode="normal" in2="BackgroundImageFix" result="effect1_dropShadow_211_376"/>
<feBlend mode="normal" in="SourceGraphic" in2="effect1_dropShadow_211_376" result="shape"/>
</filter>
</defs>
</svg>
