<svg width="716" height="441" viewBox="0 0 716 441" fill="none" xmlns="http://www.w3.org/2000/svg">
<g filter="url(#filter0_d_211_268)">
<path d="M16 16C16 13.7909 17.7909 12 20 12H696C698.209 12 700 13.7909 700 16V417C700 419.209 698.209 421 696 421H20C17.7908 421 16 419.209 16 417V16Z" fill="white"/>
</g>
<path fill-rule="evenodd" clip-rule="evenodd" d="M77 46.25C77.1381 46.25 77.25 46.3619 77.25 46.5V367.25H668C668.138 367.25 668.25 367.362 668.25 367.5C668.25 367.638 668.138 367.75 668 367.75H76.75V46.5C76.75 46.3619 76.8619 46.25 77 46.25Z" fill="#D5C5EC"/>
<path d="M66.168 369.968C65.6 370.76 64.804 371.156 63.78 371.156C62.756 371.156 61.96 370.76 61.392 369.968C60.824 369.176 60.54 368.12 60.54 366.8C60.54 365.48 60.824 364.424 61.392 363.632C61.96 362.84 62.756 362.444 63.78 362.444C64.804 362.444 65.6 362.84 66.168 363.632C66.736 364.424 67.02 365.48 67.02 366.8C67.02 368.12 66.736 369.176 66.168 369.968ZM62.208 369.212C62.576 369.78 63.1 370.064 63.78 370.064C64.46 370.064 64.984 369.78 65.352 369.212C65.728 368.644 65.916 367.84 65.916 366.8C65.916 365.76 65.728 364.956 65.352 364.388C64.984 363.812 64.46 363.524 63.78 363.524C63.1 363.524 62.576 363.808 62.208 364.376C61.84 364.944 61.656 365.752 61.656 366.8C61.656 367.84 61.84 368.644 62.208 369.212Z" fill="#6031A3"/>
<path d="M41.7081 315.36V316.404H40.6881V318H39.5721V316.404H35.2881V315.36L38.3001 309.6H39.5001L36.4881 315.36H39.5721V312.984H40.6881V315.36H41.7081Z" fill="#6031A3"/>
<path d="M44.313 316.764L43.533 319.68H42.633L43.113 316.764H44.313Z" fill="#6031A3"/>
<path d="M50.8009 316.968C50.2329 317.76 49.4369 318.156 48.4129 318.156C47.3889 318.156 46.5929 317.76 46.0249 316.968C45.4569 316.176 45.1729 315.12 45.1729 313.8C45.1729 312.48 45.4569 311.424 46.0249 310.632C46.5929 309.84 47.3889 309.444 48.4129 309.444C49.4369 309.444 50.2329 309.84 50.8009 310.632C51.3689 311.424 51.6529 312.48 51.6529 313.8C51.6529 315.12 51.3689 316.176 50.8009 316.968ZM46.8409 316.212C47.2089 316.78 47.7329 317.064 48.4129 317.064C49.0929 317.064 49.6169 316.78 49.9849 316.212C50.3609 315.644 50.5489 314.84 50.5489 313.8C50.5489 312.76 50.3609 311.956 49.9849 311.388C49.6169 310.812 49.0929 310.524 48.4129 310.524C47.7329 310.524 47.2089 310.808 46.8409 311.376C46.4729 311.944 46.2889 312.752 46.2889 313.8C46.2889 314.84 46.4729 315.644 46.8409 316.212Z" fill="#6031A3"/>
<path d="M58.3595 316.968C57.7915 317.76 56.9955 318.156 55.9715 318.156C54.9475 318.156 54.1515 317.76 53.5835 316.968C53.0155 316.176 52.7315 315.12 52.7315 313.8C52.7315 312.48 53.0155 311.424 53.5835 310.632C54.1515 309.84 54.9475 309.444 55.9715 309.444C56.9955 309.444 57.7915 309.84 58.3595 310.632C58.9275 311.424 59.2115 312.48 59.2115 313.8C59.2115 315.12 58.9275 316.176 58.3595 316.968ZM54.3995 316.212C54.7675 316.78 55.2915 317.064 55.9715 317.064C56.6515 317.064 57.1755 316.78 57.5435 316.212C57.9195 315.644 58.1075 314.84 58.1075 313.8C58.1075 312.76 57.9195 311.956 57.5435 311.388C57.1755 310.812 56.6515 310.524 55.9715 310.524C55.2915 310.524 54.7675 310.808 54.3995 311.376C54.0315 311.944 53.8475 312.752 53.8475 313.8C53.8475 314.84 54.0315 315.644 54.3995 316.212Z" fill="#6031A3"/>
<path d="M65.9181 316.968C65.3501 317.76 64.5541 318.156 63.5301 318.156C62.5061 318.156 61.7101 317.76 61.1421 316.968C60.5741 316.176 60.2901 315.12 60.2901 313.8C60.2901 312.48 60.5741 311.424 61.1421 310.632C61.7101 309.84 62.5061 309.444 63.5301 309.444C64.5541 309.444 65.3501 309.84 65.9181 310.632C66.4861 311.424 66.7701 312.48 66.7701 313.8C66.7701 315.12 66.4861 316.176 65.9181 316.968ZM61.9581 316.212C62.3261 316.78 62.8501 317.064 63.5301 317.064C64.2101 317.064 64.7341 316.78 65.1021 316.212C65.4781 315.644 65.6661 314.84 65.6661 313.8C65.6661 312.76 65.4781 311.956 65.1021 311.388C64.7341 310.812 64.2101 310.524 63.5301 310.524C62.8501 310.524 62.3261 310.808 61.9581 311.376C61.5901 311.944 61.4061 312.752 61.4061 313.8C61.4061 314.84 61.5901 315.644 61.9581 316.212Z" fill="#6031A3"/>
<path d="M40.8961 259.656C41.3041 259.864 41.6241 260.144 41.8561 260.496C42.0881 260.848 42.2041 261.248 42.2041 261.696C42.2041 262.464 41.9361 263.068 41.4001 263.508C40.8641 263.94 40.1721 264.156 39.3241 264.156C38.4841 264.156 37.7961 263.94 37.2601 263.508C36.7241 263.068 36.4561 262.464 36.4561 261.696C36.4561 261.248 36.5721 260.848 36.8041 260.496C37.0361 260.144 37.3561 259.864 37.7641 259.656C37.0761 259.224 36.7321 258.612 36.7321 257.82C36.7321 257.06 36.9841 256.476 37.4881 256.068C38.0001 255.652 38.6121 255.444 39.3241 255.444C40.0441 255.444 40.6561 255.652 41.1601 256.068C41.6721 256.476 41.9281 257.06 41.9281 257.82C41.9281 258.612 41.5841 259.224 40.8961 259.656ZM39.3241 256.512C38.9001 256.512 38.5441 256.624 38.2561 256.848C37.9761 257.072 37.8361 257.404 37.8361 257.844C37.8361 258.268 37.9801 258.6 38.2681 258.84C38.5561 259.072 38.9081 259.188 39.3241 259.188C39.7401 259.188 40.0921 259.072 40.3801 258.84C40.6681 258.6 40.8121 258.268 40.8121 257.844C40.8121 257.404 40.6721 257.072 40.3921 256.848C40.1121 256.624 39.7561 256.512 39.3241 256.512ZM39.3241 263.088C39.8601 263.088 40.2881 262.964 40.6081 262.716C40.9361 262.46 41.1001 262.096 41.1001 261.624C41.1001 261.16 40.9361 260.804 40.6081 260.556C40.2881 260.3 39.8601 260.172 39.3241 260.172C38.7961 260.172 38.3681 260.3 38.0401 260.556C37.7201 260.804 37.5601 261.16 37.5601 261.624C37.5601 262.096 37.7201 262.46 38.0401 262.716C38.3681 262.964 38.7961 263.088 39.3241 263.088Z" fill="#6031A3"/>
<path d="M45.0083 262.764L44.2283 265.68H43.3283L43.8083 262.764H45.0083Z" fill="#6031A3"/>
<path d="M51.4962 262.968C50.9282 263.76 50.1322 264.156 49.1082 264.156C48.0842 264.156 47.2882 263.76 46.7202 262.968C46.1522 262.176 45.8682 261.12 45.8682 259.8C45.8682 258.48 46.1522 257.424 46.7202 256.632C47.2882 255.84 48.0842 255.444 49.1082 255.444C50.1322 255.444 50.9282 255.84 51.4962 256.632C52.0642 257.424 52.3482 258.48 52.3482 259.8C52.3482 261.12 52.0642 262.176 51.4962 262.968ZM47.5362 262.212C47.9042 262.78 48.4282 263.064 49.1082 263.064C49.7882 263.064 50.3122 262.78 50.6802 262.212C51.0562 261.644 51.2442 260.84 51.2442 259.8C51.2442 258.76 51.0562 257.956 50.6802 257.388C50.3122 256.812 49.7882 256.524 49.1082 256.524C48.4282 256.524 47.9042 256.808 47.5362 257.376C47.1682 257.944 46.9842 258.752 46.9842 259.8C46.9842 260.84 47.1682 261.644 47.5362 262.212Z" fill="#6031A3"/>
<path d="M59.0548 262.968C58.4868 263.76 57.6908 264.156 56.6668 264.156C55.6428 264.156 54.8468 263.76 54.2788 262.968C53.7108 262.176 53.4268 261.12 53.4268 259.8C53.4268 258.48 53.7108 257.424 54.2788 256.632C54.8468 255.84 55.6428 255.444 56.6668 255.444C57.6908 255.444 58.4868 255.84 59.0548 256.632C59.6228 257.424 59.9068 258.48 59.9068 259.8C59.9068 261.12 59.6228 262.176 59.0548 262.968ZM55.0948 262.212C55.4628 262.78 55.9868 263.064 56.6668 263.064C57.3468 263.064 57.8708 262.78 58.2388 262.212C58.6148 261.644 58.8028 260.84 58.8028 259.8C58.8028 258.76 58.6148 257.956 58.2388 257.388C57.8708 256.812 57.3468 256.524 56.6668 256.524C55.9868 256.524 55.4628 256.808 55.0948 257.376C54.7268 257.944 54.5428 258.752 54.5428 259.8C54.5428 260.84 54.7268 261.644 55.0948 262.212Z" fill="#6031A3"/>
<path d="M66.6134 262.968C66.0454 263.76 65.2494 264.156 64.2254 264.156C63.2014 264.156 62.4054 263.76 61.8374 262.968C61.2694 262.176 60.9854 261.12 60.9854 259.8C60.9854 258.48 61.2694 257.424 61.8374 256.632C62.4054 255.84 63.2014 255.444 64.2254 255.444C65.2494 255.444 66.0454 255.84 66.6134 256.632C67.1814 257.424 67.4654 258.48 67.4654 259.8C67.4654 261.12 67.1814 262.176 66.6134 262.968ZM62.6534 262.212C63.0214 262.78 63.5454 263.064 64.2254 263.064C64.9054 263.064 65.4294 262.78 65.7974 262.212C66.1734 261.644 66.3614 260.84 66.3614 259.8C66.3614 258.76 66.1734 257.956 65.7974 257.388C65.4294 256.812 64.9054 256.524 64.2254 256.524C63.5454 256.524 63.0214 256.808 62.6534 257.376C62.2854 257.944 62.1014 258.752 62.1014 259.8C62.1014 260.84 62.2854 261.644 62.6534 262.212Z" fill="#6031A3"/>
<path d="M34.376 202.6H35.336V211H34.232V203.8L32.444 204.328L32.168 203.368L34.376 202.6Z" fill="#6031A3"/>
<path d="M36.7093 211V210.088L39.6733 207.064C40.4653 206.272 40.8613 205.592 40.8613 205.024C40.8613 204.552 40.7173 204.184 40.4293 203.92C40.1413 203.656 39.7893 203.524 39.3733 203.524C38.5813 203.524 38.0053 203.9 37.6453 204.652L36.7093 204.1C36.9733 203.556 37.3373 203.144 37.8013 202.864C38.2733 202.584 38.7933 202.444 39.3613 202.444C40.0653 202.444 40.6773 202.676 41.1973 203.14C41.7173 203.604 41.9773 204.228 41.9773 205.012C41.9773 205.86 41.4773 206.784 40.4773 207.784L38.3293 209.92H42.1333V211H36.7093Z" fill="#6031A3"/>
<path d="M44.9574 209.764L44.1774 212.68H43.2774L43.7574 209.764H44.9574Z" fill="#6031A3"/>
<path d="M51.4453 209.968C50.8773 210.76 50.0813 211.156 49.0573 211.156C48.0333 211.156 47.2373 210.76 46.6693 209.968C46.1013 209.176 45.8173 208.12 45.8173 206.8C45.8173 205.48 46.1013 204.424 46.6693 203.632C47.2373 202.84 48.0333 202.444 49.0573 202.444C50.0813 202.444 50.8773 202.84 51.4453 203.632C52.0133 204.424 52.2973 205.48 52.2973 206.8C52.2973 208.12 52.0133 209.176 51.4453 209.968ZM47.4853 209.212C47.8533 209.78 48.3773 210.064 49.0573 210.064C49.7373 210.064 50.2613 209.78 50.6293 209.212C51.0053 208.644 51.1933 207.84 51.1933 206.8C51.1933 205.76 51.0053 204.956 50.6293 204.388C50.2613 203.812 49.7373 203.524 49.0573 203.524C48.3773 203.524 47.8533 203.808 47.4853 204.376C47.1173 204.944 46.9333 205.752 46.9333 206.8C46.9333 207.84 47.1173 208.644 47.4853 209.212Z" fill="#6031A3"/>
<path d="M59.0039 209.968C58.4359 210.76 57.6399 211.156 56.6159 211.156C55.5919 211.156 54.7959 210.76 54.2279 209.968C53.6599 209.176 53.3759 208.12 53.3759 206.8C53.3759 205.48 53.6599 204.424 54.2279 203.632C54.7959 202.84 55.5919 202.444 56.6159 202.444C57.6399 202.444 58.4359 202.84 59.0039 203.632C59.5719 204.424 59.8559 205.48 59.8559 206.8C59.8559 208.12 59.5719 209.176 59.0039 209.968ZM55.0439 209.212C55.4119 209.78 55.9359 210.064 56.6159 210.064C57.2959 210.064 57.8199 209.78 58.1879 209.212C58.5639 208.644 58.7519 207.84 58.7519 206.8C58.7519 205.76 58.5639 204.956 58.1879 204.388C57.8199 203.812 57.2959 203.524 56.6159 203.524C55.9359 203.524 55.4119 203.808 55.0439 204.376C54.6759 204.944 54.4919 205.752 54.4919 206.8C54.4919 207.84 54.6759 208.644 55.0439 209.212Z" fill="#6031A3"/>
<path d="M66.5625 209.968C65.9945 210.76 65.1985 211.156 64.1745 211.156C63.1505 211.156 62.3545 210.76 61.7865 209.968C61.2185 209.176 60.9345 208.12 60.9345 206.8C60.9345 205.48 61.2185 204.424 61.7865 203.632C62.3545 202.84 63.1505 202.444 64.1745 202.444C65.1985 202.444 65.9945 202.84 66.5625 203.632C67.1305 204.424 67.4145 205.48 67.4145 206.8C67.4145 208.12 67.1305 209.176 66.5625 209.968ZM62.6025 209.212C62.9705 209.78 63.4945 210.064 64.1745 210.064C64.8545 210.064 65.3785 209.78 65.7465 209.212C66.1225 208.644 66.3105 207.84 66.3105 206.8C66.3105 205.76 66.1225 204.956 65.7465 204.388C65.3785 203.812 64.8545 203.524 64.1745 203.524C63.4945 203.524 62.9705 203.808 62.6025 204.376C62.2345 204.944 62.0505 205.752 62.0505 206.8C62.0505 207.84 62.2345 208.644 62.6025 209.212Z" fill="#6031A3"/>
<path d="M34.376 148.6H35.336V157H34.232V149.8L32.444 150.328L32.168 149.368L34.376 148.6Z" fill="#6031A3"/>
<path d="M39.5053 151.504C40.3453 151.504 41.0373 151.768 41.5813 152.296C42.1253 152.816 42.3973 153.492 42.3973 154.324C42.3973 155.156 42.1253 155.836 41.5813 156.364C41.0373 156.892 40.3453 157.156 39.5053 157.156C38.6573 157.156 37.9613 156.892 37.4173 156.364C36.8813 155.836 36.6133 155.156 36.6133 154.324C36.6133 153.676 36.7813 153.116 37.1173 152.644L39.8173 148.6H41.0893L39.1093 151.528C39.2853 151.512 39.4173 151.504 39.5053 151.504ZM38.2093 155.608C38.5453 155.928 38.9773 156.088 39.5053 156.088C40.0333 156.088 40.4613 155.928 40.7893 155.608C41.1253 155.28 41.2933 154.852 41.2933 154.324C41.2933 153.796 41.1253 153.372 40.7893 153.052C40.4613 152.732 40.0333 152.572 39.5053 152.572C38.9693 152.572 38.5373 152.732 38.2093 153.052C37.8813 153.372 37.7173 153.796 37.7173 154.324C37.7173 154.852 37.8813 155.28 38.2093 155.608Z" fill="#6031A3"/>
<path d="M44.852 155.764L44.072 158.68H43.172L43.652 155.764H44.852Z" fill="#6031A3"/>
<path d="M51.3398 155.968C50.7718 156.76 49.9758 157.156 48.9518 157.156C47.9278 157.156 47.1318 156.76 46.5638 155.968C45.9958 155.176 45.7118 154.12 45.7118 152.8C45.7118 151.48 45.9958 150.424 46.5638 149.632C47.1318 148.84 47.9278 148.444 48.9518 148.444C49.9758 148.444 50.7718 148.84 51.3398 149.632C51.9078 150.424 52.1918 151.48 52.1918 152.8C52.1918 154.12 51.9078 155.176 51.3398 155.968ZM47.3798 155.212C47.7478 155.78 48.2718 156.064 48.9518 156.064C49.6318 156.064 50.1558 155.78 50.5238 155.212C50.8998 154.644 51.0878 153.84 51.0878 152.8C51.0878 151.76 50.8998 150.956 50.5238 150.388C50.1558 149.812 49.6318 149.524 48.9518 149.524C48.2718 149.524 47.7478 149.808 47.3798 150.376C47.0118 150.944 46.8278 151.752 46.8278 152.8C46.8278 153.84 47.0118 154.644 47.3798 155.212Z" fill="#6031A3"/>
<path d="M58.8984 155.968C58.3304 156.76 57.5344 157.156 56.5104 157.156C55.4864 157.156 54.6904 156.76 54.1224 155.968C53.5544 155.176 53.2704 154.12 53.2704 152.8C53.2704 151.48 53.5544 150.424 54.1224 149.632C54.6904 148.84 55.4864 148.444 56.5104 148.444C57.5344 148.444 58.3304 148.84 58.8984 149.632C59.4664 150.424 59.7504 151.48 59.7504 152.8C59.7504 154.12 59.4664 155.176 58.8984 155.968ZM54.9384 155.212C55.3064 155.78 55.8304 156.064 56.5104 156.064C57.1904 156.064 57.7144 155.78 58.0824 155.212C58.4584 154.644 58.6464 153.84 58.6464 152.8C58.6464 151.76 58.4584 150.956 58.0824 150.388C57.7144 149.812 57.1904 149.524 56.5104 149.524C55.8304 149.524 55.3064 149.808 54.9384 150.376C54.5704 150.944 54.3864 151.752 54.3864 152.8C54.3864 153.84 54.5704 154.644 54.9384 155.212Z" fill="#6031A3"/>
<path d="M66.457 155.968C65.889 156.76 65.093 157.156 64.069 157.156C63.045 157.156 62.249 156.76 61.681 155.968C61.113 155.176 60.829 154.12 60.829 152.8C60.829 151.48 61.113 150.424 61.681 149.632C62.249 148.84 63.045 148.444 64.069 148.444C65.093 148.444 65.889 148.84 66.457 149.632C67.025 150.424 67.309 151.48 67.309 152.8C67.309 154.12 67.025 155.176 66.457 155.968ZM62.497 155.212C62.865 155.78 63.389 156.064 64.069 156.064C64.749 156.064 65.273 155.78 65.641 155.212C66.017 154.644 66.205 153.84 66.205 152.8C66.205 151.76 66.017 150.956 65.641 150.388C65.273 149.812 64.749 149.524 64.069 149.524C63.389 149.524 62.865 149.808 62.497 150.376C62.129 150.944 61.945 151.752 61.945 152.8C61.945 153.84 62.129 154.644 62.497 155.212Z" fill="#6031A3"/>
<path d="M29.4321 104V103.088L32.3961 100.064C33.1881 99.2718 33.5841 98.5918 33.5841 98.0238C33.5841 97.5518 33.4401 97.1838 33.1521 96.9198C32.8641 96.6558 32.5121 96.5238 32.0961 96.5238C31.3041 96.5238 30.7281 96.8998 30.3681 97.6518L29.4321 97.0998C29.6961 96.5558 30.0601 96.1438 30.5241 95.8638C30.9961 95.5838 31.5161 95.4438 32.0841 95.4438C32.7881 95.4438 33.4001 95.6758 33.9201 96.1398C34.4401 96.6038 34.7001 97.2278 34.7001 98.0118C34.7001 98.8598 34.2001 99.7838 33.2001 100.784L31.0521 102.92H34.8561V104H29.4321Z" fill="#6031A3"/>
<path d="M41.3791 102.968C40.8111 103.76 40.0151 104.156 38.9911 104.156C37.9671 104.156 37.1711 103.76 36.6031 102.968C36.0351 102.176 35.7511 101.12 35.7511 99.7998C35.7511 98.4798 36.0351 97.4238 36.6031 96.6318C37.1711 95.8398 37.9671 95.4438 38.9911 95.4438C40.0151 95.4438 40.8111 95.8398 41.3791 96.6318C41.9471 97.4238 42.2311 98.4798 42.2311 99.7998C42.2311 101.12 41.9471 102.176 41.3791 102.968ZM37.4191 102.212C37.7871 102.78 38.3111 103.064 38.9911 103.064C39.6711 103.064 40.1951 102.78 40.5631 102.212C40.9391 101.644 41.1271 100.84 41.1271 99.7998C41.1271 98.7598 40.9391 97.9558 40.5631 97.3878C40.1951 96.8118 39.6711 96.5238 38.9911 96.5238C38.3111 96.5238 37.7871 96.8078 37.4191 97.3758C37.0511 97.9438 36.8671 98.7518 36.8671 99.7998C36.8671 100.84 37.0511 101.644 37.4191 102.212Z" fill="#6031A3"/>
<path d="M44.7584 102.764L43.9784 105.68H43.0784L43.5584 102.764H44.7584Z" fill="#6031A3"/>
<path d="M51.2463 102.968C50.6783 103.76 49.8823 104.156 48.8583 104.156C47.8343 104.156 47.0383 103.76 46.4703 102.968C45.9023 102.176 45.6183 101.12 45.6183 99.7998C45.6183 98.4798 45.9023 97.4238 46.4703 96.6318C47.0383 95.8398 47.8343 95.4438 48.8583 95.4438C49.8823 95.4438 50.6783 95.8398 51.2463 96.6318C51.8143 97.4238 52.0983 98.4798 52.0983 99.7998C52.0983 101.12 51.8143 102.176 51.2463 102.968ZM47.2863 102.212C47.6543 102.78 48.1783 103.064 48.8583 103.064C49.5383 103.064 50.0623 102.78 50.4303 102.212C50.8063 101.644 50.9943 100.84 50.9943 99.7998C50.9943 98.7598 50.8063 97.9558 50.4303 97.3878C50.0623 96.8118 49.5383 96.5238 48.8583 96.5238C48.1783 96.5238 47.6543 96.8078 47.2863 97.3758C46.9183 97.9438 46.7343 98.7518 46.7343 99.7998C46.7343 100.84 46.9183 101.644 47.2863 102.212Z" fill="#6031A3"/>
<path d="M58.8048 102.968C58.2368 103.76 57.4408 104.156 56.4168 104.156C55.3928 104.156 54.5968 103.76 54.0288 102.968C53.4608 102.176 53.1768 101.12 53.1768 99.7998C53.1768 98.4798 53.4608 97.4238 54.0288 96.6318C54.5968 95.8398 55.3928 95.4438 56.4168 95.4438C57.4408 95.4438 58.2368 95.8398 58.8048 96.6318C59.3728 97.4238 59.6568 98.4798 59.6568 99.7998C59.6568 101.12 59.3728 102.176 58.8048 102.968ZM54.8448 102.212C55.2128 102.78 55.7368 103.064 56.4168 103.064C57.0968 103.064 57.6208 102.78 57.9888 102.212C58.3648 101.644 58.5528 100.84 58.5528 99.7998C58.5528 98.7598 58.3648 97.9558 57.9888 97.3878C57.6208 96.8118 57.0968 96.5238 56.4168 96.5238C55.7368 96.5238 55.2128 96.8078 54.8448 97.3758C54.4768 97.9438 54.2928 98.7518 54.2928 99.7998C54.2928 100.84 54.4768 101.644 54.8448 102.212Z" fill="#6031A3"/>
<path d="M66.3634 102.968C65.7954 103.76 64.9994 104.156 63.9754 104.156C62.9514 104.156 62.1554 103.76 61.5874 102.968C61.0194 102.176 60.7354 101.12 60.7354 99.7998C60.7354 98.4798 61.0194 97.4238 61.5874 96.6318C62.1554 95.8398 62.9514 95.4438 63.9754 95.4438C64.9994 95.4438 65.7954 95.8398 66.3634 96.6318C66.9314 97.4238 67.2154 98.4798 67.2154 99.7998C67.2154 101.12 66.9314 102.176 66.3634 102.968ZM62.4034 102.212C62.7714 102.78 63.2954 103.064 63.9754 103.064C64.6554 103.064 65.1794 102.78 65.5474 102.212C65.9234 101.644 66.1114 100.84 66.1114 99.7998C66.1114 98.7598 65.9234 97.9558 65.5474 97.3878C65.1794 96.8118 64.6554 96.5238 63.9754 96.5238C63.2954 96.5238 62.7714 96.8078 62.4034 97.3758C62.0354 97.9438 61.8514 98.7518 61.8514 99.7998C61.8514 100.84 62.0354 101.644 62.4034 102.212Z" fill="#6031A3"/>
<path d="M30.0063 49.9998V49.0878L32.9703 46.0638C33.7623 45.2718 34.1583 44.5918 34.1583 44.0238C34.1583 43.5518 34.0143 43.1838 33.7263 42.9198C33.4383 42.6558 33.0863 42.5238 32.6703 42.5238C31.8783 42.5238 31.3023 42.8998 30.9423 43.6518L30.0063 43.0998C30.2703 42.5558 30.6343 42.1438 31.0983 41.8638C31.5703 41.5838 32.0903 41.4438 32.6583 41.4438C33.3623 41.4438 33.9743 41.6758 34.4943 42.1398C35.0143 42.6038 35.2743 43.2278 35.2743 44.0118C35.2743 44.8598 34.7743 45.7838 33.7743 46.7838L31.6263 48.9198H35.4303V49.9998H30.0063Z" fill="#6031A3"/>
<path d="M42.3995 47.3598V48.4038H41.3795V49.9998H40.2635V48.4038H35.9795V47.3598L38.9915 41.5998H40.1915L37.1795 47.3598H40.2635V44.9838H41.3795V47.3598H42.3995Z" fill="#6031A3"/>
<path d="M45.0045 48.7638L44.2245 51.6798H43.3245L43.8045 48.7638H45.0045Z" fill="#6031A3"/>
<path d="M51.4923 48.9678C50.9243 49.7598 50.1283 50.1558 49.1043 50.1558C48.0803 50.1558 47.2843 49.7598 46.7163 48.9678C46.1483 48.1758 45.8643 47.1198 45.8643 45.7998C45.8643 44.4798 46.1483 43.4238 46.7163 42.6318C47.2843 41.8398 48.0803 41.4438 49.1043 41.4438C50.1283 41.4438 50.9243 41.8398 51.4923 42.6318C52.0603 43.4238 52.3443 44.4798 52.3443 45.7998C52.3443 47.1198 52.0603 48.1758 51.4923 48.9678ZM47.5323 48.2118C47.9003 48.7798 48.4243 49.0638 49.1043 49.0638C49.7843 49.0638 50.3083 48.7798 50.6763 48.2118C51.0523 47.6438 51.2403 46.8398 51.2403 45.7998C51.2403 44.7598 51.0523 43.9558 50.6763 43.3878C50.3083 42.8118 49.7843 42.5238 49.1043 42.5238C48.4243 42.5238 47.9003 42.8078 47.5323 43.3758C47.1643 43.9438 46.9803 44.7518 46.9803 45.7998C46.9803 46.8398 47.1643 47.6438 47.5323 48.2118Z" fill="#6031A3"/>
<path d="M59.0509 48.9678C58.4829 49.7598 57.6869 50.1558 56.6629 50.1558C55.6389 50.1558 54.8429 49.7598 54.2749 48.9678C53.7069 48.1758 53.4229 47.1198 53.4229 45.7998C53.4229 44.4798 53.7069 43.4238 54.2749 42.6318C54.8429 41.8398 55.6389 41.4438 56.6629 41.4438C57.6869 41.4438 58.4829 41.8398 59.0509 42.6318C59.6189 43.4238 59.9029 44.4798 59.9029 45.7998C59.9029 47.1198 59.6189 48.1758 59.0509 48.9678ZM55.0909 48.2118C55.4589 48.7798 55.9829 49.0638 56.6629 49.0638C57.3429 49.0638 57.8669 48.7798 58.2349 48.2118C58.6109 47.6438 58.7989 46.8398 58.7989 45.7998C58.7989 44.7598 58.6109 43.9558 58.2349 43.3878C57.8669 42.8118 57.3429 42.5238 56.6629 42.5238C55.9829 42.5238 55.4589 42.8078 55.0909 43.3758C54.7229 43.9438 54.5389 44.7518 54.5389 45.7998C54.5389 46.8398 54.7229 47.6438 55.0909 48.2118Z" fill="#6031A3"/>
<path d="M66.6095 48.9678C66.0415 49.7598 65.2455 50.1558 64.2215 50.1558C63.1975 50.1558 62.4015 49.7598 61.8335 48.9678C61.2655 48.1758 60.9815 47.1198 60.9815 45.7998C60.9815 44.4798 61.2655 43.4238 61.8335 42.6318C62.4015 41.8398 63.1975 41.4438 64.2215 41.4438C65.2455 41.4438 66.0415 41.8398 66.6095 42.6318C67.1775 43.4238 67.4615 44.4798 67.4615 45.7998C67.4615 47.1198 67.1775 48.1758 66.6095 48.9678ZM62.6495 48.2118C63.0175 48.7798 63.5415 49.0638 64.2215 49.0638C64.9015 49.0638 65.4255 48.7798 65.7935 48.2118C66.1695 47.6438 66.3575 46.8398 66.3575 45.7998C66.3575 44.7598 66.1695 43.9558 65.7935 43.3878C65.4255 42.8118 64.9015 42.5238 64.2215 42.5238C63.5415 42.5238 63.0175 42.8078 62.6495 43.3758C62.2815 43.9438 62.0975 44.7518 62.0975 45.7998C62.0975 46.8398 62.2815 47.6438 62.6495 48.2118Z" fill="#6031A3"/>
<path d="M80.8603 384.6H81.8203V393H80.7163V385.8L78.9283 386.328L78.6523 385.368L80.8603 384.6Z" fill="#6031A3"/>
<path d="M88.8817 387.264C88.8817 387.912 88.7097 388.476 88.3657 388.956H88.3777L85.6657 393H84.4057L86.3977 390.06C86.2217 390.076 86.0857 390.084 85.9897 390.084C85.1417 390.084 84.4457 389.824 83.9017 389.304C83.3657 388.776 83.0977 388.096 83.0977 387.264C83.0977 386.432 83.3657 385.756 83.9017 385.236C84.4457 384.708 85.1417 384.444 85.9897 384.444C86.8377 384.444 87.5297 384.708 88.0657 385.236C88.6097 385.756 88.8817 386.432 88.8817 387.264ZM84.6937 385.992C84.3657 386.312 84.2017 386.736 84.2017 387.264C84.2017 387.792 84.3657 388.22 84.6937 388.548C85.0297 388.868 85.4617 389.028 85.9897 389.028C86.5177 389.028 86.9457 388.868 87.2737 388.548C87.6097 388.22 87.7777 387.792 87.7777 387.264C87.7777 386.736 87.6137 386.312 87.2857 385.992C86.9577 385.672 86.5257 385.512 85.9897 385.512C85.4617 385.512 85.0297 385.672 84.6937 385.992Z" fill="#6031A3"/>
<path d="M92.2123 387.504C93.0523 387.504 93.7443 387.768 94.2883 388.296C94.8323 388.816 95.1043 389.492 95.1043 390.324C95.1043 391.156 94.8323 391.836 94.2883 392.364C93.7443 392.892 93.0523 393.156 92.2123 393.156C91.3643 393.156 90.6683 392.892 90.1243 392.364C89.5883 391.836 89.3203 391.156 89.3203 390.324C89.3203 389.676 89.4883 389.116 89.8243 388.644L92.5243 384.6H93.7963L91.8163 387.528C91.9923 387.512 92.1243 387.504 92.2123 387.504ZM90.9163 391.608C91.2523 391.928 91.6843 392.088 92.2123 392.088C92.7403 392.088 93.1683 391.928 93.4963 391.608C93.8323 391.28 94.0003 390.852 94.0003 390.324C94.0003 389.796 93.8323 389.372 93.4963 389.052C93.1683 388.732 92.7403 388.572 92.2123 388.572C91.6763 388.572 91.2443 388.732 90.9163 389.052C90.5883 389.372 90.4243 389.796 90.4243 390.324C90.4243 390.852 90.5883 391.28 90.9163 391.608Z" fill="#6031A3"/>
<path d="M101.609 391.968C101.041 392.76 100.245 393.156 99.2214 393.156C98.1974 393.156 97.4014 392.76 96.8334 391.968C96.2654 391.176 95.9814 390.12 95.9814 388.8C95.9814 387.48 96.2654 386.424 96.8334 385.632C97.4014 384.84 98.1974 384.444 99.2214 384.444C100.245 384.444 101.041 384.84 101.609 385.632C102.177 386.424 102.461 387.48 102.461 388.8C102.461 390.12 102.177 391.176 101.609 391.968ZM97.6494 391.212C98.0174 391.78 98.5414 392.064 99.2214 392.064C99.9014 392.064 100.425 391.78 100.793 391.212C101.169 390.644 101.357 389.84 101.357 388.8C101.357 387.76 101.169 386.956 100.793 386.388C100.425 385.812 99.9014 385.524 99.2214 385.524C98.5414 385.524 98.0174 385.808 97.6494 386.376C97.2814 386.944 97.0974 387.752 97.0974 388.8C97.0974 389.84 97.2814 390.644 97.6494 391.212Z" fill="#6031A3"/>
<path d="M128.021 384.6H128.981V393H127.877V385.8L126.089 386.328L125.812 385.368L128.021 384.6Z" fill="#6031A3"/>
<path d="M136.042 387.264C136.042 387.912 135.87 388.476 135.526 388.956H135.538L132.826 393H131.566L133.558 390.06C133.382 390.076 133.246 390.084 133.15 390.084C132.302 390.084 131.606 389.824 131.062 389.304C130.526 388.776 130.258 388.096 130.258 387.264C130.258 386.432 130.526 385.756 131.062 385.236C131.606 384.708 132.302 384.444 133.15 384.444C133.998 384.444 134.69 384.708 135.226 385.236C135.77 385.756 136.042 386.432 136.042 387.264ZM131.854 385.992C131.526 386.312 131.362 386.736 131.362 387.264C131.362 387.792 131.526 388.22 131.854 388.548C132.19 388.868 132.622 389.028 133.15 389.028C133.678 389.028 134.106 388.868 134.434 388.548C134.77 388.22 134.938 387.792 134.938 387.264C134.938 386.736 134.774 386.312 134.446 385.992C134.118 385.672 133.686 385.512 133.15 385.512C132.622 385.512 132.19 385.672 131.854 385.992Z" fill="#6031A3"/>
<path d="M139.373 387.504C140.213 387.504 140.905 387.768 141.449 388.296C141.993 388.816 142.265 389.492 142.265 390.324C142.265 391.156 141.993 391.836 141.449 392.364C140.905 392.892 140.213 393.156 139.373 393.156C138.524 393.156 137.828 392.892 137.285 392.364C136.748 391.836 136.481 391.156 136.481 390.324C136.481 389.676 136.648 389.116 136.984 388.644L139.684 384.6H140.957L138.976 387.528C139.152 387.512 139.285 387.504 139.373 387.504ZM138.076 391.608C138.413 391.928 138.845 392.088 139.373 392.088C139.901 392.088 140.328 391.928 140.656 391.608C140.993 391.28 141.161 390.852 141.161 390.324C141.161 389.796 140.993 389.372 140.656 389.052C140.328 388.732 139.901 388.572 139.373 388.572C138.837 388.572 138.405 388.732 138.076 389.052C137.748 389.372 137.585 389.796 137.585 390.324C137.585 390.852 137.748 391.28 138.076 391.608Z" fill="#6031A3"/>
<path d="M145.724 387.876C146.516 387.876 147.184 388.112 147.728 388.584C148.28 389.048 148.556 389.692 148.556 390.516C148.556 391.332 148.276 391.976 147.716 392.448C147.156 392.92 146.476 393.156 145.676 393.156C145.036 393.156 144.464 393.004 143.96 392.7C143.456 392.388 143.104 391.94 142.904 391.356L143.852 390.816C143.964 391.224 144.18 391.536 144.5 391.752C144.82 391.96 145.212 392.064 145.676 392.064C146.204 392.064 146.632 391.928 146.96 391.656C147.288 391.384 147.452 391.004 147.452 390.516C147.452 390.028 147.288 389.648 146.96 389.376C146.632 389.096 146.212 388.956 145.7 388.956H143.324L143.636 384.6H148.232V385.644H144.644L144.5 387.876H145.724Z" fill="#6031A3"/>
<path d="M173.552 384.6H174.512V393H173.408V385.8L171.62 386.328L171.344 385.368L173.552 384.6Z" fill="#6031A3"/>
<path d="M181.573 387.264C181.573 387.912 181.401 388.476 181.057 388.956H181.069L178.357 393H177.097L179.089 390.06C178.913 390.076 178.777 390.084 178.681 390.084C177.833 390.084 177.137 389.824 176.593 389.304C176.057 388.776 175.789 388.096 175.789 387.264C175.789 386.432 176.057 385.756 176.593 385.236C177.137 384.708 177.833 384.444 178.681 384.444C179.529 384.444 180.221 384.708 180.757 385.236C181.301 385.756 181.573 386.432 181.573 387.264ZM177.385 385.992C177.057 386.312 176.893 386.736 176.893 387.264C176.893 387.792 177.057 388.22 177.385 388.548C177.721 388.868 178.153 389.028 178.681 389.028C179.209 389.028 179.637 388.868 179.965 388.548C180.301 388.22 180.469 387.792 180.469 387.264C180.469 386.736 180.305 386.312 179.977 385.992C179.649 385.672 179.217 385.512 178.681 385.512C178.153 385.512 177.721 385.672 177.385 385.992Z" fill="#6031A3"/>
<path d="M182.009 384.6H187.253V385.596L184.193 393H183.029L186.065 385.656H182.009V384.6Z" fill="#6031A3"/>
<path d="M193.609 391.968C193.041 392.76 192.245 393.156 191.221 393.156C190.197 393.156 189.401 392.76 188.833 391.968C188.265 391.176 187.981 390.12 187.981 388.8C187.981 387.48 188.265 386.424 188.833 385.632C189.401 384.84 190.197 384.444 191.221 384.444C192.245 384.444 193.041 384.84 193.609 385.632C194.177 386.424 194.461 387.48 194.461 388.8C194.461 390.12 194.177 391.176 193.609 391.968ZM189.649 391.212C190.017 391.78 190.541 392.064 191.221 392.064C191.901 392.064 192.425 391.78 192.793 391.212C193.169 390.644 193.357 389.84 193.357 388.8C193.357 387.76 193.169 386.956 192.793 386.388C192.425 385.812 191.901 385.524 191.221 385.524C190.541 385.524 190.017 385.808 189.649 386.376C189.281 386.944 189.097 387.752 189.097 388.8C189.097 389.84 189.281 390.644 189.649 391.212Z" fill="#6031A3"/>
<path d="M219.724 384.6H220.684V393H219.58V385.8L217.792 386.328L217.516 385.368L219.724 384.6Z" fill="#6031A3"/>
<path d="M227.745 387.264C227.745 387.912 227.573 388.476 227.229 388.956H227.241L224.529 393H223.269L225.261 390.06C225.085 390.076 224.949 390.084 224.853 390.084C224.005 390.084 223.309 389.824 222.765 389.304C222.229 388.776 221.961 388.096 221.961 387.264C221.961 386.432 222.229 385.756 222.765 385.236C223.309 384.708 224.005 384.444 224.853 384.444C225.701 384.444 226.393 384.708 226.929 385.236C227.473 385.756 227.745 386.432 227.745 387.264ZM223.557 385.992C223.229 386.312 223.065 386.736 223.065 387.264C223.065 387.792 223.229 388.22 223.557 388.548C223.893 388.868 224.325 389.028 224.853 389.028C225.381 389.028 225.809 388.868 226.137 388.548C226.473 388.22 226.641 387.792 226.641 387.264C226.641 386.736 226.477 386.312 226.149 385.992C225.821 385.672 225.389 385.512 224.853 385.512C224.325 385.512 223.893 385.672 223.557 385.992Z" fill="#6031A3"/>
<path d="M228.181 384.6H233.425V385.596L230.365 393H229.201L232.237 385.656H228.181V384.6Z" fill="#6031A3"/>
<path d="M236.724 387.876C237.516 387.876 238.184 388.112 238.728 388.584C239.28 389.048 239.556 389.692 239.556 390.516C239.556 391.332 239.276 391.976 238.716 392.448C238.156 392.92 237.476 393.156 236.676 393.156C236.036 393.156 235.464 393.004 234.96 392.7C234.456 392.388 234.104 391.94 233.904 391.356L234.852 390.816C234.964 391.224 235.18 391.536 235.5 391.752C235.82 391.96 236.212 392.064 236.676 392.064C237.204 392.064 237.632 391.928 237.96 391.656C238.288 391.384 238.452 391.004 238.452 390.516C238.452 390.028 238.288 389.648 237.96 389.376C237.632 389.096 237.212 388.956 236.7 388.956H234.324L234.636 384.6H239.232V385.644H235.644L235.5 387.876H236.724Z" fill="#6031A3"/>
<path d="M264.427 384.6H265.387V393H264.283V385.8L262.495 386.328L262.219 385.368L264.427 384.6Z" fill="#6031A3"/>
<path d="M272.448 387.264C272.448 387.912 272.276 388.476 271.932 388.956H271.944L269.232 393H267.972L269.964 390.06C269.788 390.076 269.652 390.084 269.556 390.084C268.708 390.084 268.012 389.824 267.468 389.304C266.932 388.776 266.664 388.096 266.664 387.264C266.664 386.432 266.932 385.756 267.468 385.236C268.012 384.708 268.708 384.444 269.556 384.444C270.404 384.444 271.096 384.708 271.632 385.236C272.176 385.756 272.448 386.432 272.448 387.264ZM268.26 385.992C267.932 386.312 267.768 386.736 267.768 387.264C267.768 387.792 267.932 388.22 268.26 388.548C268.596 388.868 269.028 389.028 269.556 389.028C270.084 389.028 270.512 388.868 270.84 388.548C271.176 388.22 271.344 387.792 271.344 387.264C271.344 386.736 271.18 386.312 270.852 385.992C270.524 385.672 270.092 385.512 269.556 385.512C269.028 385.512 268.596 385.672 268.26 385.992Z" fill="#6031A3"/>
<path d="M277.681 388.656C278.089 388.864 278.409 389.144 278.641 389.496C278.873 389.848 278.989 390.248 278.989 390.696C278.989 391.464 278.721 392.068 278.185 392.508C277.649 392.94 276.957 393.156 276.109 393.156C275.269 393.156 274.581 392.94 274.045 392.508C273.509 392.068 273.241 391.464 273.241 390.696C273.241 390.248 273.357 389.848 273.589 389.496C273.821 389.144 274.141 388.864 274.549 388.656C273.861 388.224 273.517 387.612 273.517 386.82C273.517 386.06 273.769 385.476 274.273 385.068C274.785 384.652 275.397 384.444 276.109 384.444C276.829 384.444 277.441 384.652 277.945 385.068C278.457 385.476 278.713 386.06 278.713 386.82C278.713 387.612 278.369 388.224 277.681 388.656ZM276.109 385.512C275.685 385.512 275.329 385.624 275.041 385.848C274.761 386.072 274.621 386.404 274.621 386.844C274.621 387.268 274.765 387.6 275.053 387.84C275.341 388.072 275.693 388.188 276.109 388.188C276.525 388.188 276.877 388.072 277.165 387.84C277.453 387.6 277.597 387.268 277.597 386.844C277.597 386.404 277.457 386.072 277.177 385.848C276.897 385.624 276.541 385.512 276.109 385.512ZM276.109 392.088C276.645 392.088 277.073 391.964 277.393 391.716C277.721 391.46 277.885 391.096 277.885 390.624C277.885 390.16 277.721 389.804 277.393 389.556C277.073 389.3 276.645 389.172 276.109 389.172C275.581 389.172 275.153 389.3 274.825 389.556C274.505 389.804 274.345 390.16 274.345 390.624C274.345 391.096 274.505 391.46 274.825 391.716C275.153 391.964 275.581 392.088 276.109 392.088Z" fill="#6031A3"/>
<path d="M285.609 391.968C285.041 392.76 284.245 393.156 283.221 393.156C282.197 393.156 281.401 392.76 280.833 391.968C280.265 391.176 279.981 390.12 279.981 388.8C279.981 387.48 280.265 386.424 280.833 385.632C281.401 384.84 282.197 384.444 283.221 384.444C284.245 384.444 285.041 384.84 285.609 385.632C286.177 386.424 286.461 387.48 286.461 388.8C286.461 390.12 286.177 391.176 285.609 391.968ZM281.649 391.212C282.017 391.78 282.541 392.064 283.221 392.064C283.901 392.064 284.425 391.78 284.793 391.212C285.169 390.644 285.357 389.84 285.357 388.8C285.357 387.76 285.169 386.956 284.793 386.388C284.425 385.812 283.901 385.524 283.221 385.524C282.541 385.524 282.017 385.808 281.649 386.376C281.281 386.944 281.097 387.752 281.097 388.8C281.097 389.84 281.281 390.644 281.649 391.212Z" fill="#6031A3"/>
<path d="M311.528 384.6H312.488V393H311.384V385.8L309.596 386.328L309.32 385.368L311.528 384.6Z" fill="#6031A3"/>
<path d="M319.55 387.264C319.55 387.912 319.378 388.476 319.034 388.956H319.046L316.334 393H315.074L317.066 390.06C316.89 390.076 316.754 390.084 316.658 390.084C315.81 390.084 315.114 389.824 314.57 389.304C314.034 388.776 313.766 388.096 313.766 387.264C313.766 386.432 314.034 385.756 314.57 385.236C315.114 384.708 315.81 384.444 316.658 384.444C317.506 384.444 318.198 384.708 318.734 385.236C319.278 385.756 319.55 386.432 319.55 387.264ZM315.362 385.992C315.034 386.312 314.87 386.736 314.87 387.264C314.87 387.792 315.034 388.22 315.362 388.548C315.698 388.868 316.13 389.028 316.658 389.028C317.186 389.028 317.614 388.868 317.942 388.548C318.278 388.22 318.446 387.792 318.446 387.264C318.446 386.736 318.282 386.312 317.954 385.992C317.626 385.672 317.194 385.512 316.658 385.512C316.13 385.512 315.698 385.672 315.362 385.992Z" fill="#6031A3"/>
<path d="M324.783 388.656C325.191 388.864 325.511 389.144 325.743 389.496C325.975 389.848 326.091 390.248 326.091 390.696C326.091 391.464 325.823 392.068 325.287 392.508C324.751 392.94 324.059 393.156 323.211 393.156C322.371 393.156 321.683 392.94 321.147 392.508C320.611 392.068 320.343 391.464 320.343 390.696C320.343 390.248 320.459 389.848 320.691 389.496C320.923 389.144 321.243 388.864 321.651 388.656C320.963 388.224 320.619 387.612 320.619 386.82C320.619 386.06 320.871 385.476 321.375 385.068C321.887 384.652 322.499 384.444 323.211 384.444C323.931 384.444 324.543 384.652 325.047 385.068C325.559 385.476 325.815 386.06 325.815 386.82C325.815 387.612 325.471 388.224 324.783 388.656ZM323.211 385.512C322.787 385.512 322.431 385.624 322.143 385.848C321.863 386.072 321.723 386.404 321.723 386.844C321.723 387.268 321.867 387.6 322.155 387.84C322.443 388.072 322.795 388.188 323.211 388.188C323.627 388.188 323.979 388.072 324.267 387.84C324.555 387.6 324.699 387.268 324.699 386.844C324.699 386.404 324.559 386.072 324.279 385.848C323.999 385.624 323.643 385.512 323.211 385.512ZM323.211 392.088C323.747 392.088 324.175 391.964 324.495 391.716C324.823 391.46 324.987 391.096 324.987 390.624C324.987 390.16 324.823 389.804 324.495 389.556C324.175 389.3 323.747 389.172 323.211 389.172C322.683 389.172 322.255 389.3 321.927 389.556C321.607 389.804 321.447 390.16 321.447 390.624C321.447 391.096 321.607 391.46 321.927 391.716C322.255 391.964 322.683 392.088 323.211 392.088Z" fill="#6031A3"/>
<path d="M329.724 387.876C330.516 387.876 331.184 388.112 331.728 388.584C332.28 389.048 332.556 389.692 332.556 390.516C332.556 391.332 332.276 391.976 331.716 392.448C331.156 392.92 330.476 393.156 329.676 393.156C329.036 393.156 328.464 393.004 327.96 392.7C327.456 392.388 327.104 391.94 326.904 391.356L327.852 390.816C327.964 391.224 328.18 391.536 328.5 391.752C328.82 391.96 329.212 392.064 329.676 392.064C330.204 392.064 330.632 391.928 330.96 391.656C331.288 391.384 331.452 391.004 331.452 390.516C331.452 390.028 331.288 389.648 330.96 389.376C330.632 389.096 330.212 388.956 329.7 388.956H327.324L327.636 384.6H332.232V385.644H328.644L328.5 387.876H329.724Z" fill="#6031A3"/>
<path d="M357.626 384.6H358.586V393H357.482V385.8L355.694 386.328L355.418 385.368L357.626 384.6Z" fill="#6031A3"/>
<path d="M365.647 387.264C365.647 387.912 365.475 388.476 365.131 388.956H365.143L362.431 393H361.171L363.163 390.06C362.987 390.076 362.851 390.084 362.755 390.084C361.907 390.084 361.211 389.824 360.667 389.304C360.131 388.776 359.863 388.096 359.863 387.264C359.863 386.432 360.131 385.756 360.667 385.236C361.211 384.708 361.907 384.444 362.755 384.444C363.603 384.444 364.295 384.708 364.831 385.236C365.375 385.756 365.647 386.432 365.647 387.264ZM361.459 385.992C361.131 386.312 360.967 386.736 360.967 387.264C360.967 387.792 361.131 388.22 361.459 388.548C361.795 388.868 362.227 389.028 362.755 389.028C363.283 389.028 363.711 388.868 364.039 388.548C364.375 388.22 364.543 387.792 364.543 387.264C364.543 386.736 364.379 386.312 364.051 385.992C363.723 385.672 363.291 385.512 362.755 385.512C362.227 385.512 361.795 385.672 361.459 385.992Z" fill="#6031A3"/>
<path d="M372.104 387.264C372.104 387.912 371.932 388.476 371.588 388.956H371.6L368.888 393H367.628L369.62 390.06C369.444 390.076 369.308 390.084 369.212 390.084C368.364 390.084 367.668 389.824 367.124 389.304C366.588 388.776 366.32 388.096 366.32 387.264C366.32 386.432 366.588 385.756 367.124 385.236C367.668 384.708 368.364 384.444 369.212 384.444C370.06 384.444 370.752 384.708 371.288 385.236C371.832 385.756 372.104 386.432 372.104 387.264ZM367.916 385.992C367.588 386.312 367.424 386.736 367.424 387.264C367.424 387.792 367.588 388.22 367.916 388.548C368.252 388.868 368.684 389.028 369.212 389.028C369.74 389.028 370.168 388.868 370.496 388.548C370.832 388.22 371 387.792 371 387.264C371 386.736 370.836 386.312 370.508 385.992C370.18 385.672 369.748 385.512 369.212 385.512C368.684 385.512 368.252 385.672 367.916 385.992Z" fill="#6031A3"/>
<path d="M378.609 391.968C378.041 392.76 377.245 393.156 376.221 393.156C375.197 393.156 374.401 392.76 373.833 391.968C373.265 391.176 372.981 390.12 372.981 388.8C372.981 387.48 373.265 386.424 373.833 385.632C374.401 384.84 375.197 384.444 376.221 384.444C377.245 384.444 378.041 384.84 378.609 385.632C379.177 386.424 379.461 387.48 379.461 388.8C379.461 390.12 379.177 391.176 378.609 391.968ZM374.649 391.212C375.017 391.78 375.541 392.064 376.221 392.064C376.901 392.064 377.425 391.78 377.793 391.212C378.169 390.644 378.357 389.84 378.357 388.8C378.357 387.76 378.169 386.956 377.793 386.388C377.425 385.812 376.901 385.524 376.221 385.524C375.541 385.524 375.017 385.808 374.649 386.376C374.281 386.944 374.097 387.752 374.097 388.8C374.097 389.84 374.281 390.644 374.649 391.212Z" fill="#6031A3"/>
<path d="M404.903 384.6H405.863V393H404.759V385.8L402.971 386.328L402.695 385.368L404.903 384.6Z" fill="#6031A3"/>
<path d="M412.925 387.264C412.925 387.912 412.753 388.476 412.409 388.956H412.421L409.709 393H408.449L410.441 390.06C410.265 390.076 410.129 390.084 410.033 390.084C409.185 390.084 408.489 389.824 407.945 389.304C407.409 388.776 407.141 388.096 407.141 387.264C407.141 386.432 407.409 385.756 407.945 385.236C408.489 384.708 409.185 384.444 410.033 384.444C410.881 384.444 411.573 384.708 412.109 385.236C412.653 385.756 412.925 386.432 412.925 387.264ZM408.737 385.992C408.409 386.312 408.245 386.736 408.245 387.264C408.245 387.792 408.409 388.22 408.737 388.548C409.073 388.868 409.505 389.028 410.033 389.028C410.561 389.028 410.989 388.868 411.317 388.548C411.653 388.22 411.821 387.792 411.821 387.264C411.821 386.736 411.657 386.312 411.329 385.992C411.001 385.672 410.569 385.512 410.033 385.512C409.505 385.512 409.073 385.672 408.737 385.992Z" fill="#6031A3"/>
<path d="M419.382 387.264C419.382 387.912 419.21 388.476 418.866 388.956H418.878L416.166 393H414.906L416.898 390.06C416.722 390.076 416.586 390.084 416.49 390.084C415.642 390.084 414.946 389.824 414.402 389.304C413.866 388.776 413.598 388.096 413.598 387.264C413.598 386.432 413.866 385.756 414.402 385.236C414.946 384.708 415.642 384.444 416.49 384.444C417.338 384.444 418.03 384.708 418.566 385.236C419.11 385.756 419.382 386.432 419.382 387.264ZM415.194 385.992C414.866 386.312 414.702 386.736 414.702 387.264C414.702 387.792 414.866 388.22 415.194 388.548C415.53 388.868 415.962 389.028 416.49 389.028C417.018 389.028 417.446 388.868 417.774 388.548C418.11 388.22 418.278 387.792 418.278 387.264C418.278 386.736 418.114 386.312 417.786 385.992C417.458 385.672 417.026 385.512 416.49 385.512C415.962 385.512 415.53 385.672 415.194 385.992Z" fill="#6031A3"/>
<path d="M422.724 387.876C423.516 387.876 424.184 388.112 424.728 388.584C425.28 389.048 425.556 389.692 425.556 390.516C425.556 391.332 425.276 391.976 424.716 392.448C424.156 392.92 423.476 393.156 422.676 393.156C422.036 393.156 421.464 393.004 420.96 392.7C420.456 392.388 420.104 391.94 419.904 391.356L420.852 390.816C420.964 391.224 421.18 391.536 421.5 391.752C421.82 391.96 422.212 392.064 422.676 392.064C423.204 392.064 423.632 391.928 423.96 391.656C424.288 391.384 424.452 391.004 424.452 390.516C424.452 390.028 424.288 389.648 423.96 389.376C423.632 389.096 423.212 388.956 422.7 388.956H420.324L420.636 384.6H425.232V385.644H421.644L421.5 387.876H422.724Z" fill="#6031A3"/>
<path d="M448.545 393V392.088L451.509 389.064C452.301 388.272 452.697 387.592 452.697 387.024C452.697 386.552 452.553 386.184 452.265 385.92C451.977 385.656 451.625 385.524 451.209 385.524C450.417 385.524 449.841 385.9 449.481 386.652L448.545 386.1C448.809 385.556 449.173 385.144 449.637 384.864C450.109 384.584 450.629 384.444 451.197 384.444C451.901 384.444 452.513 384.676 453.033 385.14C453.553 385.604 453.813 386.228 453.813 387.012C453.813 387.86 453.313 388.784 452.313 389.784L450.165 391.92H453.969V393H448.545Z" fill="#6031A3"/>
<path d="M460.492 391.968C459.924 392.76 459.128 393.156 458.104 393.156C457.08 393.156 456.284 392.76 455.716 391.968C455.148 391.176 454.864 390.12 454.864 388.8C454.864 387.48 455.148 386.424 455.716 385.632C456.284 384.84 457.08 384.444 458.104 384.444C459.128 384.444 459.924 384.84 460.492 385.632C461.06 386.424 461.344 387.48 461.344 388.8C461.344 390.12 461.06 391.176 460.492 391.968ZM456.532 391.212C456.9 391.78 457.424 392.064 458.104 392.064C458.784 392.064 459.308 391.78 459.676 391.212C460.052 390.644 460.24 389.84 460.24 388.8C460.24 387.76 460.052 386.956 459.676 386.388C459.308 385.812 458.784 385.524 458.104 385.524C457.424 385.524 456.9 385.808 456.532 386.376C456.164 386.944 455.98 387.752 455.98 388.8C455.98 389.84 456.164 390.644 456.532 391.212Z" fill="#6031A3"/>
<path d="M468.051 391.968C467.483 392.76 466.687 393.156 465.663 393.156C464.639 393.156 463.843 392.76 463.275 391.968C462.707 391.176 462.423 390.12 462.423 388.8C462.423 387.48 462.707 386.424 463.275 385.632C463.843 384.84 464.639 384.444 465.663 384.444C466.687 384.444 467.483 384.84 468.051 385.632C468.619 386.424 468.903 387.48 468.903 388.8C468.903 390.12 468.619 391.176 468.051 391.968ZM464.091 391.212C464.459 391.78 464.983 392.064 465.663 392.064C466.343 392.064 466.867 391.78 467.235 391.212C467.611 390.644 467.799 389.84 467.799 388.8C467.799 387.76 467.611 386.956 467.235 386.388C466.867 385.812 466.343 385.524 465.663 385.524C464.983 385.524 464.459 385.808 464.091 386.376C463.723 386.944 463.539 387.752 463.539 388.8C463.539 389.84 463.723 390.644 464.091 391.212Z" fill="#6031A3"/>
<path d="M475.61 391.968C475.042 392.76 474.246 393.156 473.222 393.156C472.198 393.156 471.402 392.76 470.834 391.968C470.266 391.176 469.982 390.12 469.982 388.8C469.982 387.48 470.266 386.424 470.834 385.632C471.402 384.84 472.198 384.444 473.222 384.444C474.246 384.444 475.042 384.84 475.61 385.632C476.178 386.424 476.462 387.48 476.462 388.8C476.462 390.12 476.178 391.176 475.61 391.968ZM471.65 391.212C472.018 391.78 472.542 392.064 473.222 392.064C473.902 392.064 474.426 391.78 474.794 391.212C475.17 390.644 475.358 389.84 475.358 388.8C475.358 387.76 475.17 386.956 474.794 386.388C474.426 385.812 473.902 385.524 473.222 385.524C472.542 385.524 472.018 385.808 471.65 386.376C471.282 386.944 471.098 387.752 471.098 388.8C471.098 389.84 471.282 390.644 471.65 391.212Z" fill="#6031A3"/>
<path d="M499.624 393V392.088L502.588 389.064C503.38 388.272 503.776 387.592 503.776 387.024C503.776 386.552 503.632 386.184 503.344 385.92C503.056 385.656 502.704 385.524 502.288 385.524C501.496 385.524 500.92 385.9 500.56 386.652L499.624 386.1C499.888 385.556 500.252 385.144 500.716 384.864C501.188 384.584 501.708 384.444 502.276 384.444C502.98 384.444 503.592 384.676 504.112 385.14C504.632 385.604 504.892 386.228 504.892 387.012C504.892 387.86 504.392 388.784 503.392 389.784L501.244 391.92H505.048V393H499.624Z" fill="#6031A3"/>
<path d="M511.57 391.968C511.002 392.76 510.206 393.156 509.182 393.156C508.158 393.156 507.362 392.76 506.794 391.968C506.226 391.176 505.942 390.12 505.942 388.8C505.942 387.48 506.226 386.424 506.794 385.632C507.362 384.84 508.158 384.444 509.182 384.444C510.206 384.444 511.002 384.84 511.57 385.632C512.138 386.424 512.422 387.48 512.422 388.8C512.422 390.12 512.138 391.176 511.57 391.968ZM507.61 391.212C507.978 391.78 508.502 392.064 509.182 392.064C509.862 392.064 510.386 391.78 510.754 391.212C511.13 390.644 511.318 389.84 511.318 388.8C511.318 387.76 511.13 386.956 510.754 386.388C510.386 385.812 509.862 385.524 509.182 385.524C508.502 385.524 507.978 385.808 507.61 386.376C507.242 386.944 507.058 387.752 507.058 388.8C507.058 389.84 507.242 390.644 507.61 391.212Z" fill="#6031A3"/>
<path d="M519.129 391.968C518.561 392.76 517.765 393.156 516.741 393.156C515.717 393.156 514.921 392.76 514.353 391.968C513.785 391.176 513.501 390.12 513.501 388.8C513.501 387.48 513.785 386.424 514.353 385.632C514.921 384.84 515.717 384.444 516.741 384.444C517.765 384.444 518.561 384.84 519.129 385.632C519.697 386.424 519.981 387.48 519.981 388.8C519.981 390.12 519.697 391.176 519.129 391.968ZM515.169 391.212C515.537 391.78 516.061 392.064 516.741 392.064C517.421 392.064 517.945 391.78 518.313 391.212C518.689 390.644 518.877 389.84 518.877 388.8C518.877 387.76 518.689 386.956 518.313 386.388C517.945 385.812 517.421 385.524 516.741 385.524C516.061 385.524 515.537 385.808 515.169 386.376C514.801 386.944 514.617 387.752 514.617 388.8C514.617 389.84 514.801 390.644 515.169 391.212Z" fill="#6031A3"/>
<path d="M523.725 387.876C524.517 387.876 525.185 388.112 525.729 388.584C526.281 389.048 526.557 389.692 526.557 390.516C526.557 391.332 526.277 391.976 525.717 392.448C525.157 392.92 524.477 393.156 523.677 393.156C523.037 393.156 522.465 393.004 521.961 392.7C521.457 392.388 521.105 391.94 520.905 391.356L521.853 390.816C521.965 391.224 522.181 391.536 522.501 391.752C522.821 391.96 523.213 392.064 523.677 392.064C524.205 392.064 524.633 391.928 524.961 391.656C525.289 391.384 525.453 391.004 525.453 390.516C525.453 390.028 525.289 389.648 524.961 389.376C524.633 389.096 524.213 388.956 523.701 388.956H521.325L521.637 384.6H526.233V385.644H522.645L522.501 387.876H523.725Z" fill="#6031A3"/>
<path d="M550.061 393V392.088L553.025 389.064C553.817 388.272 554.213 387.592 554.213 387.024C554.213 386.552 554.069 386.184 553.781 385.92C553.493 385.656 553.141 385.524 552.725 385.524C551.933 385.524 551.357 385.9 550.997 386.652L550.061 386.1C550.325 385.556 550.689 385.144 551.153 384.864C551.625 384.584 552.145 384.444 552.713 384.444C553.417 384.444 554.029 384.676 554.549 385.14C555.069 385.604 555.329 386.228 555.329 387.012C555.329 387.86 554.829 388.784 553.829 389.784L551.681 391.92H555.485V393H550.061Z" fill="#6031A3"/>
<path d="M562.008 391.968C561.44 392.76 560.644 393.156 559.62 393.156C558.596 393.156 557.8 392.76 557.232 391.968C556.664 391.176 556.38 390.12 556.38 388.8C556.38 387.48 556.664 386.424 557.232 385.632C557.8 384.84 558.596 384.444 559.62 384.444C560.644 384.444 561.44 384.84 562.008 385.632C562.576 386.424 562.86 387.48 562.86 388.8C562.86 390.12 562.576 391.176 562.008 391.968ZM558.048 391.212C558.416 391.78 558.94 392.064 559.62 392.064C560.3 392.064 560.824 391.78 561.192 391.212C561.568 390.644 561.756 389.84 561.756 388.8C561.756 387.76 561.568 386.956 561.192 386.388C560.824 385.812 560.3 385.524 559.62 385.524C558.94 385.524 558.416 385.808 558.048 386.376C557.68 386.944 557.496 387.752 557.496 388.8C557.496 389.84 557.68 390.644 558.048 391.212Z" fill="#6031A3"/>
<path d="M565.54 384.6H566.5V393H565.396V385.8L563.608 386.328L563.332 385.368L565.54 384.6Z" fill="#6031A3"/>
<path d="M573.61 391.968C573.042 392.76 572.246 393.156 571.222 393.156C570.198 393.156 569.402 392.76 568.834 391.968C568.266 391.176 567.982 390.12 567.982 388.8C567.982 387.48 568.266 386.424 568.834 385.632C569.402 384.84 570.198 384.444 571.222 384.444C572.246 384.444 573.042 384.84 573.61 385.632C574.178 386.424 574.462 387.48 574.462 388.8C574.462 390.12 574.178 391.176 573.61 391.968ZM569.65 391.212C570.018 391.78 570.542 392.064 571.222 392.064C571.902 392.064 572.426 391.78 572.794 391.212C573.17 390.644 573.358 389.84 573.358 388.8C573.358 387.76 573.17 386.956 572.794 386.388C572.426 385.812 571.902 385.524 571.222 385.524C570.542 385.524 570.018 385.808 569.65 386.376C569.282 386.944 569.098 387.752 569.098 388.8C569.098 389.84 569.282 390.644 569.65 391.212Z" fill="#6031A3"/>
<path d="M598.104 393V392.088L601.068 389.064C601.86 388.272 602.256 387.592 602.256 387.024C602.256 386.552 602.112 386.184 601.824 385.92C601.536 385.656 601.184 385.524 600.768 385.524C599.976 385.524 599.4 385.9 599.04 386.652L598.104 386.1C598.368 385.556 598.732 385.144 599.196 384.864C599.668 384.584 600.188 384.444 600.756 384.444C601.46 384.444 602.072 384.676 602.592 385.14C603.112 385.604 603.372 386.228 603.372 387.012C603.372 387.86 602.872 388.784 601.872 389.784L599.724 391.92H603.528V393H598.104Z" fill="#6031A3"/>
<path d="M610.051 391.968C609.483 392.76 608.687 393.156 607.663 393.156C606.639 393.156 605.843 392.76 605.275 391.968C604.707 391.176 604.423 390.12 604.423 388.8C604.423 387.48 604.707 386.424 605.275 385.632C605.843 384.84 606.639 384.444 607.663 384.444C608.687 384.444 609.483 384.84 610.051 385.632C610.619 386.424 610.903 387.48 610.903 388.8C610.903 390.12 610.619 391.176 610.051 391.968ZM606.091 391.212C606.459 391.78 606.983 392.064 607.663 392.064C608.343 392.064 608.867 391.78 609.235 391.212C609.611 390.644 609.799 389.84 609.799 388.8C609.799 387.76 609.611 386.956 609.235 386.388C608.867 385.812 608.343 385.524 607.663 385.524C606.983 385.524 606.459 385.808 606.091 386.376C605.723 386.944 605.539 387.752 605.539 388.8C605.539 389.84 605.723 390.644 606.091 391.212Z" fill="#6031A3"/>
<path d="M613.583 384.6H614.543V393H613.439V385.8L611.651 386.328L611.375 385.368L613.583 384.6Z" fill="#6031A3"/>
<path d="M618.725 387.876C619.517 387.876 620.185 388.112 620.729 388.584C621.281 389.048 621.557 389.692 621.557 390.516C621.557 391.332 621.277 391.976 620.717 392.448C620.157 392.92 619.477 393.156 618.677 393.156C618.037 393.156 617.465 393.004 616.961 392.7C616.457 392.388 616.105 391.94 615.905 391.356L616.853 390.816C616.965 391.224 617.181 391.536 617.501 391.752C617.821 391.96 618.213 392.064 618.677 392.064C619.205 392.064 619.633 391.928 619.961 391.656C620.289 391.384 620.453 391.004 620.453 390.516C620.453 390.028 620.289 389.648 619.961 389.376C619.633 389.096 619.213 388.956 618.701 388.956H616.325L616.637 384.6H621.233V385.644H617.645L617.501 387.876H618.725Z" fill="#6031A3"/>
<path d="M645.045 393V392.088L648.009 389.064C648.801 388.272 649.197 387.592 649.197 387.024C649.197 386.552 649.053 386.184 648.765 385.92C648.477 385.656 648.125 385.524 647.709 385.524C646.917 385.524 646.341 385.9 645.981 386.652L645.045 386.1C645.309 385.556 645.673 385.144 646.137 384.864C646.609 384.584 647.129 384.444 647.697 384.444C648.401 384.444 649.013 384.676 649.533 385.14C650.053 385.604 650.313 386.228 650.313 387.012C650.313 387.86 649.813 388.784 648.813 389.784L646.665 391.92H650.469V393H645.045Z" fill="#6031A3"/>
<path d="M656.992 391.968C656.424 392.76 655.628 393.156 654.604 393.156C653.58 393.156 652.784 392.76 652.216 391.968C651.648 391.176 651.364 390.12 651.364 388.8C651.364 387.48 651.648 386.424 652.216 385.632C652.784 384.84 653.58 384.444 654.604 384.444C655.628 384.444 656.424 384.84 656.992 385.632C657.56 386.424 657.844 387.48 657.844 388.8C657.844 390.12 657.56 391.176 656.992 391.968ZM653.032 391.212C653.4 391.78 653.924 392.064 654.604 392.064C655.284 392.064 655.808 391.78 656.176 391.212C656.552 390.644 656.74 389.84 656.74 388.8C656.74 387.76 656.552 386.956 656.176 386.388C655.808 385.812 655.284 385.524 654.604 385.524C653.924 385.524 653.4 385.808 653.032 386.376C652.664 386.944 652.48 387.752 652.48 388.8C652.48 389.84 652.664 390.644 653.032 391.212Z" fill="#6031A3"/>
<path d="M658.663 393V392.088L661.627 389.064C662.419 388.272 662.815 387.592 662.815 387.024C662.815 386.552 662.671 386.184 662.383 385.92C662.095 385.656 661.743 385.524 661.327 385.524C660.535 385.524 659.959 385.9 659.599 386.652L658.663 386.1C658.927 385.556 659.291 385.144 659.755 384.864C660.227 384.584 660.747 384.444 661.315 384.444C662.019 384.444 662.631 384.676 663.151 385.14C663.671 385.604 663.931 386.228 663.931 387.012C663.931 387.86 663.431 388.784 662.431 389.784L660.283 391.92H664.087V393H658.663Z" fill="#6031A3"/>
<path d="M670.61 391.968C670.042 392.76 669.246 393.156 668.222 393.156C667.198 393.156 666.402 392.76 665.834 391.968C665.266 391.176 664.982 390.12 664.982 388.8C664.982 387.48 665.266 386.424 665.834 385.632C666.402 384.84 667.198 384.444 668.222 384.444C669.246 384.444 670.042 384.84 670.61 385.632C671.178 386.424 671.462 387.48 671.462 388.8C671.462 390.12 671.178 391.176 670.61 391.968ZM666.65 391.212C667.018 391.78 667.542 392.064 668.222 392.064C668.902 392.064 669.426 391.78 669.794 391.212C670.17 390.644 670.358 389.84 670.358 388.8C670.358 387.76 670.17 386.956 669.794 386.388C669.426 385.812 668.902 385.524 668.222 385.524C667.542 385.524 667.018 385.808 666.65 386.376C666.282 386.944 666.098 387.752 666.098 388.8C666.098 389.84 666.282 390.644 666.65 391.212Z" fill="#6031A3"/>
<g filter="url(#filter1_d_211_268)">
<path fill-rule="evenodd" clip-rule="evenodd" d="M668.649 91.2203L664.198 102.408L655.671 130.981L653.528 163.291L644.883 175.964L641.506 179.737H639.306L631.994 184.986L611.683 206.479L606.386 210.029L604.238 213.628L600.956 215.461L586.045 227.952L573.302 240.406L570.073 247.62L561.272 253.149H550.725L547.621 258.349L541.209 263.721L538.969 267.473H534.546L513.172 280.007H507.823L501.41 283.588H497.157L486.567 290.685L479.125 294.248L471.557 301.493H462.897L453.388 305.033L442.71 310.4L434.052 314.027H426.584L419.103 317.608H380.574L365.649 321.18L354.05 322.947L350.815 326.561H337.948L333.721 330.102L302.612 337.291L302.608 337.292L286.556 340.878L233.099 348.043L233.092 348.044L233.085 348.045L181.776 353.417L181.765 353.418L124.039 357H76.5V356H124.008L181.682 352.422L181.703 352.42L232.966 347.052L232.98 347.05L286.381 339.892L302.387 336.317L302.39 336.316L333.263 329.182L337.585 325.561H350.368L353.545 322.012L365.457 320.198L380.456 316.608H418.876L426.357 313.027H433.851L442.292 309.491L452.988 304.115L462.716 300.493H471.155L478.549 293.415L486.07 289.815L496.853 282.588H501.15L507.562 279.007H512.9L534.275 266.473H538.401L540.437 263.063L546.849 257.691L550.157 252.149H560.984L569.284 246.934L572.467 239.824L585.373 227.21L600.386 214.634L603.516 212.886L605.643 209.323L611.033 205.71L631.333 184.23L638.984 178.737H641.059L644.094 175.346L652.548 162.953L654.68 130.803L663.252 102.079L663.26 102.058L667.72 90.8506L668.649 91.2203Z" fill="#FD3963"/>
</g>
<path fill-rule="evenodd" clip-rule="evenodd" d="M76.75 313.25H79.7542V313.75H76.75V313.25ZM84.2627 313.25H89.7712V313.75H84.2627V313.25ZM94.2797 313.25H99.7881V313.75H94.2797V313.25ZM104.297 313.25H109.805V313.75H104.297V313.25ZM114.314 313.25H119.822V313.75H114.314V313.25ZM124.331 313.25H129.839V313.75H124.331V313.25ZM134.347 313.25H139.856V313.75H134.347V313.25ZM144.364 313.25H149.873V313.75H144.364V313.25ZM154.381 313.25H159.89V313.75H154.381V313.25ZM164.398 313.25H169.907V313.75H164.398V313.25ZM174.415 313.25H179.924V313.75H174.415V313.25ZM184.432 313.25H189.941V313.75H184.432V313.25ZM194.449 313.25H199.958V313.75H194.449V313.25ZM204.466 313.25H209.975V313.75H204.466V313.25ZM214.483 313.25H219.992V313.75H214.483V313.25ZM224.5 313.25H230.008V313.75H224.5V313.25ZM234.517 313.25H240.025V313.75H234.517V313.25ZM244.534 313.25H250.042V313.75H244.534V313.25ZM254.551 313.25H260.059V313.75H254.551V313.25ZM264.568 313.25H270.076V313.75H264.568V313.25ZM274.585 313.25H280.093V313.75H274.585V313.25ZM284.602 313.25H290.11V313.75H284.602V313.25ZM294.619 313.25H300.127V313.75H294.619V313.25ZM304.636 313.25H310.144V313.75H304.636V313.25ZM314.652 313.25H320.161V313.75H314.652V313.25ZM324.669 313.25H330.178V313.75H324.669V313.25ZM334.686 313.25H340.195V313.75H334.686V313.25ZM344.703 313.25H350.212V313.75H344.703V313.25ZM354.72 313.25H360.229V313.75H354.72V313.25ZM364.737 313.25H370.246V313.75H364.737V313.25ZM374.754 313.25H380.263V313.75H374.754V313.25ZM384.771 313.25H390.28V313.75H384.771V313.25ZM394.788 313.25H400.297V313.75H394.788V313.25ZM404.805 313.25H410.314V313.75H404.805V313.25ZM414.822 313.25H420.331V313.75H414.822V313.25ZM424.839 313.25H430.348V313.75H424.839V313.25ZM434.856 313.25H440.365V313.75H434.856V313.25ZM444.873 313.25H450.381V313.75H444.873V313.25ZM454.89 313.25H460.398V313.75H454.89V313.25ZM464.907 313.25H470.415V313.75H464.907V313.25ZM474.924 313.25H480.432V313.75H474.924V313.25ZM484.941 313.25H490.449V313.75H484.941V313.25ZM494.958 313.25H500.466V313.75H494.958V313.25ZM504.975 313.25H510.483V313.75H504.975V313.25ZM514.992 313.25H520.5V313.75H514.992V313.25ZM525.009 313.25H530.517V313.75H525.009V313.25ZM535.026 313.25H540.534V313.75H535.026V313.25ZM545.043 313.25H550.551V313.75H545.043V313.25ZM555.06 313.25H560.568V313.75H555.06V313.25ZM565.077 313.25H570.585V313.75H565.077V313.25ZM575.094 313.25H580.602V313.75H575.094V313.25ZM585.111 313.25H590.619V313.75H585.111V313.25ZM595.128 313.25H600.636V313.75H595.128V313.25ZM605.144 313.25H610.653V313.75H605.144V313.25ZM615.161 313.25H620.67V313.75H615.161V313.25ZM625.178 313.25H630.687V313.75H625.178V313.25ZM635.195 313.25H640.704V313.75H635.195V313.25ZM645.212 313.25H650.721V313.75H645.212V313.25ZM655.229 313.25H660.738V313.75H655.229V313.25ZM665.246 313.25H668.25V313.75H665.246V313.25Z" fill="#D5C5EC"/>
<path fill-rule="evenodd" clip-rule="evenodd" d="M76.75 260.25H79.7542V260.75H76.75V260.25ZM84.2627 260.25H89.7712V260.75H84.2627V260.25ZM94.2797 260.25H99.7881V260.75H94.2797V260.25ZM104.297 260.25H109.805V260.75H104.297V260.25ZM114.314 260.25H119.822V260.75H114.314V260.25ZM124.331 260.25H129.839V260.75H124.331V260.25ZM134.347 260.25H139.856V260.75H134.347V260.25ZM144.364 260.25H149.873V260.75H144.364V260.25ZM154.381 260.25H159.89V260.75H154.381V260.25ZM164.398 260.25H169.907V260.75H164.398V260.25ZM174.415 260.25H179.924V260.75H174.415V260.25ZM184.432 260.25H189.941V260.75H184.432V260.25ZM194.449 260.25H199.958V260.75H194.449V260.25ZM204.466 260.25H209.975V260.75H204.466V260.25ZM214.483 260.25H219.992V260.75H214.483V260.25ZM224.5 260.25H230.008V260.75H224.5V260.25ZM234.517 260.25H240.025V260.75H234.517V260.25ZM244.534 260.25H250.042V260.75H244.534V260.25ZM254.551 260.25H260.059V260.75H254.551V260.25ZM264.568 260.25H270.076V260.75H264.568V260.25ZM274.585 260.25H280.093V260.75H274.585V260.25ZM284.602 260.25H290.11V260.75H284.602V260.25ZM294.619 260.25H300.127V260.75H294.619V260.25ZM304.636 260.25H310.144V260.75H304.636V260.25ZM314.652 260.25H320.161V260.75H314.652V260.25ZM324.669 260.25H330.178V260.75H324.669V260.25ZM334.686 260.25H340.195V260.75H334.686V260.25ZM344.703 260.25H350.212V260.75H344.703V260.25ZM354.72 260.25H360.229V260.75H354.72V260.25ZM364.737 260.25H370.246V260.75H364.737V260.25ZM374.754 260.25H380.263V260.75H374.754V260.25ZM384.771 260.25H390.28V260.75H384.771V260.25ZM394.788 260.25H400.297V260.75H394.788V260.25ZM404.805 260.25H410.314V260.75H404.805V260.25ZM414.822 260.25H420.331V260.75H414.822V260.25ZM424.839 260.25H430.348V260.75H424.839V260.25ZM434.856 260.25H440.365V260.75H434.856V260.25ZM444.873 260.25H450.381V260.75H444.873V260.25ZM454.89 260.25H460.398V260.75H454.89V260.25ZM464.907 260.25H470.415V260.75H464.907V260.25ZM474.924 260.25H480.432V260.75H474.924V260.25ZM484.941 260.25H490.449V260.75H484.941V260.25ZM494.958 260.25H500.466V260.75H494.958V260.25ZM504.975 260.25H510.483V260.75H504.975V260.25ZM514.992 260.25H520.5V260.75H514.992V260.25ZM525.009 260.25H530.517V260.75H525.009V260.25ZM535.026 260.25H540.534V260.75H535.026V260.25ZM545.043 260.25H550.551V260.75H545.043V260.25ZM555.06 260.25H560.568V260.75H555.06V260.25ZM565.077 260.25H570.585V260.75H565.077V260.25ZM575.094 260.25H580.602V260.75H575.094V260.25ZM585.111 260.25H590.619V260.75H585.111V260.25ZM595.128 260.25H600.636V260.75H595.128V260.25ZM605.144 260.25H610.653V260.75H605.144V260.25ZM615.161 260.25H620.67V260.75H615.161V260.25ZM625.178 260.25H630.687V260.75H625.178V260.25ZM635.195 260.25H640.704V260.75H635.195V260.25ZM645.212 260.25H650.721V260.75H645.212V260.25ZM655.229 260.25H660.738V260.75H655.229V260.25ZM665.246 260.25H668.25V260.75H665.246V260.25Z" fill="#D5C5EC"/>
<path fill-rule="evenodd" clip-rule="evenodd" d="M76.75 206.25H79.7542V206.75H76.75V206.25ZM84.2627 206.25H89.7712V206.75H84.2627V206.25ZM94.2797 206.25H99.7881V206.75H94.2797V206.25ZM104.297 206.25H109.805V206.75H104.297V206.25ZM114.314 206.25H119.822V206.75H114.314V206.25ZM124.331 206.25H129.839V206.75H124.331V206.25ZM134.347 206.25H139.856V206.75H134.347V206.25ZM144.364 206.25H149.873V206.75H144.364V206.25ZM154.381 206.25H159.89V206.75H154.381V206.25ZM164.398 206.25H169.907V206.75H164.398V206.25ZM174.415 206.25H179.924V206.75H174.415V206.25ZM184.432 206.25H189.941V206.75H184.432V206.25ZM194.449 206.25H199.958V206.75H194.449V206.25ZM204.466 206.25H209.975V206.75H204.466V206.25ZM214.483 206.25H219.992V206.75H214.483V206.25ZM224.5 206.25H230.008V206.75H224.5V206.25ZM234.517 206.25H240.025V206.75H234.517V206.25ZM244.534 206.25H250.042V206.75H244.534V206.25ZM254.551 206.25H260.059V206.75H254.551V206.25ZM264.568 206.25H270.076V206.75H264.568V206.25ZM274.585 206.25H280.093V206.75H274.585V206.25ZM284.602 206.25H290.11V206.75H284.602V206.25ZM294.619 206.25H300.127V206.75H294.619V206.25ZM304.636 206.25H310.144V206.75H304.636V206.25ZM314.652 206.25H320.161V206.75H314.652V206.25ZM324.669 206.25H330.178V206.75H324.669V206.25ZM334.686 206.25H340.195V206.75H334.686V206.25ZM344.703 206.25H350.212V206.75H344.703V206.25ZM354.72 206.25H360.229V206.75H354.72V206.25ZM364.737 206.25H370.246V206.75H364.737V206.25ZM374.754 206.25H380.263V206.75H374.754V206.25ZM384.771 206.25H390.28V206.75H384.771V206.25ZM394.788 206.25H400.297V206.75H394.788V206.25ZM404.805 206.25H410.314V206.75H404.805V206.25ZM414.822 206.25H420.331V206.75H414.822V206.25ZM424.839 206.25H430.348V206.75H424.839V206.25ZM434.856 206.25H440.365V206.75H434.856V206.25ZM444.873 206.25H450.381V206.75H444.873V206.25ZM454.89 206.25H460.398V206.75H454.89V206.25ZM464.907 206.25H470.415V206.75H464.907V206.25ZM474.924 206.25H480.432V206.75H474.924V206.25ZM484.941 206.25H490.449V206.75H484.941V206.25ZM494.958 206.25H500.466V206.75H494.958V206.25ZM504.975 206.25H510.483V206.75H504.975V206.25ZM514.992 206.25H520.5V206.75H514.992V206.25ZM525.009 206.25H530.517V206.75H525.009V206.25ZM535.026 206.25H540.534V206.75H535.026V206.25ZM545.043 206.25H550.551V206.75H545.043V206.25ZM555.06 206.25H560.568V206.75H555.06V206.25ZM565.077 206.25H570.585V206.75H565.077V206.25ZM575.094 206.25H580.602V206.75H575.094V206.25ZM585.111 206.25H590.619V206.75H585.111V206.25ZM595.128 206.25H600.636V206.75H595.128V206.25ZM605.144 206.25H610.653V206.75H605.144V206.25ZM615.161 206.25H620.67V206.75H615.161V206.25ZM625.178 206.25H630.687V206.75H625.178V206.25ZM635.195 206.25H640.704V206.75H635.195V206.25ZM645.212 206.25H650.721V206.75H645.212V206.25ZM655.229 206.25H660.738V206.75H655.229V206.25ZM665.246 206.25H668.25V206.75H665.246V206.25Z" fill="#D5C5EC"/>
<path fill-rule="evenodd" clip-rule="evenodd" d="M76.75 153.25H79.7542V153.75H76.75V153.25ZM84.2627 153.25H89.7712V153.75H84.2627V153.25ZM94.2797 153.25H99.7881V153.75H94.2797V153.25ZM104.297 153.25H109.805V153.75H104.297V153.25ZM114.314 153.25H119.822V153.75H114.314V153.25ZM124.331 153.25H129.839V153.75H124.331V153.25ZM134.347 153.25H139.856V153.75H134.347V153.25ZM144.364 153.25H149.873V153.75H144.364V153.25ZM154.381 153.25H159.89V153.75H154.381V153.25ZM164.398 153.25H169.907V153.75H164.398V153.25ZM174.415 153.25H179.924V153.75H174.415V153.25ZM184.432 153.25H189.941V153.75H184.432V153.25ZM194.449 153.25H199.958V153.75H194.449V153.25ZM204.466 153.25H209.975V153.75H204.466V153.25ZM214.483 153.25H219.992V153.75H214.483V153.25ZM224.5 153.25H230.008V153.75H224.5V153.25ZM234.517 153.25H240.025V153.75H234.517V153.25ZM244.534 153.25H250.042V153.75H244.534V153.25ZM254.551 153.25H260.059V153.75H254.551V153.25ZM264.568 153.25H270.076V153.75H264.568V153.25ZM274.585 153.25H280.093V153.75H274.585V153.25ZM284.602 153.25H290.11V153.75H284.602V153.25ZM294.619 153.25H300.127V153.75H294.619V153.25ZM304.636 153.25H310.144V153.75H304.636V153.25ZM314.652 153.25H320.161V153.75H314.652V153.25ZM324.669 153.25H330.178V153.75H324.669V153.25ZM334.686 153.25H340.195V153.75H334.686V153.25ZM344.703 153.25H350.212V153.75H344.703V153.25ZM354.72 153.25H360.229V153.75H354.72V153.25ZM364.737 153.25H370.246V153.75H364.737V153.25ZM374.754 153.25H380.263V153.75H374.754V153.25ZM384.771 153.25H390.28V153.75H384.771V153.25ZM394.788 153.25H400.297V153.75H394.788V153.25ZM404.805 153.25H410.314V153.75H404.805V153.25ZM414.822 153.25H420.331V153.75H414.822V153.25ZM424.839 153.25H430.348V153.75H424.839V153.25ZM434.856 153.25H440.365V153.75H434.856V153.25ZM444.873 153.25H450.381V153.75H444.873V153.25ZM454.89 153.25H460.398V153.75H454.89V153.25ZM464.907 153.25H470.415V153.75H464.907V153.25ZM474.924 153.25H480.432V153.75H474.924V153.25ZM484.941 153.25H490.449V153.75H484.941V153.25ZM494.958 153.25H500.466V153.75H494.958V153.25ZM504.975 153.25H510.483V153.75H504.975V153.25ZM514.992 153.25H520.5V153.75H514.992V153.25ZM525.009 153.25H530.517V153.75H525.009V153.25ZM535.026 153.25H540.534V153.75H535.026V153.25ZM545.043 153.25H550.551V153.75H545.043V153.25ZM555.06 153.25H560.568V153.75H555.06V153.25ZM565.077 153.25H570.585V153.75H565.077V153.25ZM575.094 153.25H580.602V153.75H575.094V153.25ZM585.111 153.25H590.619V153.75H585.111V153.25ZM595.128 153.25H600.636V153.75H595.128V153.25ZM605.144 153.25H610.653V153.75H605.144V153.25ZM615.161 153.25H620.67V153.75H615.161V153.25ZM625.178 153.25H630.687V153.75H625.178V153.25ZM635.195 153.25H640.704V153.75H635.195V153.25ZM645.212 153.25H650.721V153.75H645.212V153.25ZM655.229 153.25H660.738V153.75H655.229V153.25ZM665.246 153.25H668.25V153.75H665.246V153.25Z" fill="#D5C5EC"/>
<path fill-rule="evenodd" clip-rule="evenodd" d="M76.75 99.25H79.7542V99.75H76.75V99.25ZM84.2627 99.25H89.7712V99.75H84.2627V99.25ZM94.2797 99.25H99.7881V99.75H94.2797V99.25ZM104.297 99.25H109.805V99.75H104.297V99.25ZM114.314 99.25H119.822V99.75H114.314V99.25ZM124.331 99.25H129.839V99.75H124.331V99.25ZM134.347 99.25H139.856V99.75H134.347V99.25ZM144.364 99.25H149.873V99.75H144.364V99.25ZM154.381 99.25H159.89V99.75H154.381V99.25ZM164.398 99.25H169.907V99.75H164.398V99.25ZM174.415 99.25H179.924V99.75H174.415V99.25ZM184.432 99.25H189.941V99.75H184.432V99.25ZM194.449 99.25H199.958V99.75H194.449V99.25ZM204.466 99.25H209.975V99.75H204.466V99.25ZM214.483 99.25H219.992V99.75H214.483V99.25ZM224.5 99.25H230.008V99.75H224.5V99.25ZM234.517 99.25H240.025V99.75H234.517V99.25ZM244.534 99.25H250.042V99.75H244.534V99.25ZM254.551 99.25H260.059V99.75H254.551V99.25ZM264.568 99.25H270.076V99.75H264.568V99.25ZM274.585 99.25H280.093V99.75H274.585V99.25ZM284.602 99.25H290.11V99.75H284.602V99.25ZM294.619 99.25H300.127V99.75H294.619V99.25ZM304.636 99.25H310.144V99.75H304.636V99.25ZM314.652 99.25H320.161V99.75H314.652V99.25ZM324.669 99.25H330.178V99.75H324.669V99.25ZM334.686 99.25H340.195V99.75H334.686V99.25ZM344.703 99.25H350.212V99.75H344.703V99.25ZM354.72 99.25H360.229V99.75H354.72V99.25ZM364.737 99.25H370.246V99.75H364.737V99.25ZM374.754 99.25H380.263V99.75H374.754V99.25ZM384.771 99.25H390.28V99.75H384.771V99.25ZM394.788 99.25H400.297V99.75H394.788V99.25ZM404.805 99.25H410.314V99.75H404.805V99.25ZM414.822 99.25H420.331V99.75H414.822V99.25ZM424.839 99.25H430.348V99.75H424.839V99.25ZM434.856 99.25H440.365V99.75H434.856V99.25ZM444.873 99.25H450.381V99.75H444.873V99.25ZM454.89 99.25H460.398V99.75H454.89V99.25ZM464.907 99.25H470.415V99.75H464.907V99.25ZM474.924 99.25H480.432V99.75H474.924V99.25ZM484.941 99.25H490.449V99.75H484.941V99.25ZM494.958 99.25H500.466V99.75H494.958V99.25ZM504.975 99.25H510.483V99.75H504.975V99.25ZM514.992 99.25H520.5V99.75H514.992V99.25ZM525.009 99.25H530.517V99.75H525.009V99.25ZM535.026 99.25H540.534V99.75H535.026V99.25ZM545.043 99.25H550.551V99.75H545.043V99.25ZM555.06 99.25H560.568V99.75H555.06V99.25ZM565.077 99.25H570.585V99.75H565.077V99.25ZM575.094 99.25H580.602V99.75H575.094V99.25ZM585.111 99.25H590.619V99.75H585.111V99.25ZM595.128 99.25H600.636V99.75H595.128V99.25ZM605.144 99.25H610.653V99.75H605.144V99.25ZM615.161 99.25H620.67V99.75H615.161V99.25ZM625.178 99.25H630.687V99.75H625.178V99.25ZM635.195 99.25H640.704V99.75H635.195V99.25ZM645.212 99.25H650.721V99.75H645.212V99.25ZM655.229 99.25H660.738V99.75H655.229V99.25ZM665.246 99.25H668.25V99.75H665.246V99.25Z" fill="#D5C5EC"/>
<path fill-rule="evenodd" clip-rule="evenodd" d="M76.75 46.25H79.7542V46.75H76.75V46.25ZM84.2627 46.25H89.7712V46.75H84.2627V46.25ZM94.2797 46.25H99.7881V46.75H94.2797V46.25ZM104.297 46.25H109.805V46.75H104.297V46.25ZM114.314 46.25H119.822V46.75H114.314V46.25ZM124.331 46.25H129.839V46.75H124.331V46.25ZM134.347 46.25H139.856V46.75H134.347V46.25ZM144.364 46.25H149.873V46.75H144.364V46.25ZM154.381 46.25H159.89V46.75H154.381V46.25ZM164.398 46.25H169.907V46.75H164.398V46.25ZM174.415 46.25H179.924V46.75H174.415V46.25ZM184.432 46.25H189.941V46.75H184.432V46.25ZM194.449 46.25H199.958V46.75H194.449V46.25ZM204.466 46.25H209.975V46.75H204.466V46.25ZM214.483 46.25H219.992V46.75H214.483V46.25ZM224.5 46.25H230.008V46.75H224.5V46.25ZM234.517 46.25H240.025V46.75H234.517V46.25ZM244.534 46.25H250.042V46.75H244.534V46.25ZM254.551 46.25H260.059V46.75H254.551V46.25ZM264.568 46.25H270.076V46.75H264.568V46.25ZM274.585 46.25H280.093V46.75H274.585V46.25ZM284.602 46.25H290.11V46.75H284.602V46.25ZM294.619 46.25H300.127V46.75H294.619V46.25ZM304.636 46.25H310.144V46.75H304.636V46.25ZM314.652 46.25H320.161V46.75H314.652V46.25ZM324.669 46.25H330.178V46.75H324.669V46.25ZM334.686 46.25H340.195V46.75H334.686V46.25ZM344.703 46.25H350.212V46.75H344.703V46.25ZM354.72 46.25H360.229V46.75H354.72V46.25ZM364.737 46.25H370.246V46.75H364.737V46.25ZM374.754 46.25H380.263V46.75H374.754V46.25ZM384.771 46.25H390.28V46.75H384.771V46.25ZM394.788 46.25H400.297V46.75H394.788V46.25ZM404.805 46.25H410.314V46.75H404.805V46.25ZM414.822 46.25H420.331V46.75H414.822V46.25ZM424.839 46.25H430.348V46.75H424.839V46.25ZM434.856 46.25H440.365V46.75H434.856V46.25ZM444.873 46.25H450.381V46.75H444.873V46.25ZM454.89 46.25H460.398V46.75H454.89V46.25ZM464.907 46.25H470.415V46.75H464.907V46.25ZM474.924 46.25H480.432V46.75H474.924V46.25ZM484.941 46.25H490.449V46.75H484.941V46.25ZM494.958 46.25H500.466V46.75H494.958V46.25ZM504.975 46.25H510.483V46.75H504.975V46.25ZM514.992 46.25H520.5V46.75H514.992V46.25ZM525.009 46.25H530.517V46.75H525.009V46.25ZM535.026 46.25H540.534V46.75H535.026V46.25ZM545.043 46.25H550.551V46.75H545.043V46.25ZM555.06 46.25H560.568V46.75H555.06V46.25ZM565.077 46.25H570.585V46.75H565.077V46.25ZM575.094 46.25H580.602V46.75H575.094V46.25ZM585.111 46.25H590.619V46.75H585.111V46.25ZM595.128 46.25H600.636V46.75H595.128V46.25ZM605.144 46.25H610.653V46.75H605.144V46.25ZM615.161 46.25H620.67V46.75H615.161V46.25ZM625.178 46.25H630.687V46.75H625.178V46.25ZM635.195 46.25H640.704V46.75H635.195V46.25ZM645.212 46.25H650.721V46.75H645.212V46.25ZM655.229 46.25H660.738V46.75H655.229V46.25ZM665.246 46.25H668.25V46.75H665.246V46.25Z" fill="#D5C5EC"/>
<g filter="url(#filter2_d_211_268)">
<path fill-rule="evenodd" clip-rule="evenodd" d="M668 106.5C676.284 106.5 683 99.7843 683 91.5C683 83.2157 676.284 76.5 668 76.5C659.716 76.5 653 83.2157 653 91.5C653 99.7843 659.716 106.5 668 106.5ZM668 109.5C677.941 109.5 686 101.441 686 91.5C686 81.5589 677.941 73.5 668 73.5C658.059 73.5 650 81.5589 650 91.5C650 101.441 658.059 109.5 668 109.5Z" fill="#FD3963"/>
</g>
<defs>
<filter id="filter0_d_211_268" x="0" y="0" width="716" height="441" filterUnits="userSpaceOnUse" color-interpolation-filters="sRGB">
<feFlood flood-opacity="0" result="BackgroundImageFix"/>
<feColorMatrix in="SourceAlpha" type="matrix" values="0 0 0 0 0 0 0 0 0 0 0 0 0 0 0 0 0 0 127 0" result="hardAlpha"/>
<feOffset dy="4"/>
<feGaussianBlur stdDeviation="8"/>
<feComposite in2="hardAlpha" operator="out"/>
<feColorMatrix type="matrix" values="0 0 0 0 0.95 0 0 0 0 0.925 0 0 0 0 1 0 0 0 1 0"/>
<feBlend mode="normal" in2="BackgroundImageFix" result="effect1_dropShadow_211_268"/>
<feBlend mode="normal" in="SourceGraphic" in2="effect1_dropShadow_211_268" result="shape"/>
</filter>
<filter id="filter1_d_211_268" x="51.5" y="65.8506" width="642.149" height="316.149" filterUnits="userSpaceOnUse" color-interpolation-filters="sRGB">
<feFlood flood-opacity="0" result="BackgroundImageFix"/>
<feColorMatrix in="SourceAlpha" type="matrix" values="0 0 0 0 0 0 0 0 0 0 0 0 0 0 0 0 0 0 127 0" result="hardAlpha"/>
<feOffset/>
<feGaussianBlur stdDeviation="12.5"/>
<feComposite in2="hardAlpha" operator="out"/>
<feColorMatrix type="matrix" values="0 0 0 0 0.992157 0 0 0 0 0.223529 0 0 0 0 0.388235 0 0 0 1 0"/>
<feBlend mode="normal" in2="BackgroundImageFix" result="effect1_dropShadow_211_268"/>
<feBlend mode="normal" in="SourceGraphic" in2="effect1_dropShadow_211_268" result="shape"/>
</filter>
<filter id="filter2_d_211_268" x="640" y="63.5" width="56" height="56" filterUnits="userSpaceOnUse" color-interpolation-filters="sRGB">
<feFlood flood-opacity="0" result="BackgroundImageFix"/>
<feColorMatrix in="SourceAlpha" type="matrix" values="0 0 0 0 0 0 0 0 0 0 0 0 0 0 0 0 0 0 127 0" result="hardAlpha"/>
<feOffset/>
<feGaussianBlur stdDeviation="5"/>
<feComposite in2="hardAlpha" operator="out"/>
<feColorMatrix type="matrix" values="0 0 0 0 0.992157 0 0 0 0 0.223529 0 0 0 0 0.388235 0 0 0 1 0"/>
<feBlend mode="normal" in2="BackgroundImageFix" result="effect1_dropShadow_211_268"/>
<feBlend mode="normal" in="SourceGraphic" in2="effect1_dropShadow_211_268" result="shape"/>
</filter>
</defs>
</svg>
