<svg width="641" height="500" viewBox="0 0 641 500" fill="none" xmlns="http://www.w3.org/2000/svg">
<g opacity="0.35">
<path opacity="0.7" d="M612.862 226.454L463.306 97.2573L350.754 -1.14571e-05L612.862 226.454Z" stroke="#9E9E9E" stroke-width="0.437443" stroke-miterlimit="10"/>
<path opacity="0.7" d="M640 270.818L464.747 120.622L463.319 97.2536L445.539 81.895L448.753 128.4L518.581 188.385" stroke="#9E9E9E" stroke-width="0.437443" stroke-miterlimit="10"/>
<path opacity="0.7" d="M350.752 -6.1051e-06L328.819 24.3288L300.742 -8.29115e-06L423.682 107.335L426.126 139.618L490.421 194.663" stroke="#9E9E9E" stroke-width="0.437443" stroke-miterlimit="10"/>
<path opacity="0.7" d="M282.337 -7.36805e-06L412.516 113.226L414.037 144.066L450.898 176.357" stroke="#9E9E9E" stroke-width="0.437443" stroke-miterlimit="10"/>
<path opacity="0.7" d="M264.092 -1.16819e-05L401.088 118.528L403.103 150.327L531.343 260.655" stroke="#9E9E9E" stroke-width="0.437443" stroke-miterlimit="10"/>
<path opacity="0.7" d="M247.86 -1.12309e-05L390.345 123.915L391.969 156.054L504.794 252.812" stroke="#9E9E9E" stroke-width="0.437443" stroke-miterlimit="10"/>
<path opacity="0.7" d="M228.277 -4.51518e-06L284.229 47.7637L331.572 88.1763" stroke="#9E9E9E" stroke-width="0.437443" stroke-miterlimit="10"/>
<path opacity="0.7" d="M346.398 170.937L289.184 122.037L284.225 47.7839" stroke="#9E9E9E" stroke-width="0.437443" stroke-miterlimit="10"/>
<path opacity="0.7" d="M211.104 -1.86343e-06L253.734 37.063" stroke="#9E9E9E" stroke-width="0.437443" stroke-miterlimit="10"/>
<path opacity="0.7" d="M170.773 -4.24771e-06L235.766 56.7753L267.95 55.5166" stroke="#9E9E9E" stroke-width="0.437443" stroke-miterlimit="10"/>
<path opacity="0.7" d="M149.637 -4.29331e-06L247.856 86.0976" stroke="#9E9E9E" stroke-width="0.437443" stroke-miterlimit="10"/>
<path opacity="0.7" d="M273.303 104.055L271.427 77.0941L260.985 68.6935L229.567 70.0751" stroke="#9E9E9E" stroke-width="0.437443" stroke-miterlimit="10"/>
<path opacity="0.7" d="M127.242 -1.57529e-05L350.752 190.128L382.981 188.488L459.366 254.632L476.586 254.632L487.628 263.491" stroke="#9E9E9E" stroke-width="0.437443" stroke-miterlimit="10"/>
<path opacity="0.7" d="M57.1437 -1.90429e-05L142.449 73.798L193.925 70.7067L346.386 202.079L380.606 200.71L492.795 297.271" stroke="#9E9E9E" stroke-width="0.437443" stroke-miterlimit="10"/>
<path opacity="0.7" d="M41.0809 -1.58649e-05L134.968 81.6575L186.654 79.0295L342.588 213.83L376.316 212.235L404.027 235.805" stroke="#9E9E9E" stroke-width="0.437443" stroke-miterlimit="10"/>
<path opacity="0.7" d="M23.8359 -1.06702e-05L127.235 89.6728L179.394 86.3723L267.941 163.528" stroke="#9E9E9E" stroke-width="0.437443" stroke-miterlimit="10"/>
<path opacity="0.7" d="M76.69 45.8367L79.0313 86.0812L149.637 147.169L152.215 179.481L216.201 235.789L250.265 233.616L318.956 292.503" stroke="#9E9E9E" stroke-width="0.437443" stroke-miterlimit="10"/>
<path opacity="0.7" d="M128.541 89.6028L137.189 97.6548L171.629 95.8019L232.705 148.641" stroke="#9E9E9E" stroke-width="0.437443" stroke-miterlimit="10"/>
<path opacity="0.7" d="M108.981 73.8349L108.981 95.0723L152.301 133.009L193.709 130.327L264.092 191.076L298.75 189.435L362.029 244.104L363.99 276.492L433.817 336.724" stroke="#9E9E9E" stroke-width="0.437443" stroke-miterlimit="10"/>
<path opacity="0.7" d="M-0.000158047 32.4464L100.247 119.122" stroke="#9E9E9E" stroke-width="0.437443" stroke-miterlimit="10"/>
<path opacity="0.7" d="M0.000202793 47.7839L121.33 153.085" stroke="#9E9E9E" stroke-width="0.437443" stroke-miterlimit="10"/>
<path opacity="0.7" d="M0.00065592 63.4584L183.154 221.157L185.674 252.795L211.103 275.091" stroke="#9E9E9E" stroke-width="0.437443" stroke-miterlimit="10"/>
<path opacity="0.7" d="M0.000309834 78.6807L170.774 226.453L173.709 257.407L284.225 353.398" stroke="#9E9E9E" stroke-width="0.437443" stroke-miterlimit="10"/>
<path opacity="0.7" d="M0.000850237 92.5757L160.497 230.25L162.627 260.655L240.301 328.171L240.301 343.878L252.897 355.145" stroke="#9E9E9E" stroke-width="0.437443" stroke-miterlimit="10"/>
<path opacity="0.7" d="M0.0002557 109.147L41.0869 145.14" stroke="#9E9E9E" stroke-width="0.437443" stroke-miterlimit="10"/>
<path opacity="0.7" d="M63.8691 166.091L34.6944 167.431L23.8352 158.572L23.8352 130.032" stroke="#9E9E9E" stroke-width="0.437443" stroke-miterlimit="10"/>
<path opacity="0.7" d="M0.00169666 127.141L10.3412 136.009L12.2166 169.165" stroke="#9E9E9E" stroke-width="0.437443" stroke-miterlimit="10"/>
<path opacity="0.7" d="M0.000455462 176.357L57.1428 226.457" stroke="#9E9E9E" stroke-width="0.437443" stroke-miterlimit="10"/>
<path opacity="0.7" d="M139.548 228.076L82.1241 178.854L9.47247 184.658" stroke="#9E9E9E" stroke-width="0.437443" stroke-miterlimit="10"/>
<path opacity="0.7" d="M0.000884416 194.663L97.0793 275.09L128.542 275.091L243.632 372.134" stroke="#9E9E9E" stroke-width="0.437443" stroke-miterlimit="10"/>
<path opacity="0.7" d="M0.000865959 208.271L93.4896 288.702L126.447 288.702L252.897 396.747" stroke="#9E9E9E" stroke-width="0.437443" stroke-miterlimit="10"/>
<path opacity="0.7" d="M4.70648e-05 226.454L89.3028 302.506L121.813 300.945L157.336 331.013" stroke="#9E9E9E" stroke-width="0.437443" stroke-miterlimit="10"/>
<path opacity="0.7" d="M0.00129902 240.266L85.1727 312.683L118.435 310.222L181.995 365.595" stroke="#9E9E9E" stroke-width="0.437443" stroke-miterlimit="10"/>
<path opacity="0.7" d="M222.553 472.804L0.000141239 278.735" stroke="#9E9E9E" stroke-width="0.437443" stroke-miterlimit="10"/>
<path opacity="0.7" d="M179.721 393.529L108.999 333.428L64.5112 334.978" stroke="#9E9E9E" stroke-width="0.437443" stroke-miterlimit="10"/>
<path opacity="0.7" d="M278.737 499.338L105.551 349.691L82.3028 350.512" stroke="#9E9E9E" stroke-width="0.437443" stroke-miterlimit="10"/>
</g>
</svg>
