<svg width="747" height="583" viewBox="0 0 747 583" fill="none" xmlns="http://www.w3.org/2000/svg">
<g opacity="0.45">
<path opacity="0.7" d="M32.6323 264.46L206.959 113.866L338.153 0.499988L32.6323 264.46Z" stroke="#9E9E9E" stroke-width="0.437443" stroke-miterlimit="10"/>
<path opacity="0.7" d="M1.00001 316.172L205.28 141.1L206.944 113.861L227.668 95.959L223.922 150.167L142.529 220.087" stroke="#9E9E9E" stroke-width="0.437443" stroke-miterlimit="10"/>
<path opacity="0.7" d="M338.154 0.499993L363.72 28.8582L396.448 0.499991L253.145 125.613L250.297 163.242L175.353 227.404" stroke="#9E9E9E" stroke-width="0.437443" stroke-miterlimit="10"/>
<path opacity="0.7" d="M417.901 0.499992L266.162 132.479L264.388 168.427L221.422 206.066" stroke="#9E9E9E" stroke-width="0.437443" stroke-miterlimit="10"/>
<path opacity="0.7" d="M439.168 0.499988L279.482 138.659L277.134 175.724L127.653 304.326" stroke="#9E9E9E" stroke-width="0.437443" stroke-miterlimit="10"/>
<path opacity="0.7" d="M458.088 0.499988L292.005 144.938L290.111 182.401L158.599 295.184" stroke="#9E9E9E" stroke-width="0.437443" stroke-miterlimit="10"/>
<path opacity="0.7" d="M480.914 0.499995L415.696 56.1745L360.511 103.28" stroke="#9E9E9E" stroke-width="0.437443" stroke-miterlimit="10"/>
<path opacity="0.7" d="M343.229 199.748L409.92 142.749L415.7 56.1982" stroke="#9E9E9E" stroke-width="0.437443" stroke-miterlimit="10"/>
<path opacity="0.7" d="M500.933 0.499998L451.242 43.7016" stroke="#9E9E9E" stroke-width="0.437443" stroke-miterlimit="10"/>
<path opacity="0.7" d="M547.942 0.499995L472.185 66.6787L434.671 65.2115" stroke="#9E9E9E" stroke-width="0.437443" stroke-miterlimit="10"/>
<path opacity="0.7" d="M572.579 0.499995L458.092 100.858" stroke="#9E9E9E" stroke-width="0.437443" stroke-miterlimit="10"/>
<path opacity="0.7" d="M428.431 121.789L430.617 90.3627L442.789 80.5708L479.411 82.1813" stroke="#9E9E9E" stroke-width="0.437443" stroke-miterlimit="10"/>
<path opacity="0.7" d="M598.682 0.499983L338.154 222.118L300.588 220.207L211.551 297.306L191.48 297.306L178.608 307.632" stroke="#9E9E9E" stroke-width="0.437443" stroke-miterlimit="10"/>
<path opacity="0.7" d="M680.391 0.49998L580.957 86.5207L520.955 82.9174L343.244 236.049L303.356 234.453L172.585 347.006" stroke="#9E9E9E" stroke-width="0.437443" stroke-miterlimit="10"/>
<path opacity="0.7" d="M699.115 0.499983L589.678 95.682L529.432 92.6188L347.671 249.745L308.357 247.886L276.056 275.361" stroke="#9E9E9E" stroke-width="0.437443" stroke-miterlimit="10"/>
<path opacity="0.7" d="M719.216 0.499989L598.692 105.025L537.893 101.178L434.681 191.113" stroke="#9E9E9E" stroke-width="0.437443" stroke-miterlimit="10"/>
<path opacity="0.7" d="M657.608 53.9282L654.879 100.838L572.579 172.044L569.574 209.707L494.99 275.341L455.285 272.809L375.217 341.448" stroke="#9E9E9E" stroke-width="0.437443" stroke-miterlimit="10"/>
<path opacity="0.7" d="M597.169 104.943L587.089 114.329L546.945 112.169L475.753 173.76" stroke="#9E9E9E" stroke-width="0.437443" stroke-miterlimit="10"/>
<path opacity="0.7" d="M619.969 86.5635L619.969 111.318L569.474 155.538L521.207 152.413L439.168 223.222L398.77 221.31L325.01 285.033L322.724 322.786L241.332 392.994" stroke="#9E9E9E" stroke-width="0.437443" stroke-miterlimit="10"/>
<path opacity="0.7" d="M747 38.3203L630.149 139.352" stroke="#9E9E9E" stroke-width="0.437443" stroke-miterlimit="10"/>
<path opacity="0.7" d="M746.999 56.1982L605.574 178.94" stroke="#9E9E9E" stroke-width="0.437443" stroke-miterlimit="10"/>
<path opacity="0.7" d="M746.999 74.4687L533.512 258.286L530.574 295.165L500.933 321.153" stroke="#9E9E9E" stroke-width="0.437443" stroke-miterlimit="10"/>
<path opacity="0.7" d="M747 92.2119L547.942 264.459L544.52 300.54L415.7 412.429" stroke="#9E9E9E" stroke-width="0.437443" stroke-miterlimit="10"/>
<path opacity="0.7" d="M746.999 108.408L559.921 268.885L557.437 304.326L466.899 383.024L466.899 401.332L452.216 414.466" stroke="#9E9E9E" stroke-width="0.437443" stroke-miterlimit="10"/>
<path opacity="0.7" d="M747 127.725L699.108 169.679" stroke="#9E9E9E" stroke-width="0.437443" stroke-miterlimit="10"/>
<path opacity="0.7" d="M672.553 194.1L706.56 195.662L719.217 185.336L719.217 152.069" stroke="#9E9E9E" stroke-width="0.437443" stroke-miterlimit="10"/>
<path opacity="0.7" d="M746.998 148.699L734.946 159.036L732.76 197.683" stroke="#9E9E9E" stroke-width="0.437443" stroke-miterlimit="10"/>
<path opacity="0.7" d="M747 206.066L680.393 264.464" stroke="#9E9E9E" stroke-width="0.437443" stroke-miterlimit="10"/>
<path opacity="0.7" d="M584.339 266.351L651.274 208.976L735.959 215.742" stroke="#9E9E9E" stroke-width="0.437443" stroke-miterlimit="10"/>
<path opacity="0.7" d="M746.999 227.404L633.842 321.152L597.168 321.152L463.017 434.269" stroke="#9E9E9E" stroke-width="0.437443" stroke-miterlimit="10"/>
<path opacity="0.7" d="M746.999 243.266L638.026 337.018L599.61 337.018L452.216 462.958" stroke="#9E9E9E" stroke-width="0.437443" stroke-miterlimit="10"/>
<path opacity="0.7" d="M747 264.46L642.906 353.109L605.011 351.289L563.605 386.337" stroke="#9E9E9E" stroke-width="0.437443" stroke-miterlimit="10"/>
<path opacity="0.7" d="M746.999 280.56L647.721 364.971L608.95 362.103L534.862 426.647" stroke="#9E9E9E" stroke-width="0.437443" stroke-miterlimit="10"/>
<path opacity="0.7" d="M487.587 551.612L747 325.401" stroke="#9E9E9E" stroke-width="0.437443" stroke-miterlimit="10"/>
<path opacity="0.7" d="M537.512 459.207L619.948 389.151L671.804 390.958" stroke="#9E9E9E" stroke-width="0.437443" stroke-miterlimit="10"/>
<path opacity="0.7" d="M422.097 582.541L623.966 408.109L651.065 409.065" stroke="#9E9E9E" stroke-width="0.437443" stroke-miterlimit="10"/>
</g>
</svg>
