<svg width="529" height="413" viewBox="0 0 529 413" fill="none" xmlns="http://www.w3.org/2000/svg">
<g opacity="0.45">
<path opacity="0.7" d="M23.3887 187.324L146.773 80.7373L239.628 0.499991L23.3887 187.324Z" stroke="#9E9E9E" stroke-width="0.437443" stroke-miterlimit="10"/>
<path opacity="0.7" d="M1.00001 223.925L145.584 100.013L146.762 80.7343L161.43 68.0635L158.779 106.43L101.171 155.918" stroke="#9E9E9E" stroke-width="0.437443" stroke-miterlimit="10"/>
<path opacity="0.7" d="M239.629 0.499995L257.724 20.5712L280.888 0.499994L179.462 89.0518L177.446 115.685L124.403 161.097" stroke="#9E9E9E" stroke-width="0.437443" stroke-miterlimit="10"/>
<path opacity="0.7" d="M296.072 0.499994L188.675 93.9118L187.42 119.354L157.009 145.995" stroke="#9E9E9E" stroke-width="0.437443" stroke-miterlimit="10"/>
<path opacity="0.7" d="M311.125 0.499991L198.103 98.2856L196.441 124.519L90.6421 215.54" stroke="#9E9E9E" stroke-width="0.437443" stroke-miterlimit="10"/>
<path opacity="0.7" d="M324.516 0.499992L206.966 102.73L205.626 129.245L112.545 209.07" stroke="#9E9E9E" stroke-width="0.437443" stroke-miterlimit="10"/>
<path opacity="0.7" d="M340.671 0.499997L294.511 39.905L255.453 73.2454" stroke="#9E9E9E" stroke-width="0.437443" stroke-miterlimit="10"/>
<path opacity="0.7" d="M243.221 141.523L290.423 101.181L294.514 39.9219" stroke="#9E9E9E" stroke-width="0.437443" stroke-miterlimit="10"/>
<path opacity="0.7" d="M354.84 0.499999L319.67 31.077" stroke="#9E9E9E" stroke-width="0.437443" stroke-miterlimit="10"/>
<path opacity="0.7" d="M388.112 0.499997L334.493 47.3396L307.941 46.3012" stroke="#9E9E9E" stroke-width="0.437443" stroke-miterlimit="10"/>
<path opacity="0.7" d="M405.549 0.499997L324.518 71.5306" stroke="#9E9E9E" stroke-width="0.437443" stroke-miterlimit="10"/>
<path opacity="0.7" d="M303.525 86.3452L305.072 64.1024L313.687 57.1719L339.607 58.3117" stroke="#9E9E9E" stroke-width="0.437443" stroke-miterlimit="10"/>
<path opacity="0.7" d="M424.024 0.499988L239.629 157.356L213.04 156.003L150.023 210.572L135.816 210.572L126.707 217.88" stroke="#9E9E9E" stroke-width="0.437443" stroke-miterlimit="10"/>
<path opacity="0.7" d="M481.856 0.499986L411.479 61.3833L369.011 58.833L243.231 167.215L215 166.086L122.443 245.749" stroke="#9E9E9E" stroke-width="0.437443" stroke-miterlimit="10"/>
<path opacity="0.7" d="M495.108 0.499988L417.652 67.8674L375.011 65.6994L246.365 176.909L218.539 175.594L195.677 195.04" stroke="#9E9E9E" stroke-width="0.437443" stroke-miterlimit="10"/>
<path opacity="0.7" d="M509.335 0.499992L424.031 74.4801L381 71.7572L307.948 135.411" stroke="#9E9E9E" stroke-width="0.437443" stroke-miterlimit="10"/>
<path opacity="0.7" d="M465.731 38.3149L463.799 71.5167L405.55 121.914L403.423 148.571L350.634 195.026L322.532 193.233L265.862 241.814" stroke="#9E9E9E" stroke-width="0.437443" stroke-miterlimit="10"/>
<path opacity="0.7" d="M422.954 74.4224L415.819 81.0653L387.406 79.5366L337.019 123.129" stroke="#9E9E9E" stroke-width="0.437443" stroke-miterlimit="10"/>
<path opacity="0.7" d="M439.091 61.4136L439.091 78.9345L403.352 110.232L369.19 108.02L311.124 158.137L282.532 156.784L230.326 201.885L228.708 228.606L171.101 278.297" stroke="#9E9E9E" stroke-width="0.437443" stroke-miterlimit="10"/>
<path opacity="0.7" d="M529 27.2681L446.296 98.7758" stroke="#9E9E9E" stroke-width="0.437443" stroke-miterlimit="10"/>
<path opacity="0.7" d="M529 39.9219L428.902 126.796" stroke="#9E9E9E" stroke-width="0.437443" stroke-miterlimit="10"/>
<path opacity="0.7" d="M529 52.853L377.899 182.954L375.819 209.056L354.84 227.45" stroke="#9E9E9E" stroke-width="0.437443" stroke-miterlimit="10"/>
<path opacity="0.7" d="M529 65.4116L388.112 187.324L385.69 212.861L294.514 292.053" stroke="#9E9E9E" stroke-width="0.437443" stroke-miterlimit="10"/>
<path opacity="0.7" d="M528.999 76.8745L396.59 190.456L394.832 215.54L330.751 271.241L330.751 284.199L320.359 293.494" stroke="#9E9E9E" stroke-width="0.437443" stroke-miterlimit="10"/>
<path opacity="0.7" d="M529 90.5464L495.104 120.24" stroke="#9E9E9E" stroke-width="0.437443" stroke-miterlimit="10"/>
<path opacity="0.7" d="M476.308 137.525L500.377 138.631L509.336 131.322L509.336 107.777" stroke="#9E9E9E" stroke-width="0.437443" stroke-miterlimit="10"/>
<path opacity="0.7" d="M528.999 105.391L520.469 112.707L518.921 140.061" stroke="#9E9E9E" stroke-width="0.437443" stroke-miterlimit="10"/>
<path opacity="0.7" d="M529 145.994L481.857 187.327" stroke="#9E9E9E" stroke-width="0.437443" stroke-miterlimit="10"/>
<path opacity="0.7" d="M413.873 188.663L461.248 148.054L521.186 152.843" stroke="#9E9E9E" stroke-width="0.437443" stroke-miterlimit="10"/>
<path opacity="0.7" d="M528.999 161.097L448.91 227.449L422.953 227.449L328.004 307.511" stroke="#9E9E9E" stroke-width="0.437443" stroke-miterlimit="10"/>
<path opacity="0.7" d="M528.999 172.323L451.871 238.679L424.681 238.679L320.359 327.816" stroke="#9E9E9E" stroke-width="0.437443" stroke-miterlimit="10"/>
<path opacity="0.7" d="M529 187.324L455.325 250.067L428.504 248.779L399.198 273.586" stroke="#9E9E9E" stroke-width="0.437443" stroke-miterlimit="10"/>
<path opacity="0.7" d="M528.999 198.719L458.733 258.463L431.292 256.433L378.854 302.116" stroke="#9E9E9E" stroke-width="0.437443" stroke-miterlimit="10"/>
<path opacity="0.7" d="M345.394 390.563L529 230.457" stroke="#9E9E9E" stroke-width="0.437443" stroke-miterlimit="10"/>
<path opacity="0.7" d="M380.73 325.161L439.076 275.578L475.778 276.856" stroke="#9E9E9E" stroke-width="0.437443" stroke-miterlimit="10"/>
<path opacity="0.7" d="M299.042 412.454L441.92 288.996L461.1 289.672" stroke="#9E9E9E" stroke-width="0.437443" stroke-miterlimit="10"/>
</g>
</svg>
